<svg xmlns="http://www.w3.org/2000/svg" viewBox="0 0 1236.86 178.64"><defs><style>.cls-1{fill:#333;}</style></defs><g id="圖層_2" data-name="圖層 2"><g id="圖層_1-2" data-name="圖層 1"><path class="cls-1" d="M1102.77,144l-8.91-.1C1094.68,144.18,1097.13,144.27,1102.77,144Z"/><path class="cls-1" d="M1110.69,147.49c.21,0,.55,0,.74,0C1111.32,147.4,1111.1,147.41,1110.69,147.49Z"/><path class="cls-1" d="M698.54,66.46a37.42,37.42,0,0,0-7.67,1.14C695.6,67.37,697.78,66.94,698.54,66.46Z"/><path class="cls-1" d="M1236.86,59.27c-.33-.56-.61-.92-.9-.92C1236.13,60.2,1236.39,60.84,1236.86,59.27Z"/><path class="cls-1" d="M998.52,142.66c1.36.12,2.77.22,4.05.36C1003.42,142.24,999.53,142.19,998.52,142.66Z"/><path class="cls-1" d="M562.52,63.47a2.82,2.82,0,0,0-1.07.89A3,3,0,0,0,562.52,63.47Z"/><path class="cls-1" d="M675.36,121.59c-1.22.17-2.53.27-3.81.38A16.13,16.13,0,0,0,675.36,121.59Z"/><path class="cls-1" d="M1114.46,62.38a9.06,9.06,0,0,0-2.9,1.33C1113.4,63.38,1114.67,62.9,1114.46,62.38Z"/><path class="cls-1" d="M1113.8,71.6c5.93-1.25,8.5-2.17,9.08-2.95s-.7-1.2-2.67-1.68-4.52-.88-6.38-1.36-3.1-1.14-2.27-1.9c-6.13,1.38-20.3,1.3-13.55,3.18-6.58-2.52-16.44-1.55-27-.64-5.21.48-10.69.91-15.66,1A45.34,45.34,0,0,1,1042,65.85c-.66.56,8.09,2.44-2.38,3.75-15.65.46-14.49-2.15-20.87-3.32-2.32.78-9.43,1.43-15.67,1.76s-11.61.31-10.46-.07c-10.43,1.22,11,5.63-3.54,7.82-9.9,3.62-23.25.25-34.88,1.11-13.92-2.82,14-1.63,19.77-2.81-13.17.36-26.34.82-39.53,1.11-11.59-2.2,5.29-3.49,16.92-2.92-15.7-2.58-36-.91-40.76,2.09-9.87-.88-15.11-.3-24.39-1.74,9.29-1.53,8.84-6.9,23.35-7.51,23.85.82-8.73,3.92,11.55,5.14l1.8-3.17c8.67,2,15.65-.21,25-.32,5.2.88-1.16,1.13-4.65,1.54,16.86,0,30.25,1.9,43-1.57-11.33-1.64-25.56-1.58-38.2-1.59S924.4,64.94,919.47,63l-45.36,3.5c0,1.5,15.65,4.25,2.81,6.11-5.18-3.89-18.5-5.94-36-7,6.35,4.26-28,3-19.33,6.47,8.2-1.86,12.2,1.68,13.33,2-16.9-.19-2.38,3.71-11.68,3.7-30.85-1.75,1.22-2.58-29-4.91A256.83,256.83,0,0,1,834,66.32c-1.12-1.86-16.8-.17-23.83-2.46,9.88,2.46-7,3.68,1.1,4.83-24.52,1-53.13,4.45-82.86,4.44,2.4-3,15-3.72,25.76-4.67s19.85-2.15,15.28-5.87c-14.57.51-14.6,3.46-26.27,2.65-9.78-3.94-34.32-1.49-54.19-2l8.73,2.1c-7.59,1.25-21.53-.32-30.31-.93l2.32-.73-8.68.87c-1.35-.19-1.66-.4-1.62-.62-9.58,1.58-33.82-1-52.09-.42-.07,3,18.07.65,26.79,1.25,2.36.75,19.18,2.53,10.95,4.32-22.64-.69-38.53,2.4-64.17,1.53L589,71.76c-8.22,1.83-19.25.45-31.49.26-22.16-2.64,16.43-3.68,3-5.75,8.8-2.4,23.9,1,26.32-2.66L573,59.09c-11.76,2.16-24.54-1.91-32.76-1.57l8.76,2c-1.82,3.15-9.92.53-14,0l5.79,4.83c12.78,1.15,21.67-2.73,30.9.26-22.76.86-17.63,4.79-45,4.15-1.19-1.85,5.29-.53,8.17-1.82-9.32-1.5-19.27,2-34.4.12,8.72-.94,22.81-2.37,11.75-5.18l-8.23,3.31c-7-.71-4.08-2-6.95-2.2-10-.9,2.2,3.71-13.52,2.44-2.33-.74-7.54-1.65-5.23-2.4-18.09-.53-8.73,1-25.67,2.28,15.14.33,15.61,5.7-.12,5.92-22.18-1-37.37,1.74-52.53-3l-10,2.12c6.42-3.21-14-1.39-21.06-2-1.15-1.82,7.18-1.76,15.81-1.87s17.54-.51,17.58-3.47c-14.59-.82-8.2-2.53-3.47-4-15.82.29-5.91,4.11-12.93,6.39,0-1.55-26.92-.75-17.54-3.86-13.45-.35-15.81,3.39-25.71,2.61,1.51-1.44,3.24-3.29,2.31-5.18-1.18,1.22-13.88-.41-16.34-.54,2.32.71-4.68,3,7,2.13-1.47,1.41-8.35,1.37-14.78,1.28s-12.42-.14-12.1,1c-1.21-3.3-25.19-.7-37.47-2.07,1.22,7.75,22.78-3,26.91,3.43-8.18,1.31-21.92,1.36-36.91,1.51-7.5,0-15.31.3-22.89.64s-14.93.94-21.5,1.86c-22.79-1.26,0-3-4.73-5.77,21-1.46,26.34.75,44.5-.78-19.94-1.16-52.71-.08-67.29,2.52-21.7.81-24.26-7.22-50.6-4.71,3.58,2.42,3,3,11.27,3.76-7,1.06-15.25.29-22.85.52-2.3.88.65,1.26,2.86,1.64s3.69.78-1.56,1.63c-4.12-.32-12.9-.36-11.23-2.12l1.75-.29c-25.09,3.16-18.43-5.41-39.89.13,1.79,1.19,6.43-.56,11.75.06,4.16,1.78-9.15,5-19.12,6.14.84-.88-1.27-.9-4.68-.71-3.83.22-8.89.86-13.05,1.19-3-1,2.21-2.09,8.58-2.67,1.59-.14,3.28-.25,4.89-.34,1.39-.08,2.76-.16,4-.27,2.5-.21,4.54-.52,5.4-1l-9.72.12q-5.73.14-11.53.74C57.27,68,58.9,68,60.53,68a120.55,120.55,0,0,0-24.8,7.68,30.2,30.2,0,0,1,8.76-2.24c1.56-.06,1.91.39,1.5,1-.83,1.25-4.63,3.32-8.35,4.71a74.13,74.13,0,0,0-13,5,59.14,59.14,0,0,0-11.5,7.47,89.12,89.12,0,0,0-7.59,7.37c-1.71,1.86-2.8,2.58-3.1,1.46.31,1.13-.51,3.86-1.34,7.8-.17,1-.36,2-.56,3.16s-.3,2.29-.41,3.51a51.09,51.09,0,0,0,0,7.84,43.44,43.44,0,0,0,1.61,8.86,42.58,42.58,0,0,0,3.72,8.62,43.82,43.82,0,0,0,10.82,12.43c-3.76-3.59-5.37-6.29-5.87-7.39s.12-.9,1.27,0c.57.44,1.28,1.05,2.08,1.65s1.67,1.31,2.56,1.91a36.19,36.19,0,0,0,4.83,2.94A66,66,0,0,0,32,159.89a88.61,88.61,0,0,0,11.48,5.93c-3.24-.81-5.6-1.54-7.28-2a17.75,17.75,0,0,0-3.12-.75c-.93,0,.21.94,2,2.09s4.22,2.49,5.79,3.51,2.29,1.75.56,1.81c-4.36.41-10.73-1.24-17.83-5.15a59.3,59.3,0,0,1-11-7.87A53.87,53.87,0,0,1,2.45,145.2a43.17,43.17,0,0,0,8.2,12,45,45,0,0,0,8.73,7.05,47,47,0,0,0,8.21,4.08,57.09,57.09,0,0,0,7.68,2.35A147.73,147.73,0,0,0,50,173.11l7.77,1.07,4.19.64,2.14.35c.63.1,1.27.22,1.92.34,0,.74-.57,1.51-2.24,2-1.9.42-5.42.5-10.89-.59a20.25,20.25,0,0,0,5.73.85c1.33.06,2.84.09,4.48.07.44,0,.75,0,1.1,0l1.08,0,2.24-.11c3.09-.13,6.49-.21,10-.12a72.17,72.17,0,0,1,10.64.68c-3.73-1.13-11.53-4.3,2.46-5.18l9.12,1.82,4.58.9,4.57.8c10.62.15,12.36-1,13.64-2.31s2.11-2.95,10.66-4.27c-3.79-.6-7.61-1.3-11.4-1.95.81-1.66,6.6-1.86,12.2-2.27s11.05-.81,11.19-2.62a93,93,0,0,0-13.53,2,59.58,59.58,0,0,1-14.07,1.14c-1.09-.83-.75-1.38.47-1.79a31.25,31.25,0,0,1,5.74-.94c2.43-.25,5.19-.44,7.73-.75a33.42,33.42,0,0,0,6.42-1.27c23-.11,18.32.27,35.52,1.58.56,2.65-6.3,4.89-12.81,7.3s-12.73,4.9-10.63,8.24c11.28-1.27,24.81-3.16,37.33-4.54s23.95-2.27,31.12-1.76A71.56,71.56,0,0,0,229.2,170a10.74,10.74,0,0,0,4.68-2.56c1.53-1.73.28-3.49-1.24-4.93a65.62,65.62,0,0,1,9.6-.66,59.7,59.7,0,0,1,7.47.54c-3,.64-6,1.41-9,2.1,2.95-.34,5.77-.72,8.44-1l7.73-.83,3.68-.4,3.59-.29,7.08-.53a225.49,225.49,0,0,1,31.54.26c14.24.13,8.82-3.46,5.56-6.24q7.78.3,15.59.73l-2.31-.89c3.78-3.1,17.55-.63,28,.61-.12,1.46-6.52,1.15-6,2.12,9.09,2.2,23.1,3.34,30.79,2.62-.11,1.48-6.86,4.13-17.78,1.94-1.13-.46-.5-1-1.61-1.43H336.27c21.51.39,34,5.5,33.12,9,10.92.17,6.6-1.18,2.8-2.41s-7.09-2.37,5.83-1.77c16.63,5.14,33.15,5.86,47.54,6.36s26.81,1,36.3,6c16-1.94,34.83-5.57,59.42-6.5-.08-3,16.37-1.64,13.87-5.23-11.76-1.55-22.67.19-33,1.62s-20.23,2.6-29.69-.13c-10.54,1.38-7,3.85-11.77,5.43-9.42.17-18.33-.4-19.5-2.27,11-.63,12.44-2.48,14.66-4a12.22,12.22,0,0,1,5.13-2,82.07,82.07,0,0,1,13.79-.9c-1.75-1.25-8.19-1.62-15.44-1.87S444,162,439,161.53c2.94-1.31,0-2.91-6.36-4.32,7.12-2.09,22.78-3.8,30.91-5.87-2.87,1.35,2.37,2.19,0,3q14.25-2,28.43-4.37c8.75,1.69,11.18,3.78,6.52,5.48,15.79.63,42.38-4.24,42.61.19,20.35-1.38-6.56-2.4-8.33-3.61l1.73-.28-21.51,1c-2.52-5,24.49.55,27.78-4.5,3.07-9.44,30.45,1.89,45.54,0l-17.26,7.23,15.13-1.92c-8.66,2.89-8.48,7.29-21.73,10.47,10.47-.25,23.12,0,34.84,0,5.86,0,11.48,0,16.48,0s9.35-.27,12.7-.65c5.26,2.18,7.6,4.3,5.34,6.62,10.41-2.36,18.56-1.84,26.35-.86s15.21,2.49,24.22,2.54c19.11-2.59-19.21-3.33-5.31-6.71,5.8,1.69,16.27.28,21.49-.41-2.89.63-9.44.39-17-.14l-23.16-1.76c10.49,0,9.29-3.29,12.2-4.69l-17.52-.5c1.1-4.08,21.53-.62,29.65-2.67-5.16,3.67-2.3,3.76-7.45,7.44,15.11-1.53,37.81-1.66,50.65.72,7.56,1.51-6.39,1.8-10.47,2.82,3.47,2.52,15.11-1.44,18,1.67-2.33,2.27-9.28.18-14.53.85,14.72.44,29.45.84,44.17,1.41,0,1.48-11,1.82-18,1.19,13.38,1.83,23.21,1.13,39-3.71,15.1,1.72,32.49,4.16,27.3,6.24,7-.79,2.35-2.23,2.33-3.72,20.37,1.19,22.74-4,35-3.86l-9.21-2.93c19.71,3.26,4.7-4.49,22.13-1.9-2.92,2.78-1.86,6.1,1,9.26,3-2.78,14,0,21.54.17-4.62-3,16.32-2.19,4.17-5.37,17.56-1.82,25.58,2.27,38.5-1-8.1-1.14,15.21-2.53,8.24-4.79,16.95.26,28.49,4,23.8,7-5.85-.4-15.18-1.92-14.59.49l30.86.32c7.6,1.7,17.43,2.67,18.56,6,10-3.48,29.06,3.47,36.75-.77-10.56,2.56-18.66-1.55-22.66-2.13l4.8-.49a23.38,23.38,0,0,1-2.48-.24l13.5-5.32c-12.76-2.64-2.39,3.69-20.51,3-15.55-5.8,35.78-7,19.53-10.84-13.34-2.09-11.14,3.11-22.24,4.73l2.88.2-25.11,1.55c-1.12-1.85,6.5-3.13,6.5-3.13-30.33-.87-34.93-3.86-67.55-5.46,2.35.75,8.59,6.51-6,7-10.48,1.09-11.6-2.24-20.3-2.83,5.22-.54,10-3.5,16.9-1.25l-.46-3.89c24.57-4,11.85-8.13,45.1-8.56,1.61-2.81,25.72-3.57,43.76-2.21l-8.69-2.82c18.76-4.35,3.4,4.1,27.39.68,9.77,5.43,27.74,12,14.23,15.82,16.88,1.7,22.73-.86,37.94-.44,9.21,4.45-4.78,4.44-3.14,8.7,11.12-.18,25.14-1.64,17-4.24l21,2.23c.54.93-7,.74-9.95.56,8.16,1.14,23.94-.58,28.6-2.06-1.73.18-7,.75-9.3,0,8.76-.94,24.52-2.64,25.69-3.75-12.85,1.87-13.91-2.95-27.36-.51,1.17-1.11,3.52-3.34,10.5-2.62-11-2.76-22.09-2.55-26.67-5.53,9.29,2.39,15.34-.59,17.32-1-8.35-1-25-.66-30.71.41-1.1-4.79-32.61-.05-21.48-4.66-1.79,1.66-14,1.43-20.42.12.64-2.05,17-2.72,24-4.93,32.67-1.44-.66,3.52,6.9,5.21l24.89.29c-2.48-.75,10.05-3.08-6.19-3.23,7.62-2.76,23.35-4.46,36.09-1.89,3-1.31-6.37-1.28-9.26-1.46,2.93-1.31,18.71-6-1.62-7.23,5.82.36-9.93,2,.5,3.89-8.15.4-30.2-2.22-21.39-4.62-9.93.53-28.58,2-36.74,2.35-2.29-2.24,7-.71,11.11-1.63l-28.59.47,8.1,2.61c-20.88-2.28-34.43,3-51.35,4.25,2.42-3.7,16.43-3.64,27.52-5.26-10.43-4.86-7,2.19-24.51,1-2.33-.76-2.9-1.68-1.72-2.79l-14,2.9c-4.06-.57-1.74-1.31,0-1.48-24,3.41.44,5.37-31.67,6.16,19.24,2.48,16.46-2.14,32.7-1.33,9.31,3-18.72,4.35-23.47,5.8-15.68-1.35-17.32-7.09-37.23-4.58,14-1.43.67-3.52,20.5-3.07,11.13-1.63-5.81-1.87-8.06-4.11-5.26.54,3.38,4.09-11.18,3.11l.59-.55-24,3.46c-22.18-2.65-50.26,3.31-65.4-1.42l3.44,4.06H814.63c-8,0-15.41.16-20.37.48,2.33-2.24,11.69-2.32,21.63-3a312.69,312.69,0,0,0-35.23.45,287.89,287.89,0,0,0-29.08,3.61c12.28,3,14,2.77,25.7,4.82-8.19,2.71-13,1.8-18.4.53s-11.4-2.91-21.93-1.56c-.55-3.88,6.45-3.28,1.22-7.07-8.77,2.62-23.4,1.92-33.34,4.27-5.29-3.74,4-7,25.68-7.26,16.38,3.32,34.53-2.25,48,1.07l-8.18-2.49c16.42-1,26.31-.08,40.35-1.71l-.58.57,7.07-3.77-7.58-.12c5.27-2.12,21.11-5.31,25.8-5.33-23.44.08-25.24,6.27-36.39,9.5-21-.6-29.25-7.44-43.31-4.29-1.13-1.85-12.88-3.91-3.46-5.51,11.69-.92,19.9,1.56,21.08-1.06-12.32,0-7.61-1.55-26.36-1.28-3.57,3.41-17.61,6.67-31,9.35a229.81,229.81,0,0,1-43.42.82c14.06-.44,28.11-3.75,24.55-6.26-8.19,3.56-27.58-2.74-23.4,2.15-8.21-.07-19.21,0-28.4-.44s-16.56-1.26-17.49-3.37a113,113,0,0,1,11.54-.75c3.8,0,7.56.07,11.24.19,7.35.25,14.41.58,21,.06-3.63-.06-7.19-1.08-5.06-2.1l9.7.11,9.7.2c-14.68-2-11.79-3.35-30.6-2.69,1.19.33,3.56,1,1.79,1.22-4.69.17-10.58,0-15.31.19l-.64-3.87c-7,1-17.35.48-29.14.07-3-.1-6-.19-9.09-.24s-6.27,0-9.47.07a167,167,0,0,0-19.38,1.48l2.3-.87a51.77,51.77,0,0,0-21.48,3.93c-5.67,2.12-11.56,4.47-22.54,5.28,6.3-2,3.33-3.54,2.14-5.32-10.91,2.29-16.8-.73-27.74-1.48,12.72,2-8.45,4.3.77,5.33.35,1.94-5.08,3-12,3.59a197.06,197.06,0,0,1-21.09.31c-1.71-1.25-.35-2.05,2.36-2.62s6.81-1,10.58-1.37c7.55-.81,13.79-1.62,5.17-4-11.38-.28-14.18,2.53-6.18,3.4-7.13-.22-16.09-.43-24.48-1.11s-16.26-1.75-21.26-3.43a130.21,130.21,0,0,1-19.35,2.1,70.66,70.66,0,0,0-7.31.73,41.26,41.26,0,0,0-7.58,2.07c8.95.39,9.64-3.09,20.73-.6-4.14,1-8.31,2-12.47,3-16.18-.75-28.9-5.25-40.29-6.85L386.4,118l-.63.52c4.7-1.13,19.71,1,18.19-1.85-10.81,2.57-19-1.52-33.49-.6l.62-.51c-12.75.11-23.72-2.48-33.72-4.34s-19.06-3-27.8-.09a30.6,30.6,0,0,1,8.6,2.11c2.56,1.07,4.13,2.23,2.57,2.78-2.93-1.12-8.5-1.84-13.26-2.51s-8.71-1.27-8.37-2.27c1.87-.14,3.71-.22,5.57-.34-15.24-1.57-24.73-2.07-30.38-1.5-4.35,2.49,0,4.44-11.14,5.82-3.41-.23-5.76-.37-7.35-.61s-2.4-.52-2.67-.84c-.55-.64,1.08-1.43,3-2.24s4.09-1.66,4.65-2.36-.55-1.43-5.2-1.83c-8.5,1-16.83,2.29-25.09,3.62l-5.6-1.93c-18.52,0-34.34,2.82-50.11,5.81s-31.55,6.29-49.68,7.23c-.19-1,1.28-1.85,3.75-2.68a72.38,72.38,0,0,1,9.74-2.36c7.58-1.43,16.44-2.6,21-3.12-11.71-2.45-27.68,3.53-42.6,1.68-13.7,0-23.78,3.22-21.68,5.42a46,46,0,0,1-8.94.08,7.13,7.13,0,0,1-3.48-1c-1.12-.85-.41-1.92-1.45-2.29-1.39,1.06-3.69,1.58-6.61,1.88-1.45.15-3.06.23-4.77.26l-1.31,0H67.63c-.6,0-1.23,0-1.86-.07A45.9,45.9,0,0,1,58,118.59c-2.48-.63-4.67-1.35-6.25-1.85l.76-2.27-2.06-.28a3.49,3.49,0,0,0-1.28,0,1.76,1.76,0,0,0-.2.09l0,0v0l-.09.09q-.36.41-.75.78l-.4.38-.33.34c-.22.23-.45.45-.68.67l-1.36,1.2A24.67,24.67,0,0,1,41,120.74l.51-.29.52-.29c.28-.17.44-.29.55-.37.27-.17.16-.1,0,0s-.49.33-.77.49l-.36.2-.11.06a8.37,8.37,0,0,1-1.63.74h0l.14,0,.31-.11.34-.16c.2-.09.4-.18.58-.28l.61-.34c.53-.29.91-.57,1.59-1l.44-.32.21-.16c.08-.07,0,0,0,0l0,.09c-.06.06,0,.16,0,.27a2.66,2.66,0,0,0,.25.36c.17.13.27.27.48.42,1.54,1.22,5,2.5,9,3.24s8.44,1.22,12.55,1.75l3.7.46c1.4.19,2.78.42,4.15.72a61,61,0,0,1,8.07,2.37c-6.6.72,2.15,2.29-4.49,2.91-5.44-.56-6.52-1-7-1.91a23.23,23.23,0,0,1-3.17,1.2c-.31.1-.51.18-.73.26l-.61.25c-.39.16-.73.31-1,.44-.49.28-.62.53,0,.77a6.29,6.29,0,0,0,1.45.33c.31.05.81.09,1.39.13l1.93.12a2.27,2.27,0,0,1-1.31,1.53,11.43,11.43,0,0,1-2.86.92,27.2,27.2,0,0,1-8.51,0,55.58,55.58,0,0,1-10.43-2.49A58.5,58.5,0,0,1,38,129.11c-1.14-1.9-.76-2.63-.09-2.84s1.94.13,3.71.64a60.54,60.54,0,0,0,6.42,1.53,20.75,20.75,0,0,0,6,.32c-2.27-.49-4.42-.59-6.61-1.08a12.85,12.85,0,0,1-3.18-1.13,7.48,7.48,0,0,1-2.65-2.17c1-.78,2-1.6,3-2.45-2.35-1-2.81-1.12-3.37-1a3.32,3.32,0,0,0-1.3.65,15.34,15.34,0,0,0-1.22,1.27,3.51,3.51,0,0,1-2,1.22,2.47,2.47,0,0,1-2.61-.61,2.2,2.2,0,0,1-.14-2.15c.07-.22.19-.45.27-.65s.25-.42.34-.61.28-.33.39-.48.28-.24.38-.36c.5-.41.92-.62,1.05-1a3.25,3.25,0,0,0,.27,1.58c.31-.32.47-.5.71-.76s.39-.58.7-1a21.63,21.63,0,0,1,2.39-2.93c2.16-2.15,5.26-4.62,11.7-6q3.36.75,6.67,1.76a21.52,21.52,0,0,0-9.93,1.36,12.37,12.37,0,0,0-5,3.79c-2.11,2.72-2.17,5.15-3.15,4.89.5,0,1.47-.16,2.19-.12a2.54,2.54,0,0,1,1.72.58c.72.66.34,2,.49,3.07a1,1,0,0,0,.1.37,1.54,1.54,0,0,0,.17.31s.07.07,0,0l-.3-.33q-.31-.33-.66-.66c-.43-.42-.73-.75-1.17-1.12a15.23,15.23,0,0,0-3.14-2.3l-.12-.05-.06,0,.09,0a3.45,3.45,0,0,0,.44.13l.1,0,.2,0,.37.08.83.13a6.68,6.68,0,0,0,1,.1h0l-.21,0-.42,0h-.78a7.89,7.89,0,0,1,1,0l.57,0-.46,0a7.8,7.8,0,0,1-.94-.12c-.29,0-.43-.06-.66-.11a5.55,5.55,0,0,1-1.12-.3,15.71,15.71,0,0,1,4.13,3.13c.21.23.59.57.86.86s.56.6.82.9a24.85,24.85,0,0,1,1.77,2.12c.32.39.64.8.94,1.2l.07.1.24.11c.4.13,1.07.25,1.75.49.85-1.74,3.21-3.09,6.09-3.87a42.59,42.59,0,0,1,9.79-1.2l6-.11c2.39-.06,4.76-.17,7.1-.39a54,54,0,0,0,13.7-2.87c9.85.34-8.54,2.93,1.87,2.68,9.54-.11,19.37-.51,29.33-1.25l7.49-.61q3.76-.28,7.54-.64,7.56-.7,15.14-1.68c10.47-.11,8.72,1.64,11.68,3.16,6.3.15,12.11.13,17.58,0s10.57-.42,15.47-.69c9.79-.59,18.68-1.52,27.73-2.45s18.24-1.89,28.62-2.49,22-.65,35.75-.1l-8.1,2c11.57.46,21.45,1.16,27.21-1.59,7.27,3.21,19.61,2.4,32.46,1.56s26.21-1.57,35.45,2c24.4,1.64,25.63-3.91,44.84-4.63,0,1.49-5.9,4.14,4,5,62.77-1.08,119.22-.1,188.53.88-.59.54-4.1.9-5.84,1.08,44.82,1.89,89.26-3,126.51.2,7-.7,28-1.34,21.69-4.16-8.71-.6-9.81-3.93-9.17-6,33.3-1.9,16.18,5.24,38.39,5,6.88,5.22-14.07,2.91-14.2,7.36l32.18-2.27c18,2.11,36.22-.32,51.92,2.47-7-.74-2.38,3.7-14,1.47,1.78-.17.6-.54,2.38-.74-26.88-1.13-14.7,2.07-38.67,2.54,21.07-.67,49.7-1.24,68.38.26-4-3.48,15.21-1.14,20.51-3.21l1.17.37c0-1.49,11.67-2.27,15.24-2.66l4.59,4.43c8.22-.41-2.29-2.22,5.9-2.61,11.63-.71,53.21-.65,56.08,4a136,136,0,0,0,16.18-1.26,95.19,95.19,0,0,1,16.56-.62c-1.16,1.13-4.67,1.56-5.22,2.13,15.48.55,32.74.51,49.79.69s34.31.48,50,.91a276,276,0,0,0,35.82-5.55c11-2.58,20.73-5.86,28.61-10.08a68.6,68.6,0,0,1-7.11,2.17c-2.75.64-5.63,1.21-7.91,1.52-4.54.45-6.59,0-.52-2.61a40.25,40.25,0,0,1,5.63-2.46l3.27-1.14,3.51-1.25c2.4-.84,4.93-1.65,7.48-2.74l3.85-1.6,1.93-.84,1.9-1c-.39.79,1.12.58,3.3,0,1.09-.31,2.35-.71,3.62-1.14s2.5-1,3.62-1.43c2.23-.91,3.89-1.55,3.75-1.2a7,7,0,0,1-1.73,1.37c-.57.39-1.29.86-2.18,1.42s-2,1.26-3.24,1.91a4.39,4.39,0,0,0,1.74.09,13.78,13.78,0,0,0,2.35-.56,49.07,49.07,0,0,0,6.14-2.51c2.28-1.16,4.71-2.67,7.23-4.23l1.89-1.2c.65-.44,1.32-.9,2-1.4,1.39-1,2.88-2.11,4.42-3.39a56.77,56.77,0,0,0,9.33-9.7,49,49,0,0,0,3.94-6.19c.55-1.1,1.07-2.18,1.55-3.24.23-.53.46-1,.69-1.55l.55-1.54a52,52,0,0,0,1.7-5.52c.39-1.63.78-3.09,1-4.23.49-2.29.95-3.59,1.57-3.49,0-.35-.07-.74-.11-1.19s-.11-.91-.18-1.43c-.13-1-.28-2.27-.46-3.65s-.53-2.78-.88-4.36-.86-3.13-1.39-4.84a56.69,56.69,0,0,0-11.62-19.78,55.28,55.28,0,0,0-9.31-8.23,54.71,54.71,0,0,0-5.38-3.32c-.88-.47-1.64-.81-2.46-1.21s-1.61-.74-2.4-1.05a47.32,47.32,0,0,0-15.68-3.68c-.7-.71.29-.87,2.2-.71,1,.09,2.18.32,3.52.59s2.86.7,4.39,1.17,3.11,1,4.61,1.62l2.17.87,2,.87,1.69.73c.56.26,1.08.51,1.5.69.85.37,1.37.53,1.47.37-.9-.53-1.82-1.07-2.72-1.55l-2.43-1.19c-1.63-.81-3.26-1.41-4.89-2.07A74.58,74.58,0,0,0,1190,4.17l.37-1.43A68.08,68.08,0,0,0,1178.56.38a64.85,64.85,0,0,0-8.78-.36,57.93,57.93,0,0,0-11.89,1.58c-1.58.37-3,.76-4.42,1.14s-2.8.76-4.22,1.11a55.62,55.62,0,0,1-9.52,1.5l.56-.58-9.89.84L1142,1.56c-15.72.66-23.84,4.23-41.32,5.12l-1.76-1.26-10.53,1.43c1.78-.24,2.37-.82,1.23-1.15-9.92,3.81-32.66,2.44-41.95,5.67-7-.52-12.91-5.19-22.2-1.94l1.73-4.68c23.3-.68,8.7,3.26,33.22,1.43-18.13-5.95-68.86-5-102.67-4.42C930.41,5,885.45.19,873.85,7.19l2.88-2.86L830.67,2.16c-39.07,1.34-79.3-.64-109,3.37l-8.19-2.34C682.69,11.3,608.54,7,588.25,16.66c-17.47-2.07,5.23-3.67,7-5.39-12.87-.72-34.37,5.65-46.66,1.37,0-1.47,18.08-1.46,9.91-2.33-9.34-2.69-13.35,2.8-23.91-.22,4.68,2.82-16.87,6.23-32.55,6.87,2.89.11,2.89.11,4.13.44,2.29,2.16-9.39,1.76-15.8,2.13a4.48,4.48,0,0,1,2.32-.81c-81,4.05-173.63,6.2-258.8,3.88l15.68-2.13c-12.22,1.65-33.84.62-40.8.08l1.77-.23c-22.77-4.34-25.64,4.44-43.17-.6l3.46-.48c-27.4.26-43.71-4.45-70.5-1.82C79.24,15.81,81.56,13.52,67,11.54c-12.24.16-18,2.94-18.6,3.51l5.86.2c6.43,2.59-12.81,2.23-21.54,3.41,6.44,4.07,3,10.47,27.56,14.58,18.05-1.46,17.57,6.53,38,5.75,11.6-5.53,29.2,3.95,47.78-1-9.88,3.8,22.18,1.94,5.93,6.12,7.6,2.94,39.58-3.39,54.24.09-2.38.82-1.81,1.71-5.27,2.19,20.41-2.26,14,2.55,29.17,2.48l-.6-3.87c5.84-1.29,7.61,1.44,12.83.74-4.13-.45-12.83-2.23-8.25-3.84,7-.95,12.84-2.24,20.4-2.27.09,1.48-5.17,2.19-8.73,2.67,0,0,16.39.27,17.54,2.08-5.84,1.27-13.41,1.31-18.57,3.51,21.54,1,1.73,1.24,12.24,4.26-3-4.54,18.67-2,30.28-3.1,1.22,1.82-8.15.61-11,2,22.26,7.88,33.24-1.52,61.79.05-.57.56-4.06,1-5.83,1.28,13.44-1.32,22.81,2.86,31.52.19,12.86.74,2.38,5.13,22.21,4.91-5.86-4.64,23.34.8,23.84-4.21l15.21,2.87c13.42-2.79-3.62-8.41,22.64-9,23.91,1.72-2.23,8.24,11.76,10.78l5.83-2.77L476.8,57l-1.77.24c7-.94,19.8-.21,19.84,1.26-1.14,1.15-8.75,1.19-9.84,2.34,11.58-2.56,46.07,6.61,58.23-1,6.89,1.29,21.06,1.2,19.26,3.6,6.24-3.35,31.05.9,40.29-1.27-1.2,1.15,7.59,2.93,14.58,2-9.37-1.21-3.51-2.49,2.84-4.36,8.23,2.37,31.52.2,35.07,4.17,12.82-2.23,8.11-5.05,10.93-7.92,8.23,2.35,34.48,1.77,29.87,6.35-7.05-.52-22.8-1.37-19.81,1.7,13.41,1.63,5.8-1.29,16.85-1.8-.82.84,7.52,2.78,5.4,4.12a168.19,168.19,0,0,1,25,.19c-14.55-2,9.29-3.24.55-5L710.11,65c-16.93.3-3.56-2.49-10-3.61,29.74-1,23.85-5.71,51.81-8,5.24.76,14.57,2,17.51,2.08-9.33.27-7.51,4.49-2.22,5.25,15.62-3.61,28,2.14,40.82,2.88-11.12-1-5.28-3.73-1.22-4.78,26.78-2.63,10.52,1.54,22.21,3.42,41.33-.65,67.65,4.7,100.82,1.69l-15.74-3.81-5.22,3.68c-12.27-2.8,2.23-8.22,9.2-10.64,1.77,1.24,22.19.46,14,2.55L952,54c-3-1.58-15.79-.84-6.53-2.6,6.52,1.12,26.87,1.82,14.09,4,10.48.06,23.87-1.26,21.54-3.41,16.89-.3-1.72,4.68-9.25,6.2,13.38.16,11.67,3.36,7.63,4.41l18.61-.55c-4.05,1-4,2.52-8.07,3.56,12.24,1.32,21-2.82,31.44.21l4.66-3.12c33.82,2.36,30.35,2.83,61.86,3l-5.27-2.26c23.84-4.22,17.49,3.58,49.55,1.72,9-.74,16.46-1.37,21.34-2.28s6.81-2.07,5.79-3.9c4.75-.68,7.09-.36,8.81.3a15,15,0,0,1,3.8,2.52,37,37,0,0,1,6.74-1.6h.1c-.35.62,3.07-5.45,1.62-2.87h0v0l0,.05-.06.11-.23.41c-.16.26-.32.51-.49.74s-.3.45-.45.65l-.23.3c-.12.15,0,0,0,0s.11-.07.17-.07.14,0,.17,0,.14.17,0,.25a5.28,5.28,0,0,0,.83-.42c.48-.25,1-.45,1.57-.7a19,19,0,0,0-2,.92c-.27.14-.5.26-.72.39l-.55.36a5.2,5.2,0,0,0-.55.39l-.06,0a.92.92,0,0,0,.15-.14,12.34,12.34,0,0,0,1.51-1.84c.16-.25.37-.51.54-.8l.26-.45.13-.23,0-.06h0l-2.74,4.86h0a5.45,5.45,0,0,1-.56,0,6.26,6.26,0,0,0-.2,1.11,1.41,1.41,0,0,0,0,.2v.12h0l3.54-6.29h0v0l-.07.15a9,9,0,0,1-.75,1.18,10.82,10.82,0,0,1-.79,1.09,8.08,8.08,0,0,1-.69.78l-.18.19-.11.1c.05,0,0,0,.33-.25a4.36,4.36,0,0,1,.42-.28,7,7,0,0,1,.67-.41l.38-.2.46-.25c.32-.17.66-.31,1-.46a19.29,19.29,0,0,1,2.4-.87c.41-.13.89-.22,1.31-.31a7.91,7.91,0,0,1,1.25-.24c.49,0,.78-.11,1.16-.13a5.52,5.52,0,0,1,.58,0,4,4,0,0,0,.51,0,10.45,10.45,0,0,1,1.51.11l.28,0,.23.06a.74.74,0,0,1,.18,0l.12.05-.08,0-.13-.06,0,0-.87-.47-.82-.49a31.17,31.17,0,0,1-2.6-1.92c-.3-.24-.63-.51-.94-.78l-1-.91c-.39-.35-.71-.68-1.14-1.08s-.88-.85-1.32-1.3l-1.49-1.55-1.63-1.77c.07.06.07.17.08.28a6.53,6.53,0,0,1-2.14,2.84c-1.38,1.26-2.77,2.7-4.32,4.07a116.24,116.24,0,0,1-20.72,14.15c3.44.47,5,1.89,4.19,4.06a10.29,10.29,0,0,1-3.12,3.8A41.48,41.48,0,0,1,1145.2,81c.39-.67-.6-.9-2.42-.87s-4.49.38-7.59.61l-4.81.45-5,.31-2.44.12h-2.35c-1.52,0-2.93,0-4.16-.11,1.15-.66.34-1.18-1.19-1.64s-3.83-1-5.6-1.41c-3.55-.91-5.06-1.82,5.07-3.06a61,61,0,0,1,7.69,1.62,17.86,17.86,0,0,0,9-.57,44.08,44.08,0,0,0-5.13-1c-1.06-.16-2.21-.31-3.44-.45l-3.94-.48-19-2c.49-.6,2.48-1.36,5.2-2a62.12,62.12,0,0,1,9.48-1.59C1111,70.22,1113.18,70.73,1113.8,71.6Z"/><path class="cls-1" d="M998.52,142.66c-.81-.08-1.57-.16-2.37-.22l2.88.93C998.07,143.06,998.08,142.83,998.52,142.66Z"/><path class="cls-1" d="M662.72,62.9c-1.15.12-3.28.58-3.33,1A8.69,8.69,0,0,0,662.72,62.9Z"/><path class="cls-1" d="M344.4,58a2.44,2.44,0,0,1,.53,1C345.2,58.77,345.14,58.48,344.4,58Z"/><path class="cls-1" d="M1018.31,169l-5.69.58C1014.68,169.68,1015.67,169.3,1018.31,169Z"/></g></g></svg>