<svg xmlns="http://www.w3.org/2000/svg" width="40.776" height="40.776" viewBox="0 0 40.776 40.776">
  <path id="Path_16593" data-name="Path 16593" d="M1788.282,6073a20.388,20.388,0,1,0,20.388,20.388A20.411,20.411,0,0,0,1788.282,6073Zm5.655,12.094a.308.308,0,0,1-.308.307h-2.451a1.09,1.09,0,0,0-1.09,1.09v2.567h3.487a.308.308,0,0,1,.307.334l-.306,3.618a.308.308,0,0,1-.307.282h-3.181V6105.3a.308.308,0,0,1-.308.308h-4.388a.307.307,0,0,1-.307-.308v-12.009h-2.195a.307.307,0,0,1-.307-.308v-3.618a.307.307,0,0,1,.307-.308h2.195v-3.489a4.4,4.4,0,0,1,4.4-4.4h4.143a.307.307,0,0,1,.308.307Z" transform="translate(-1767.894 -6073)" fill-rule="evenodd"/>
</svg>
