<svg xmlns="http://www.w3.org/2000/svg" width="43" height="43" viewBox="0 0 43 43">
  <path id="Path_45" data-name="Path 45" d="M4327.25,5356a21.5,21.5,0,1,0,21.5,21.5A21.525,21.525,0,0,0,4327.25,5356Zm13.6,6.854-13.6,13.6-13.6-13.6a19.9,19.9,0,0,1,27.2,0Zm-33.616,14.646a19.92,19.92,0,0,1,5.37-13.6l13.6,13.6-13.6,13.6A19.92,19.92,0,0,1,4307.233,5377.5Zm6.418,14.646,13.6-13.6,13.6,13.6a19.9,19.9,0,0,1-27.2,0Zm28.246-1.048-13.6-13.6,13.6-13.6a19.9,19.9,0,0,1,0,27.2Z" transform="translate(-4305.75 -5356)" fill="#fff"/>
</svg>
