<svg xmlns="http://www.w3.org/2000/svg" width="40.776" height="40.776" viewBox="0 0 40.776 40.776">
  <g id="Group_116" data-name="Group 116" transform="translate(-1706.984 -6073)">
    <path id="Path_16594" data-name="Path 16594" d="M1727.372,6073a20.388,20.388,0,1,0,20.388,20.388A20.411,20.411,0,0,0,1727.372,6073Zm11.807,12.968a.574.574,0,0,1-.117.379,9.444,9.444,0,0,1-1.892,1.977c-.108.081-.29.166-.29.32,0,3.926-1,7.848-3.865,10.692a14.386,14.386,0,0,1-13.968,3.266,13.312,13.312,0,0,1-2.7-1.08c-.286-.156-.567-.317-.842-.5-.07-.056-.122-.108-.062-.145s.1-.032.321,0a9.523,9.523,0,0,0,4.042-.517c.706-.247,2.223-.744,2.66-1.411.01-.015.021-.015.032-.031-.177-.041-.354-.041-.531-.072a5.216,5.216,0,0,1-3.9-3.263c-.051-.13,0-.2.135-.171a5.6,5.6,0,0,0,1.855-.058,2.938,2.938,0,0,1-.629-.192,5.025,5.025,0,0,1-3.1-4,2.921,2.921,0,0,1-.031-.561c.01-.13.067-.171.182-.1a4.99,4.99,0,0,0,1.89.53c-.212-.166-.41-.348-.6-.53a4.969,4.969,0,0,1-.847-5.87c.094-.141.156-.141.271-.01a15.227,15.227,0,0,0,9.8,4.987c.1.015.113,0,.1-.115a5.245,5.245,0,0,1,.051-2.047,4.977,4.977,0,0,1,.969-1.939,5.166,5.166,0,0,1,1.621-1.325,5.056,5.056,0,0,1,2.01-.567,4.8,4.8,0,0,1,2.118.341,5.025,5.025,0,0,1,1.381.846,2.247,2.247,0,0,1,.25.255.189.189,0,0,0,.2.052,12.273,12.273,0,0,0,2.851-1.091.137.137,0,0,1,.128-.011c.041.032.025.084.005.125a4.412,4.412,0,0,1-.8,1.456c-.228.283-.8.983-1.184,1.048a9.811,9.811,0,0,0,2.4-.685c.1-.044.089-.063.089,0Z" fill-rule="evenodd"/>
    <path id="Path_16595" data-name="Path 16595" d="M1722.473,6103.091c-.392,0-.031,0,0,0Z" fill-rule="evenodd"/>
    <path id="Path_16596" data-name="Path 16596" d="M1723.273,6103.112c.421,0,0-.04,0,0Z" fill-rule="evenodd"/>
  </g>
</svg>
