<svg xmlns="http://www.w3.org/2000/svg" width="1377" height="63" viewBox="0 0 1377 63">
  <g id="Group_2163" data-name="Group 2163" transform="translate(-293 -2376.5)">
    <path id="Path_49219" data-name="Path 49219" d="M1670,2416.641V2376.5H1558.922c.194.631,1.017,1.525-.226,1.913a8.233,8.233,0,0,1-2.422-1.913h-7.222a.912.912,0,0,1,.011.108,2.886,2.886,0,0,1-1.024-.108h-2.1a8.267,8.267,0,0,0,.284,1.19,3.68,3.68,0,0,1-1.886-1.19H1431.345a4.192,4.192,0,0,1,2.1,2.637c-1.074.717-2.677.174-3.967,0-1.228-.061-.257,1.28-.565,1.806-4.389-.543-5.114,2.887-8.5,1.809a1.536,1.536,0,0,0,.57-1.447c3.453,2.088.517-1.908,2.832-2.892a3.808,3.808,0,0,1-2.063-1.913h-22.5a9.153,9.153,0,0,1,3.6,5.166c-3.8.192-4.482-5.149-8.963-5.166h-.324a6.589,6.589,0,0,0-.916.108c.057-.04.112-.071.168-.108h-39.391c.039.036.075.064.119.108-.428.617-.786.225-.844-.108H1351a1.573,1.573,0,0,1-.862.831c-.94.13-1.25-.293-1.265-.831h-86.257c.007.729,1.33,1.09,2.512,1.552-.6,1.02-2.245.45-1.134,1.8-2.532-.187-3.579-1.328-6.234-1.444a24.232,24.232,0,0,0,3.927-1.913H1074.611c-.061,1.319-.346,2.826-2.742,1.913,2.6-1.252-.683-.805-1.705-1.082a11.826,11.826,0,0,0,1.758-.831h-2.816c.154.751-.852.764-.642,1.552-.837-.188-1.429-.533-2.267-.721a2.94,2.94,0,0,1,.92-.831H1054.21a5.492,5.492,0,0,1-.48,3c-5.9.1-1.806-2.147-6.233-1.086a1.714,1.714,0,0,1-.566-1.805c1.2.074,1.665.493,1.719-.108H986.289v.47h-1.134v-.47h-3.136a2.643,2.643,0,0,1-1.966.47,1.292,1.292,0,0,0,.083-.47h-3.458c.035.907-1.009,1.126-.592,2.279-1.687.152-1.2-1.608-.237-2.279H930.886c-.32.947-1.2,2.11-1.272,3h-1.7a11.974,11.974,0,0,1,.307-3h-1.633a1.584,1.584,0,0,1,.191.47,8.7,8.7,0,0,1-2.178-.47H912.228c.794.591,1.164,1.321.384,1.913a40.962,40.962,0,0,1-5.057-1.913h-.863c-.259.406-.421,1.076-2.015,1.19.2-.392.366-.808.582-1.19h-88.25c-.061.035-.109.077-.176.108a2.581,2.581,0,0,1-.443-.108h-43.2v1.552h-1.7c-.067-.631-.073-1.222.33-1.552H740.995a2.987,2.987,0,0,1-2.231,0h-7.731c-.163.125-.346.237-.345.47,1.494-.11,1.459.754,1.7,1.443-1.365-.146-1.234.663-2.835.366-.487-1.154.894-1.12,1.135-1.809h-1.135a.411.411,0,0,1,.075-.47H683.6c-.5,3.969-5.24,6.118-10.159,5.166,1.768-.979,1.343-3.272,2.108-5.166H626.12c.5.261,1.374.283.855,1.19-5.537,2.656-8.633,1.109-8.746-1.19H581.775a1.677,1.677,0,0,0-.14.47c-1.017.044-1.2-.441-2.267-.362.015-.04.046-.069.062-.108H565.8l-.015.05-.018.058-.061.194.079-.252.015-.05h-46.09c1.37,1.84,1.48,3.758-2.683,4.8-1.068-.639.776-1.12-1.132-1.448-.461.072-.565.365-1.135.365,1.049.693,1.038.284.568,1.444h-1.7c-.876-1.975-1.874-2.91-1.2-5.166h-.877c-1.568.642-1.784,2.146-3.589,2.637,2.039-1.645-2.388-1.191-.565-2.529-.1-.044-.188-.076-.279-.108h-1.886a1.343,1.343,0,0,1-1.113,0H463.388a5.31,5.31,0,0,1-3.035.831v2.526c-1.849-.648-3.077-1.7-3.344-3.357H422.32c.025.038.033.069.061.108a5.132,5.132,0,0,1-4.119-.108H370.626c.061.276.117.556.181.831-2.974.274-2.337,2.847-3.4,4.335-2.064.352-.265-1.757-2.835-1.082.792-1.061-.3-1.556,1.7-2.171-.514-.87-3.2-.15-3.4.366-.645-.072-.316-.366,0-.366-1.118-.69-1.61-1.337-1.692-1.913H306.153a5.637,5.637,0,0,1-.52,3h-1.7c.626-1.145.068-2.222.44-3H293v39.7a.39.39,0,0,1,.163.518H293v19.443c1.125-.257,1.476-1.009,3-1.012-.731,1.263-.2,3.248-.041,4.349h62.931c.006,0,.01-.01.016-.014l.01.014h9.466a5.492,5.492,0,0,1,2.994-1.1.751.751,0,0,0-.083,1.1h84.354c.221-.422.515-.969.174-1.461.744.13.891.638,1.7.723-.327.28-.775.482-1.138.738H467.2c-.546-.174-.972-.31-.041-.014l.043.014H588.432c.155-.388.983-.348,1.7-.376a1.239,1.239,0,0,1-.341.376H789.061v-.376H790.2v.376h64.611a.508.508,0,0,0-.57-.376c-.1-.307.219-.341.565-.362h1.135a.805.805,0,0,1-.086.738h15.592c.551-.815,1.882-1.133,3.2-1.461a8.023,8.023,0,0,1-.237,1.461h11.013a1.376,1.376,0,0,0-.006-.376,1.353,1.353,0,0,1,.91.376h30.015c.056-.093.177-.122.387,0h24.016c-.108-.252-.326-.434-.922-.376a1.416,1.416,0,0,1,1.837.376H954.3c.056-.093.176-.122.386,0h205.87a12.67,12.67,0,0,1,5.952-3.628c-.639-.676-.669-1.741-2.834-1.444.152-.744,2.513-.086,2.269-1.086.372,1.219.621.755,3.4.362.862,1.017-.187,1.481.57,2.891h2.832c-.634.444-.5.741.567.724-.816,1.087-2.577,1.571-4.143,2.181h85.266a2.814,2.814,0,0,0-.078-1.461c3.513,1.007,6.711-2.639,7.366,0a3.728,3.728,0,0,1,1.327,1.461h16.261l-.021-.014c-.247-.16-.059-.039.023.014h49.306c-.082-.053-.268-.174-.019-.014l.021.014h19.993a13.327,13.327,0,0,0-2.446-1.1c-.168-1.315,3.019-.482,3.967-1.082.869.59-.062,1.493-.78,2.181h3.081c-1.493-1.229-1.352-3.5-4.568-3.628.947-1.434,3.035-2,1.7-3.973,5.053-.788,7.782,5.008,5.426,7.6h104.745c.064-3.049-2.7-5.351-7.025-6.158,5.915.161,6.613-1.246,10.767-2.529,1.025,2.014-1.316,4.267-3.966,5.059.048,1.174,3.38.255,2.834,1.808-1.713-.188-1.38.856-1.445,1.82h33.2l-.021-.014c-.249-.16-.06-.039.022.014h56.053c.011,0,.02-.01.031-.014s.037.011.058.014h25.862a3.487,3.487,0,0,1,2.418-.738c.014.352.7.28,1.135.362.015.135-.005.248,0,.376H1590.3c.232-.6.468-1.2.7-1.82.969-.078,1.469.615,1.7,0a2.416,2.416,0,0,1,1.087,1.82h2.8c.026-.126.05-.252.079-.376.088.122.15.252.23.376h22.332c0-.629,1.5-.3,2.37-.376v.376h23.111c-1.666-1.013-3.2-3.224-1.573-4.714-.482-1.058-1.822.218-2.832,0,1.157-3.287,4.8-1.918,7.934-2.887.005,1.471-.551,2.836,2.835,3.973-.2.474-1,.57-1.136,1.085,1.2.437,1.646,1.362,3.4,1.444a20.476,20.476,0,0,0-1.967,1.1H1670v-16.144c-.731-1.579-2.508-3.134-3.624-4.83-1.079.157-1.422.781-2.835.723-.806-1.048-3.632-.816-3.966-2.167.714-1.041,3.516,1.71,3.966-.362,1.777-.167,1.6.908,2.27,1.444.768-.11.468-.905.565-1.444-.755-.6-2.522-.563-3.4-1.086v-1.8c.913-.1.974.341,1.7.362-.442-1.424-.442-1.106,0-2.53,4.127-.576,5.5,2.776,3.4,3.973A2,2,0,0,0,1670,2416.641Zm-247.888-38.228c.235.154-.372-.235,0,0ZM354.37,2377.69h1.135v.723H354.37Zm-.567,2.532c-.688.523-2.262.485-2.264,1.444C348.734,2381.192,352.218,2378.97,353.8,2380.222Zm-1.7,10.479c.236.15-.372-.235,0,0Zm-4.534-8.669H348.7v.72h-1.132Zm-1.135,18.789h1.135v.724h-1.135Zm-1.7-18.069c-.115,1.082-2.356-.345,0,0Zm-4.535,15.9c3.82-.315-.315,2.32,0,0Zm0,24.213c-1.9.372-.88-1.127-1.134-1.806C341.03,2420.8,341.1,2422.324,340.2,2422.864Zm-1.134-36.5Zm-1.7,20.6H338.5v.723h-1.129Zm-2.27-19.152c.238.154-.372-.239,0,0Zm-.568-5.778c-.371-.24.241.146,0,0ZM330,2429.369c-1.9.871,1.371-1.215,0,0Zm-31.735-36.139H299.4v.724h-1.132ZM296,2431.9c-1.464-.615,1.244-1.587,2.267-1.806A9.1,9.1,0,0,1,296,2431.9Zm2.832-11.564c-1.409-.058-.164-1.226,0-1.448-1.4.6-2.385,2.823-5.1,1.448,1.536-1.55,2.432-3.509,5.666-3.977C299.175,2418.324,300.526,2419.174,298.83,2420.335Zm2.269-8.674H298.83c1.635-1.024,1.822-1.539.567-2.89a4.611,4.611,0,0,1,2.269-.362C302.108,2409.9,300.794,2410.262,301.1,2411.661Zm.567-5.058c-.371-.239.236.15,0,0Zm1.7-2.529c-2.9,1.843,1.271-2.522,0-.365C303.324,2403.78,303.444,2404.019,303.364,2404.074Zm.567-5.423H302.8v-.724h1.132Zm-1.132-5.421c.246-.444.725-.74,1.7-.72C304.763,2393.278,303.687,2393.2,302.8,2393.23Zm2.267-3.253c-1.138.123-1.775-.071-1.7-.72h1.7Zm-1.135-2.529a4.075,4.075,0,0,1-3.4,0,2.376,2.376,0,0,1,2.267-1.085c-.279-1.024-2.963-.519-2.267-2.168,3.308.639,1.841-1.14,5.666-.358C305.087,2384.813,303.018,2385.182,303.931,2387.448Zm10.2,49.509c-.369-.239.241.154,0,0Zm13.6.362Zm.565,1.443c1.038-.679,3.23-2.494,2.267-3.252.072-.8,2.406-.15,3.4-.359-.091.417.126.642.567.721A4.685,4.685,0,0,1,328.3,2438.762Zm6.244-5.451-.08.257c.013-.045.035-.11.069-.226a.116.116,0,0,0,.011-.031c.086-.276.15-.475.2-.62C334.681,2432.882,334.605,2433.125,334.545,2433.311Zm2.259-13.338c-.666.058-.479.658-.567,1.085h-1.7c.022-1.191,1.615-1.382,3.4-1.447C337.736,2420.027,336.938,2420.529,336.8,2419.973Zm1.132,18.066c-.623-1.608,1.668-2.444,2.835-1.806C340.3,2437.141,340.027,2438.172,337.936,2438.039Zm2.835-33.606q-.158-1.184,1.7-1.083C342.575,2404.135,342.007,2404.5,340.771,2404.433Zm3.4,33.968c.238.153-.372-.236,0,0Zm1.7-5.421c-1.411,1.41-.825-1.194,0,0Zm.567-6.14c-.115,1.079-2.353-.348,0,0Zm.567-2.894c-1.771-.434-2.465-1.56-4.534-1.806.787-1.1-1.164-4.424,1.132-5.42A5.317,5.317,0,0,1,347,2423.946Zm0-13.37c-.371-.235.239.15,0,0Zm.568-6.143c-1.309.112-.632-1.045-1.7-1.083C346.5,2402.3,347.711,2403.811,347.572,2404.433Zm1.7,24.213a1.588,1.588,0,0,1-1.134-1.806C349.376,2426.891,349.354,2427.748,349.271,2428.646Zm.565-23.128c1.6-.3,1.47.508,2.837.362-1.332.5-1.068,2.679.565,3.252-1.5.932-.781,2.724-2.267,4.335C345.725,2412.163,347.644,2407.194,349.836,2405.518Zm1.135,29.633c-.372-.238.238.151,0,0Zm2.267-4.7c.247-.444.726-.74,1.7-.723C354.692,2430.175,354.212,2430.472,353.238,2430.451Zm3.4-48.061q-2.163-.067-2.27-1.447h2.27Zm6.8-1.806c-.369-.238.238.15,0,0Zm1.7,4.7Zm.566,1.809c-.37-.239.238.15,0,0Zm43.638-1.809c3.822-.314-.313,2.324,0,0Zm-15.3,16.264c-.112,1.078-2.353-.348,0,0Zm-2.265,9.031c1.962-.252,2.032,1.27,1.132,1.806C390.444,2412.317,391.879,2411.757,391.777,2410.576Zm-3.966-1.085c.937.157-.051-1.345-.567-1.444.744-.345,1.86-.161,3.4,0v2.168c-2.476-.974-2.848.58-5.666.361C384.773,2409.02,386.384,2409.183,387.811,2409.491Zm-14.172-29.634c-.113,1.086-2.353-.341,0,0Zm.567,16.264c-.669,1.1-3-.392,0,0Zm-2.264-3.973c-.372-.239.235.15,0,0Zm.567,18.067c-.115,1.085-2.355-.345,0,0Zm-2.27-16.985c-.115,1.086-2.352-.345,0,0Zm0,2.168c-3.316-.478,2.053-1.707,0,0Zm-2.267.723c2.54.912.458,4.769,1.136,6.864C365.93,2402.791,366.067,2397.217,367.972,2396.121Zm.568,7.229c-.115,1.079-2.355-.348,0,0Zm-1.132,9.755h1.132a1.386,1.386,0,0,0-.568,1.086C366.8,2413.989,366.773,2413.628,367.408,2413.1Zm.564,3.253c.423-2.632,2.88-3.509,6.234-2.529C372.651,2417.092,371.886,2414.959,367.972,2416.358Zm6.234,12.288c-.369-.239.241.153,0,0Zm.568,10.116c.238.154-.372-.238,0,0Zm-2.265-39.388c.134-.638.974-.826,2.265-.723C375.346,2399.736,373.513,2399.292,372.509,2399.374Zm5.1,26.377c.238.154-.369-.235,0,0ZM382.142,2386a4.622,4.622,0,0,1-2.267.359C379.292,2384.888,382.522,2384.438,382.142,2386Zm-.567,27.1h-1.7c-.112-1.034-.07-1.969,1.7-1.8C382.637,2411.989,381.636,2412.208,381.575,2413.1Zm1.7,2.529c-.995-.085-1.293-.621-1.132-1.443C383.729,2414.133,383.992,2415.211,383.274,2415.634Zm2.267-3.973c-.112,1.083-2.353-.344,0,0Zm2.835,24.572c-2.077-1.938,3.246-2.256,3.4-3.976.83.317,1.8.543,1.7,1.447C389.765,2433.264,389.109,2434.772,388.376,2436.233Zm5.666,1.806c-1.237-.051-1.215-.912-1.133-1.806C395.188,2436.182,394.411,2437.158,394.042,2438.039Zm0-5.417c.147-.85,2.492-.212,2.837,0C396.732,2433.465,394.387,2432.83,394.042,2432.622Zm6.236-51.679c1.587-.352-.824-.963.568-1.444,1.769-.167,1.812.771,1.7,1.806-1.734.01-4.392,1.508-2.267,1.805-1.44.659-3.343-1.468-3.4-2.888C398.838,2379.936,399.269,2380.622,400.278,2380.943Zm-1.7,51.314c.642.437,1.619.659,1.135,1.809-3.065-.881-1.143-1.294-2.267-3.973.915-.621,2.371-.9,4.534-.724-.495,1.28-.07.888-.568,2.164C400.005,2431.482,398.662,2431.468,398.576,2432.257Zm3.4,0c.663.058.476.662.567,1.085C400.658,2433.591,401.633,2432.595,401.978,2432.257Zm-1.7-19.513c-1.266-.912,1.237-1.615,1.132-2.892,1.411-.054,1.756.567,2.835.724C403.878,2411.907,402.3,2412.471,400.278,2412.744Zm6.8-21.681c-.915.1-.977-.342-1.7-.362.11-.293.57-.358.568-.724h1.134Zm-.567-3.253c-1.956,1.079-1.662,1.785-2.835,2.891-.743-.369-2.09-.355-2.831-.724.1-1.822,2.577-2.344.564-3.614.916-.1.975.345,1.7.361-.073-1.761-2.067-2.293-1.7-4.334,1.483.1,2.439-.133,2.267-1.085,1,.088,1.293.624,1.135,1.447,1.384-.758,1.207-.516,3.4-.362-1.848,2.983,2.748,4.307,1.132,6.867C408.3,2388.834,408.953,2387.339,406.512,2387.81Zm1.7,50.229v-1.082c.744.126.89.635,1.7.723C409.82,2438.1,408.88,2437.984,408.212,2438.039Zm3.4-3.611c-.919.1-.978-.345-1.7-.362.11-.294.57-.362.567-.724h1.136Zm-1.7-19.875c-.1-.792.466-1.151,1.7-1.086Q411.765,2414.651,409.911,2414.553Zm4.534,1.8c-1.1.144-.827-1.645.568-1.085C415.173,2415.86,414.477,2415.894,414.445,2416.358Zm4.534,19.152h-1.132v-.724h1.132Zm30.036-41.556c-.369-.239.241.15,0,0Zm0,33.606c-.112,1.082-2.352-.344,0,0Zm-1.132-15.537Zm0,10.479c-.115,1.082-2.352-.345,0,0Zm-1.132-37.221h1.132V2386h-1.132Zm-1.7-.724h1.134v.724h-1.134Zm-17-7.949h1.7c.241.758-.388.956-.568,1.444C428.186,2377.966,427.889,2377.431,428.047,2376.608Zm-4.534,5.782c-1.9.874,1.371-1.212,0,0Zm.568,54.205c-.372-.236.238.15,0,0Zm4.534-21.684c-.653-.427-.643-1.276-.568-2.167,1.941-.151,1.705,1.085,2.835,1.447C430.745,2414.826,429.908,2415.013,428.615,2414.911Zm2.834,1.809c-1.654.529-1.654-1.618,0-1.086Zm1.135-22.766h-1.135v-.724h1.135Zm-1.7-12.649c.136-.636.974-.823,2.267-.721A1.419,1.419,0,0,1,430.882,2381.3Zm5.669,2.532c-.672,1.1-3.009-.392,0,0Zm8.5,52.035c-.113,1.081-2.353-.345,0,0Zm0-23.49c-1.9.877,1.37-1.212,0,0Zm3.966,18.069c-2.112.144-3.324-.286-3.4-1.447C447.517,2429,449.395,2429,449.015,2430.451Zm.568-11.564c-.113,1.082-2.353-.344,0,0Zm2.837-8.672h-1.135v-.724h1.135Zm1.7,28.909c-.37-.235.241.15,0,0Zm.567-31.439c.238.154-.372-.239,0,0Zm60.075-23.848c-.372-.239.238.15,0,0Zm-3.4,11.926c1.244-1.106,3.627.413,0,0Zm-7.936-18.073c-1.2-.881.6.543,1.7.362.145,1.054-1.065,1.245-1.7,1.8C501.6,2379.281,505.418,2378.509,503.424,2377.69Zm-.565,2.894c-.428,1.171-.942,2.287-3.4,2.168C500.284,2381.83,500.536,2380.547,502.859,2380.584Zm-.568,9.032c-2.895,1.85,1.272-2.523,0-.359C502.249,2389.326,502.372,2389.568,502.291,2389.616Zm-2.834,7.952c-.372-.239.238.151,0,0Zm-23.235,2.53c.661.058.477.658.565,1.082C474.9,2401.429,475.874,2400.432,476.222,2400.1Zm-2.27-12.288c-.369-.239.242.154,0,0Zm1.135,10.841c-2.127-.328-2.9-1.526-2.832-3.253C474.835,2395.79,475.8,2397.067,475.087,2398.651Zm-5.1,0c1.413.146.035,1.4-1.135,1.085C468.541,2398.934,469.938,2399.22,469.986,2398.651Zm-2.264,2.529h1.129v.723h-1.129Zm0,28.548c.235.153-.373-.236,0,0Zm-9.071-40.471c-1.719,1.335-1.908-1.1,0,0ZM457.519,2429c.032-1.181,1.611-1.379,1.132-2.887,1.849-.1,2.727.43,2.834,1.443C459.494,2427.615,460.126,2429.342,457.519,2429Zm6.8,8.315h-1.7v-1.086C464.092,2436.018,464.659,2436.377,464.32,2437.319Zm-1.7-9.035c.083-.9,1.916-.106,2.264,0C464.5,2429.414,463.161,2428.891,462.62,2428.284Zm2.832,9.4c-.372-.238.238.151,0,0Zm.568-10.12c-2.394.079-3.47-.675-3.967-1.809,1.731.266,2.066-.368,3.4-.358C465.042,2426.5,466.429,2426.458,466.02,2427.56Zm1.134-20.6c-.669,1.1-3.008-.389,0,0Zm1.132,27.824c-1.619-.048-1.035-1.5-1.132-2.529,1.834-.184,3.854-1.932,5.1-.358.887-.035-1.086-2.158,1.7-1.806C474.611,2433.281,470.821,2433.632,468.286,2434.786Zm6.234-.72c-.016-1.068,2.625-1.222,3.4-.724C477.347,2433.939,475.513,2433.735,474.52,2434.066Zm5.669,1.806c-1.24.064-1.8-.294-1.7-1.086C479.016,2435.172,480.577,2434.9,480.189,2435.872Zm.564.723c-.369-.236.239.15,0,0Zm1.7-3.973c-.372-.239.238.15,0,0Zm0-39.753c.995.088,1.292.621,1.132,1.447C481.822,2394.483,481.562,2393.408,482.456,2392.869Zm2.264,13.011c-.369-.239.241.153,0,0Zm1.135-1.447c.238.153-.372-.236,0,0Zm-1.7-5.421a1.723,1.723,0,0,1-.567-1.8c2.034.3,2.743-.813,3.969,0C487.2,2398.306,486.3,2399.053,484.155,2399.012Zm4.532-11.922c-.113,1.078-2.353-.348,0,0Zm.567,32.159c-.95,1.28-1.769-1.177,0,0Zm-1.132-35.774c-2.652-.088-.118-1.932.565-2.17C490.617,2381.987,487.718,2382.574,488.122,2383.475Zm9.068,14.813c-.112,1.083-2.352-.344,0,0Zm0-2.89c-.112,1.085-2.352-.345,0,0Zm1.7,37.944c1.662.307-.736.912,0,1.809C496.369,2435.2,498.552,2433.684,498.89,2433.342Zm.567,2.168c.238.153-.372-.236,0,0Zm.568-5.059c.238.154-.372-.235,0,0Zm3.966-7.949c2.848,7.093-12.775-1.15,0,0Zm.565,13.37c-.37-.236.241.153,0,0Zm1.135-1.444c-1.483.1-2.439-.133-2.267-1.086C504.486,2432.632,506.154,2433.134,505.691,2434.428Zm-.568-19.875c.142-.4,1.127-.246,1.135-.724.552.01.439.444.568.724C506.079,2414.986,505.935,2414.693,505.123,2414.553Zm5.1,2.167c-1.5,0-3.236.136-3.967-.362.94-.979,1.989-2.1,1.7-2.891C509.992,2413.737,510.431,2415.023,510.225,2416.72Zm0-35.415c1.41-.055,1.756.57,2.834.727C512.8,2382.738,509.082,2382.68,510.225,2381.3Zm1.7,49.87c-1.41,1.409-.829-1.2,0,0Zm1.132-27.1c-.83-.317-2.194-.29-1.7-1.447h2.264C513.868,2403.381,513.236,2403.583,513.059,2404.074Zm1.132,27.1c-.369-.239.241.154,0,0Zm-.567-31.8c.1-1.509-1.683-1.816-2.264-2.891.963-.133,1.068.28,1.132.724,2.016.559.343-1.229,1.7-1.086C516.37,2396.514,516.194,2399.323,513.624,2399.374Zm2.27,3.253c.236.153-.372-.239,0,0Zm1.7-16.984c-.372-.239.239.15,0,0Zm2.267,36.859c-.115,1.082-2.355-.345,0,0Zm0-41.2c.239.153-.372-.236,0,0Zm.565,26.742c-.369-.235.238.15,0,0ZM615.64,2381.3c.236.153-.372-.236,0,0Zm-3.4-3.974h1.131v.721h-1.131Zm0,53.482h-1.7v-1.085Q612.393,2429.631,612.239,2430.813Zm-3.4-44.089c1.475-.214,2.043.151,1.7,1.086h-1.7Zm-1.129,4.339h1.129v.723h-1.129Zm-5.669,18.789c1.718-1.334,1.909,1.1,0,0ZM599.771,2386v1.086h-1.7C597.967,2386.3,598.535,2385.936,599.771,2386Zm-2.834-5.782c-.113,1.083-2.353-.348,0,0ZM595.8,2405.88c-1.242-.055-1.218-.912-1.134-1.806h2.267C596.7,2404.76,595.317,2404.726,595.8,2405.88Zm0-3.253v.723c-1.137.123-1.774-.075-1.7-.723ZM592.97,2381.3c-.827,1.2-1.411-1.407,0,0Zm0,14.816c-.115,1.082-2.353-.345,0,0Zm-3.4-19.513c1.475-.215,2.04.143,1.7,1.082h-1.7Zm-6.234,1.082c.83.317,1.8.546,1.7,1.447C583.543,2379.246,583.174,2378.635,583.334,2377.69Zm.568,32.162c.238.154-.372-.235,0,0Zm-2.267,6.868h1.135v.72h-1.135Zm-.217,15.1c.541.2,1.068.4.217.082-.086-.035-.147-.055-.217-.082-.31-.113-.624-.229-.688-.253Zm-1.483-54.486c-.372-.238.238.151,0,0Zm.565,29.992c-1.41,1.41-.825-1.2,0,0Zm-1.132,22.77c-.072.648.693.761.567,1.44C579.63,2431.171,577,2429.939,579.368,2430.093Zm-3.4-15.54c1.964.211,1.4,1.781,1.132,2.529C575.348,2417.327,574.74,2415.01,575.969,2414.553Zm-.568,15.175c.236.153-.372-.236,0,0Zm-6.236-48.423v1.447a3.694,3.694,0,0,0-1.7-.362C567.363,2381.6,567.929,2381.236,569.165,2381.3Zm-4.534,4.7c-.372-.239.24.147,0,0Zm-5.666,15.541c-2.6-.243.455-2.192,0,0Zm-1.7,5.417c-.091.426-1.033.307-1.7.361v-1.085C556.821,2406.04,556.371,2406.931,557.265,2406.962Zm.568,11.925v.724H556.7v-.724Zm-3.4-19.151c-1.724.986,1.547-1.1,0,0Zm-9.636-16.261c-1.721.987,1.547-1.1,0,0Zm-.568,43c-.369-.236.242.153,0,0Zm0-46.976v1.806C542.295,2381.438,541.837,2379.216,544.227,2379.5Zm-.564,24.575c-.115,1.079-2.356-.348,0,0Zm-1.7-7.229c-1.892-.137-.637-1.922,1.132-1.806C543.58,2396.19,542.2,2396.155,541.963,2396.845Zm-.567-15.54c.479-2.137-.324,1.45,0,0Zm-.568,1.085c-.048.512-.093,1.024.568,1.085-.26.71-2.449-.324-2.835-.723C538.738,2382.26,539.98,2382.451,540.828,2382.39Zm-.567,28.548h-1.7v-1.086Q540.774,2409.531,540.261,2410.938Zm-.565-9.035c-.115,1.082-2.355-.345,0,0Zm-3.4,7.949c1.008.267.082.659,0,1.086C535.285,2410.672,536.214,2410.283,536.295,2409.852Zm-2.835-3.249c-.889.273-.846,1.144-2.264,1.082C531.024,2406.733,531.98,2406.5,533.46,2406.6Zm-1.7,2.888h-2.27C529.049,2408.1,532.208,2408.1,531.763,2409.491Zm0,6.143c-1.062.69-.064.908,0,1.806a4.579,4.579,0,0,1-2.27.365C529.126,2416.365,529.8,2415.594,531.763,2415.634Zm-2.837-8.311c-.37-.235.241.154,0,0Zm-5.667-24.571c-.368-.236.239.15,0,0Zm1.133,4.7v.72h-1.133v-.72Zm-2.264,22.043c.767.112.47.908.567,1.447-.916.1-.977-.341-1.7-.362C520.682,2409.774,522.074,2410.064,522.128,2409.491Zm10.2,16.26c.238.154-.37-.235,0,0Zm1.132,8.315c-.367-.236.241.15,0,0Zm0-9.035c-.766-1.1-1.571-.116-3.967-.362,1.379.407-1.33,3.13,2.835,3.253v2.891a3.721,3.721,0,0,0-1.7-.362v-1.8c-.615.088-.385.717-1.135.723-.42,1.11,1.555.693,1.135,1.806-1.068-.638-2.625.45-3.4,1.082-.645-.068-.316-.362,0-.358-2.206-1.7.972-3.352-1.135-4.339.3.953-3.287,1.233-3.4.724-.174-1.478.784.058,2.264-.362.426-1.113-1.954-.44-1.132-1.805-1.017-.048-1.2.443-2.267.358-.054-1.478.077-2.84,2.267-2.888a3.7,3.7,0,0,0-2.834-2.171c5.845-1.235,3.054,3.939,5.1,6.144-.257-1,3.089.284,2.832-.72-2.042-.082-2.165-3.942-2.832-5.062.551.011.442.444.567.724,1.419-.048,1.775-.69,2.265.362.773-.113.474-.908.567-1.448,2.653.567,1.885-.3,4.534-.358A10.823,10.823,0,0,1,533.46,2425.031Zm0-6.505c-.367-.236.241.15,0,0Zm0-2.53c-2.013.564-.34-1.225-1.7-1.085.174-.492,1.419-.3,2.264-.358C534.268,2415.307,533.639,2415.508,533.46,2416Zm1.7-1.805c-2.9,1.846,1.269-2.522,0-.362C535.122,2413.9,535.24,2414.14,535.162,2414.191Zm.567,22.766c.415-.645,1.031-.051,1.7,0C537.014,2437.6,536.4,2437.008,535.729,2436.957Zm3.967-27.825h-2.267C538.414,2407.886,538.575,2407.129,539.7,2409.132Zm-.567,24.572c.977-1.273.929,1.041,2.834.362a1.543,1.543,0,0,1-1.135,1.444,5.165,5.165,0,0,1,3.967,3.252C532.491,2441.026,541.026,2434.595,539.129,2433.7Zm5.666-48.423c-.072-.649.7-.761.568-1.444C547.009,2383.9,546.73,2385.554,544.795,2385.281Zm1.7,13.731c.236.15-.372-.235,0,0Zm.568-15.537c.235.15-.372-.235,0,0Zm1.7,22.043c-.37-.236.24.15,0,0Zm.567,10.116Zm.567-35.05c-1.161-.42,1.475-1.44,2.835-1.447C552.559,2380.113,550.346,2379.786,549.9,2380.584Zm1.135,6.14c-.326,1.451.477-2.133,0,0Zm0,4.339c2.131-1.553-1.45,1.058,0,0Zm0,8.673h1.135v.72h-1.135Zm.568,34.692c-.372-.239.235.15,0,0Zm1.132-29.272H551.6v-.723h1.132Zm-1.7-12.287v-1.083c1.135.12,1.772-.075,1.7-.723-.8-.434-.048-.144.567,0C552.977,2391.943,552.814,2392.923,551.031,2392.869Zm2.832,12.287a2.375,2.375,0,0,1,2.27-1.082A2.375,2.375,0,0,1,553.863,2405.156Zm2.27,33.606c-.667-.058-.482-.658-.568-1.082.916-.1.975.342,1.7.359C557.126,2438.435,556.138,2438.285,556.133,2438.762Zm1.7-12.287c-.172-.949.784-1.185,2.266-1.082C559.6,2425.922,559.647,2426.792,557.833,2426.475Zm1.132-4.335c-.413-.986,1.127-.727,1.134-1.447.769.116.469.908.565,1.447Zm-1.132-13.369c-.4-1.253,1.986-1.3,2.831-.724A3.581,3.581,0,0,1,557.833,2408.771Zm2.831-6.868c.238.154-.372-.235,0,0Zm1.7-1.082c-.372-.239.236.15,0,0Zm1.7,35.412c.238.154-.372-.235,0,0Zm2.267-5.782c.236.154-.372-.235,0,0Zm-3.967-22.042c.458-1.758,3.14-2.1,5.1-2.891C568.191,2406.593,566.186,2409.027,562.366,2408.409Zm5.667-3.976c-.827,1.2-1.411-1.41,0,0Zm1.132-15.176c-1.646,1.359-2.875-1.355-3.967.359.193-1.413.927-1.557,3.967-2.168C569.9,2388.346,567.5,2388.95,569.165,2389.257Zm2.269,1.444c-.042.072.078.311,0,.362C568.536,2392.909,572.7,2388.541,571.434,2390.7Zm0,29.992c.236.153-.372-.236,0,0Zm1.133,16.626c-.744-.13-.891-.635-1.7-.724C571.1,2435.7,573.065,2436.574,572.567,2437.319Zm2.267-5.062h1.7c-1-1.417,2.048-.324.568,1.085C576.019,2433.192,574.66,2433.212,574.834,2432.257Zm2.267,5.423c1.627-2.293-.76-3.559,2.834-5.058,1.9-.119-.294,2,2.835,1.806C581.453,2435.875,581.335,2438.09,577.1,2437.68Zm5.669-5.058c.578-.809,3.792-.286,3.4.72C584.686,2434.291,584.432,2432.615,582.77,2432.622Zm3.966,1.444Zm1.133-1.444c-.115,1.079-2.353-.348,0,0Zm.567-29.272c-1.9.874,1.37-1.215,0,0Zm1.132,2.888c-.27-1.133.808-1.41,1.135-2.164,2.441-.236,1.78,1.515,3.967,1.444C593.8,2406.832,591.209,2407.242,589.568,2406.238Zm4.534,23.49v1.085h-1.7C593.008,2430.475,592.576,2429.479,594.1,2429.728Zm-2.831,9.4c.235.15-.373-.235,0,0Zm-.568-22.042c.7.157,1.164.46,1.135,1.082C590.628,2418.334,590.756,2417.648,590.7,2417.082Zm2.831,20.6c-3.115-.982-.786-3,2.27-2.894C595.673,2436.353,591.99,2436.052,593.534,2437.68Zm.568-29.633c.064-.683,1.876-.249,1.7-1.085C596.875,2406.992,595.665,2408.508,594.1,2408.047Zm6.8,8.311c1.063.737,1.644,1.229-1.7,1.447.367.369,1.3.372,1.133,1.082-1.416.724-4.457.167-3.967-1.447,6.041.055,2.626-3.693,6.236-5.058,1.408-.055,1.754.566,2.832.723C604.693,2414.682,604.848,2416.826,600.9,2416.358Zm5.1-4.335c-1.9.871,1.369-1.215,0,0Zm.568,6.141c.177-.492,1.419-.3,2.264-.359C608.678,2418.642,607.324,2418.635,606.572,2418.164Zm2.264,15.54Zm0,4.335c2.193-.816,2.238.672,3.97,1.085C611.872,2439.93,609.136,2438.838,608.836,2438.039Zm4.534.362c-.912.1-.974-.342-1.7-.362C611.446,2437.339,614.254,2437.51,613.37,2438.4Zm2.835-26.378c-.112,1.082-2.353-.348,0,0Zm-1.7-27.466c-1.8-.566.709-2.167,1.7-1.082C616.141,2384.158,614.331,2383.724,614.505,2384.557Zm3.4,30c1.547,1.1-1.726-.987,0,0Zm.565,14.816c-.115,1.079-2.353-.348,0,0Zm228.4-20.237c-.048.512-.094,1.021.567,1.083-1.2,1.307-.985-1.257-2.834-.724C844.778,2409,846.02,2409.194,846.869,2409.132Zm-1.7,11.2c.1.781-2.01.163-2.832.358C842.394,2419.775,844.449,2419.84,845.169,2420.335Zm-3.966-22.408c-.116,1.085-2.356-.341,0,0Zm-1.136-2.888c-.371-.235.239.15,0,0Zm1.7,14.093q-2.164-.066-2.27-1.447Q842.163,2407.435,841.77,2409.132Zm-4.534,13.37c-.372-.239.235.15,0,0Zm.568,1.444c-.116,1.085-2.356-.342,0,0Zm-5.1-29.992h1.132v.72H832.7Zm.564,11.2c.266.771-.808.686-1.7.724C831.813,2405.432,832.292,2405.135,833.266,2405.156Zm0,14.093c-.952,1.28-1.768-1.177,0,0Zm-1.132,3.615c.265.768-.808.686-1.7.723C830.681,2423.14,831.158,2422.843,832.134,2422.864Zm-1.7-4.338v-.721h1.132v.721Zm1.132-6.144c-1.411,1.409-.827-1.2,0,0Zm-1.132-9.4c.235.154-.372-.232,0,0Zm-11.9-3.611c-.115,1.082-2.355-.345,0,0Zm-3.966-22.4c3.819-.314-.316,2.324,0,0Zm1.7,23.851c-.372-.239.236.15,0,0ZM814,2402.627h1.132v.723H814Zm1.7,1.447c.265.768-.808.686-1.7.72C814.247,2404.35,814.723,2404.054,815.7,2404.074Zm-9.633-24.217c-.348,1.3-3.627.485-3.4-.72C804.322,2378.075,804.962,2379.509,806.065,2379.857Zm0,35.416c.236.153-.372-.232,0,0Zm-8.5-31.078c-.276,1.141,1.737.82,1.133,2.168-1.794-.058-1.9.962-3.967.727a1.587,1.587,0,0,0-1.135-1.809A15.141,15.141,0,0,1,797.564,2384.2Zm-5.1,1.809v1.086C790.809,2387.619,790.809,2385.472,792.463,2386Zm-5.666-5.42c.934,1.208,2.746,1.86,3.4,3.253-1.655-.512-2.787-1.358-5.1-1.447C784.495,2381.045,786.288,2381.222,786.8,2380.584Zm2.831,12.646c-.115,1.086-2.355-.345,0,0Zm-5.669-8.314c.241.157-.369-.232,0,0Zm-11.9-2.884c-.373-.24.238.146,0,0Zm-1.132-2.533c-1.414,1.41-.828-1.2,0,0Zm-14.17,24.21c.236.153-.372-.236,0,0Zm-10.768-15.541q2.208-.323,1.7,1.089h-1.7Zm-2.834,6.506c1.547,1.1-1.724-.987,0,0Zm-4.534-15.9c1.2-.321,1.675-1.1,3.4-1.089.145,1.659.6,1.747,0,3.253h-2.269C740.361,2379.591,738.349,2379.912,738.622,2378.779Zm.567,6.137c.348-1.2,1.662-1.229.565-2.526.541-.888.7,1.437,2.269,1.085A2.825,2.825,0,0,1,739.189,2384.916Zm2.267,24.216c-.249.444-.725.741-1.7.72C739.492,2409.081,740.565,2409.166,741.456,2409.132Zm-3.4-31.08Zm.568,2.891c-.67,1.1-3.006-.393,0,0Zm-1.132,12.649c.235.153-.373-.236,0,0Zm-1.136-2.171c1.548,1.1-1.723-.986,0,0ZM733.52,2379.5c-.115,1.082-2.353-.345,0,0Zm-1.7,11.564c-.373-.239.237.15,0,0Zm-2.835,4.335Zm-.567-17.708c-.115,1.082-2.353-.342,0,0Zm-1.13,2.894c.27,1.137-.808,1.413-1.135,2.168-1.734.017.078-1.864-1.7-2.53A5.422,5.422,0,0,1,727.289,2380.584Zm-.567,14.455c.235.15-.372-.235,0,0Zm-1.135-7.229c-.085.9-1.919.106-2.267,0C723.405,2386.912,725.239,2387.7,725.587,2387.81Zm-1.135,2.891c-.115,1.082-2.353-.345,0,0Zm-.568-13.731c-.112,1.082-2.352-.349,0,0ZM721.62,2390.7c.236.15-.372-.235,0,0Zm3.4,1.447c.251,1.362-1.117,1.7-1.7,2.526a3.631,3.631,0,0,1-2.835-2.526C722.7,2392.5,723.778,2391.346,725.02,2392.148Zm-2.265,6.864c-1.482,1.41-1.293-1.809.565-1.444C724.069,2398.469,721.08,2398.7,722.755,2399.012Zm-1.7,11.564c-1.489,1.492-4.553.137-5.1-1.085A8.344,8.344,0,0,0,721.053,2410.576Zm-2.835,4.335c-.115,1.085-2.353-.342,0,0Zm-1.7-2.888c-.158-.587.535-.624.567-1.085,1.178.2,1.2.563.568,1.085Zm1.7.359c-1.723.986,1.548-1.1,0,0Zm-2.266-13.731c.238.153-.373-.236,0,0Zm.567,4.7Zm1.135,1.806c-.373-.239.235.15,0,0Zm2.264-10.482c.1,3.72-5.821-.181,0,0Zm-1.7-1.805Zm1.135-3.974a2.033,2.033,0,0,1-1.7-2.171C720.461,2386.4,719.985,2387.916,719.353,2388.9Zm-1.7,2.168c-.07,1.024-2.42.693-2.268-.362C716.57,2390.547,716.886,2390.95,717.654,2391.063Zm-2.268-1.447c.236.153-.371-.236,0,0Zm-3.4-10.479c-1.411,1.41-.827-1.194,0,0Zm-22.1,14.093c-.825,2.365-1.6.557-3.967.362C686.159,2392.786,688.707,2393.445,689.882,2393.23Zm-5.669,0a5.416,5.416,0,0,1-2.832-.361C681.432,2391.793,684.762,2391.9,684.213,2393.23Zm-3.4,2.891Zm-3.4-.723c.235.153-.373-.236,0,0Zm-2.268,13.373c-1.723.986,1.547-1.1,0,0Zm0,15.9c-.663-.542-1.637-.884-1.7-1.8C675.217,2422.7,675.257,2423.635,675.147,2424.669Zm-1.7-40.474h1.134v.721h-1.134Zm1.134,15.179h-2.267C671.866,2397.985,675.027,2397.985,674.58,2399.374Zm-3.966-18.431v.723c-1.138.123-1.772-.075-1.7-.723Zm-5.669,5.781c-1.411,1.414-.825-1.2,0,0Zm0,10.483c1.547,1.1-1.724-.987,0,0Zm-.568,3.249c-.112,1.085-2.352-.341,0,0Zm-1.7-1.082c1.719-1.334,1.906,1.1,0,0Zm-2.834.362c1.962.071.811,2.133,3.966,1.444C662.2,2403.763,657.442,2400.954,659.846,2399.736Zm-1.7-19.152c-.37-.238.238.15,0,0Zm8.5,23.125c.423,1.235-2.3.461-1.7,1.809-3.681-.976-7.262,1.768-7.366-1.809C659.348,2402.678,664.875,2402.678,666.647,2403.709Zm-11.335-7.588c1.41.147.032,1.4-1.135,1.086C654.378,2396.732,655.176,2396.637,655.312,2396.121Zm.567,14.817c-.372-.239.235.15,0,0Zm-13.6-32.525c1.079-.153,1.421-.778,2.832-.723,1.36,1.137.369,1.526,1.135,2.894-1.922-1.386-.91-.508-3.4,0C642.189,2380.157,642.2,2379.3,642.277,2378.413Zm-1.135,7.95c.236.153-.372-.236,0,0Zm-9.068,28.19c1.892-.366,1.861.5,1.7,1.443h-1.7Zm-1.132-19.879c-.115,1.085-2.355-.341,0,0Zm-6.236-9.393c1.72-.01,1.413,1.266,1.7,2.167C624.416,2387.844,624.176,2385.3,624.706,2385.281Zm1.7,43.723c.236.154-.372-.236,0,0Zm-2.27-40.109c-.369-.238.241.151,0,0Zm0,19.514a.055.055,0,0,0,.016-.021c-.056.072-.112.147-.171.222C624.031,2408.549,624.079,2408.484,624.138,2408.409Zm-1.7-7.229c.236.153-.372-.236,0,0Zm0,33.248c-.372-.239.236.15,0,0Zm0-23.852c-1.522-.249-1.094.748-1.7,1.085-1.713-.443.4-1.378.568-1.809,1.25.41,3.126.421,3.4,1.448C623.02,2411.552,621.293,2412.126,622.441,2410.576Zm2.265,17.346c-2.489,1.325-2.152-1,0,0Zm.567,6.506c-2.9,1.846,1.271-2.523,0-.362C625.233,2434.138,625.353,2434.376,625.273,2434.428Zm-.567-22.046h1.7v.723C625.268,2413.228,624.633,2413.034,624.706,2412.382Zm3.966,21.684c.667.058.479.658.568,1.085C627.356,2435.4,628.327,2434.4,628.672,2434.066Zm1.135-1.809c-1.705,1.413-1.56-1.382-3.966-.724.283-1.5,1.98-2.106,2.267-3.611,1.547-.263,1.14.717,2.266.724C628.006,2429.038,629.716,2430.888,629.807,2432.257Zm-.567-12.284c-.37-.239.238.15,0,0Zm1.7,10.12c-.372-.239.235.147,0,0Zm1.132-5.062c-.238-.754.388-.955.567-1.444a3.721,3.721,0,0,0,1.7.359C633.846,2424.475,633.892,2425.345,632.074,2425.031Zm-3.4-6.144c-.407-1.1.581-1.317.568-2.167,2.077.621,4.938.034,3.969,1.085,4.737-.57-.664-3.652,2.832-4.338,2.1,2.086,1.378,4.263,0,6.506C633.474,2418.806,632.681,2418.218,628.672,2418.887Zm10.2,2.171c-1.595.051-1.635-.887-1.7-1.809,1.161-.341,2.7-.447,2.832-1.444C641.452,2418.632,638.825,2419.918,638.875,2421.058Zm3.97,6.5h-1.7c.337-1.153-1.062-1.116,0-1.809h1.7C643.9,2426.444,642.507,2426.407,642.845,2427.56Zm1.129-37.944c-.369-.236.241.153,0,0Zm2.837,4.7c-.519,1.211-1.054.177-2.837.358C644.368,2393.544,645.486,2394.2,646.811,2394.316Zm-1.7,33.968c-2.382-.379,0-1.9,0,0Zm1.7-3.253c-.7-.157-1.164-.461-1.134-1.085C647.245,2423.884,647.622,2424.5,646.811,2425.031Zm.568-33.61c-.116,1.085-2.356-.341,0,0Zm1.129-10.837c-.824,1.2-1.408-1.409,0,0Zm0,34.689c-1.408-.144-.032-1.4,1.135-1.082C649.956,2414.993,648.561,2414.7,648.508,2415.273Zm1.135-2.891c.238.153-.372-.236,0,0Zm-.567-19.152c-2.238-.426.286-1.792-1.133-2.891,1.732-.259,2.067.369,3.4.362C651.155,2392.715,649.8,2391.834,649.076,2393.23Zm2.269,28.548H650.21v-.72h1.135Zm3.967-3.252c-.672,1.1-3.006-.393,0,0Zm1.132,19.513h-2.267q-.393-1.7,2.267-1.444Zm1.7-19.152c-1.015.048-1.194-.444-2.265-.361.362-1.595,2.559-1.9.565-3.253-1.3,1.577-4.807,1.754-6.234,3.253-1.445-1.014,2.669-4.168,5.669-4.7.67,1.492,3.378,1.355,5.1,2.891C658.192,2416.017,657.929,2416.9,658.144,2418.887Zm3.4,10.482c-.279-.179-.008,0,.046.03Zm1.134,1.444Zm6.8,6.506c-1.951-.935,2.917-.874,0,0Zm1.135-2.891h-2.267c-1.293-1.465-.788-4.076-2.268-5.424a4.6,4.6,0,0,1-2.267.365c1.213-.164,1.208-2.055,3.967-2.529a14.091,14.091,0,0,1-7.369-1.447,6.678,6.678,0,0,1,1.136-2.891c-.129-.461-1.692-.471-1.7,0-1.033-.45.744-2.151,2.267-2.167-.23-.7-2.2-.287-1.7-1.448,2.286-.228,3.062-1.42,5.669-1.447,1.655,1.488,2.971,2.966,5.1,3.253-.6,1.666,1.065,2.676,0,4.338-.1.782,2.01.164,2.832.362-1.582,2.5-2.2,3.4-5.1,5.058.5,1.052.851.406,2.27.362C672.286,2432.124,669.845,2432.359,670.614,2434.428Zm2.266-1.086c-.9,1.417,1.473.751,1.7,1.444.081,1.137-1.453,1.243-2.832,1.447,1.491-1.993-1.7-4.73,2.265-5.058.506.758.018,2.154,2.267,1.8C676.21,2433.779,673.876,2433.134,672.88,2433.342Zm5.667-24.933v1.443c-1.017.048-1.194-.44-2.267-.361A2.372,2.372,0,0,1,678.547,2408.409Zm0,27.824c-1.138.123-1.772-.075-1.7-.723h1.7Zm1.135-1.447c-1.906.372-.884-1.119-1.135-1.806C680.825,2432.929,680.046,2433.909,679.682,2434.786Zm-2.267-13.37c-1.976-1.706,1.7-2.375,3.4-2.89-2.278.324-2.372-2.093,1.134-1.806C683.654,2419,679.077,2420.113,677.415,2421.416Zm5.1-8.672c.659.058,1.006-.079,1.132-.362,1.189.932,2.717,1.641,3.4,2.891h-2.837C686.2,2413.32,682.487,2414.706,682.516,2412.744Zm3.967,18.431h-2.27a2.375,2.375,0,0,1,2.27-1.082Zm.567,2.891Zm2.265.362h-1.133v-.724h1.133Zm.567-20.961c-.916.1-.974-.341-1.7-.362C687.957,2412.406,690.763,2412.58,689.882,2413.467Zm-1.7-25.657c.726-.659,3.394-2.335,3.4-.362C690.249,2387.441,689.912,2388.069,688.182,2387.81Zm5.666,26.019c-.115,1.082-2.352-.345,0,0Zm-1.132-22.766v-1.086h1.7C694.518,2390.769,693.953,2391.128,692.716,2391.063Zm1.7,3.611c.238.154-.372-.235,0,0Zm2.267,38.668c-.115,1.082-2.353-.344,0,0Zm.567-18.431c.236.153-.372-.236,0,0Zm3.967-23.848c-.115,1.079-2.353-.345,0,0Zm1.7,15.175c.239.154-.368-.235,0,0Zm1.133-.72c-1.719-.663-4.681-1.448-.565-1.809A1.719,1.719,0,0,1,704.049,2405.518Zm.567-5.782c.667.058.479.659.568,1.085C703.3,2401.07,704.271,2400.074,704.616,2399.736Zm2.838,24.933c-.788.464-.349,1.707-1.136,2.171C704.568,2426.287,705.226,2424.591,707.454,2424.669Zm2.831-33.606c-1.694-.485-3.934-.625-3.967-2.168,2.115.386,1.615-.9,3.4-.727C707.935,2389.349,710.467,2389.817,710.285,2391.063Zm-2.831.358c.235.154-.373-.235,0,0Zm.564,37.948h-1.132v-.723h1.132Zm0-31.8c-3.319-.481,2.053-1.706,0,0Zm3.4,18.428c-.115,1.082-2.355-.344,0,0Zm-1.7-4.335c2.248-.351,1.761,1.045,2.267,1.806C710.392,2413.4,709.571,2412.839,709.718,2411.661Zm1.7-18.069c1.234,2.3-2.46,1.017,0,0Zm-3.966-6.144c-.737-.648-1.283-3.488.564-3.611-1.121-.491-2.2-1.007-1.7-2.532,1.079-.158,1.424-.775,2.832-.721,1.1.454-.554,2.2,1.135,1.082,1.877.352-.634.714-.567,1.086.535.74,2.229.747,2.267,1.8.653-.116,1.954-1.573.567-1.8,3.828.116-.99,2.556-.567,4.7C710.183,2386.9,709.493,2387.322,707.454,2387.448Zm7.365,7.591c-.953,1.277-1.769-1.181,0,0Zm0,17.343c.239.153-.372-.236,0,0Zm3.4,26.019c-2.666-.151-1.536-1.918-3.966-1.444a3.555,3.555,0,0,0,0-2.529C718.518,2434.9,719.169,2436.892,718.218,2438.4Zm1.135-4.7a1.552,1.552,0,0,1-1.135-1.447C719.923,2431.9,719.222,2433.066,719.353,2433.7Zm1.7.362c-.827,1.2-1.411-1.41,0,0Zm2.267-.724c.061.9,1.06,1.12,0,1.809C721.385,2435.281,720.93,2433.059,723.32,2433.342Zm-1.7-12.649v-.72h1.135v.72Zm2.264,15.54Zm-4.539-22.37c-.163,1.011-2.31-.369,0-.034a2.749,2.749,0,0,1,.011-.362c1.93-.959,3.193-2.522,2.267-4.335,2.739,1.11-.594,3.471,5.1,3.612C726.181,2418.72,719.482,2417.6,719.345,2413.863Zm7.944,9.724c-.918.1-.979-.341-1.7-.365C725.362,2422.522,728.167,2422.7,727.289,2423.587Zm.565,3.973c1.528.352,2.736.908,2.834,2.168C728.2,2431.448,725.333,2429.035,727.854,2427.56Zm6.234-13.007c-.372-.236.238.15,0,0Zm-.568-11.2c-2.053.011-1.82-1.894-3.4-.365-1.649-.311-.64-.539-.568-1.44a28.078,28.078,0,0,1-5.669-.724c2.886-.57,3.022-2.894,4.535-4.338C731.826,2397.442,735.948,2400.985,733.52,2403.35Zm1.135-8.676h1.132v.724h-1.132Zm.567,14.458c1.563-.433,1.989-1.027,3.967-.361-.243.689-1.22.907-1.135,1.8C736.708,2410.351,735.415,2410.091,735.222,2409.132Zm3.4,3.25Zm4.534,1.809c-.332.751-1.191,1.167-1.7,1.805-1.413-.181-3.42.014-3.4-1.085.7-.4,1.167-.314,1.135.362.431-.82-.233-2.874,2.834-2.891a1.511,1.511,0,0,0,1.133.723c-.158.758-1.512-.522-2.267.362C740.974,2414.136,742.811,2413.689,743.156,2414.191Zm.565,1.443c.24.154-.37-.235,0,0Zm.567-18.789h-1.7V2395.4C744.481,2395.036,744.448,2395.9,744.288,2396.845Zm1.7-3.253c-.115,1.082-2.355-.348,0,0Zm-.567-2.171c.447-1.266,1.981-.413,2.834,0C747.342,2392.39,746.461,2391.961,745.423,2391.421Zm5.669,13.735c-.373-.239.235.15,0,0Zm2.831,32.163c-.115,1.082-2.355-.345,0,0Zm3.4-7.226c-1.378-.338-3.233-1.447-2.267-2.171h1.7C756.129,2429.321,758.76,2429.209,757.325,2430.093Zm-.567-10.12c-2.3.082-1.028-2.8,1.134-2.168C758.163,2418.938,757.084,2419.218,756.758,2419.973Zm3.4,13.731h-1.132v-.724h1.132Zm-1.7-30.719c1.236-.061,1.8.3,1.7,1.089C758.92,2404.135,758.353,2403.777,758.458,2402.985Zm3.969,29.637c-2.506-.522-1.959-1.59-1.7-3.253.9-.03,2.163.171,2.267-.365C764.043,2429.581,762.769,2431.735,762.427,2432.622Zm1.119-4.912c-.539-.2-.351-.133,0,0Zm1.145,7.8c-.953,1.28-1.769-1.178,0,0Zm-1.06-7.772c.206.078.447.167.637.235-.043-.013-.088-.03-.144-.051Zm.493-40.648c-.263-.775.811-.69,1.7-.727C765.577,2386.81,765.1,2387.107,764.124,2387.09Zm2.269,41.556c-.372-.239.236.15,0,0Zm1.133-26.019c.064-.922.107-1.861,1.7-1.806C769.337,2401.855,769.295,2402.791,767.526,2402.627Zm0-3.615c-.37-.235.238.15,0,0Zm-.565-2.167c-4-2.048-.311-6.465,4.513-6.11-1-.1-.391-1.212-1.682-1.119-1.164.1-1.132.966-1.7,1.447-2.588-1.331,3.03-2.925,2.835-5.059-.065-.925-1.9-.72-3.4-.723-.525-1.632,4.076-1.2,5.1-.724-.969,3.072-1.234,4.113-.567,6.144a2.51,2.51,0,0,1-.52.041,7.572,7.572,0,0,1,1.651.321c-.045.512-.09,1.024.568,1.085C771.366,2393.629,770.17,2395.882,766.961,2396.845Zm7.933-11.929c3.538.355.021,1.078,0,2.174C772.292,2387.073,775.727,2386.059,774.894,2384.916Zm-.567,41.559c.238.153-.373-.236,0,0Zm.567-25.3c.239.153-.372-.236,0,0Zm0,7.952c.239-.693.2-1.556,1.7-1.447C777.616,2408.3,776.42,2409.108,774.894,2409.132Zm3.4-22.042c-.115,1.078-2.353-.348,0,0Zm2.267,31.8c-.115,1.082-2.352-.344,0,0Zm-1.7-20.96q1.855-.1,1.7,1.085C779.324,2399.077,778.756,2398.719,778.86,2397.927Zm4.535.724c-.953,1.276-1.77-1.178,0,0Zm-.568-11.927c3.819-.313-.316,2.325,0,0Zm2.835,38.669c-.115,1.082-2.355-.348,0,0Zm.567-30.354c1.718-1.338,1.908,1.1,0,0Zm3.4,11.2c-.669,1.1-3.006-.389,0,0Zm0,19.879c-.372-.236.238.15,0,0Zm0-27.1c3.049.178.147,2.028,0,0Zm1.135,22.766c-.327,1.451.476-2.136,0,0Zm1.133-14.455c-.177,1.574,2.954,2.229,5.1,1.809C795.246,2413.214,787.953,2409.778,791.9,2407.323Zm.567-3.249c-.372-.239.235.15,0,0Zm0-3.976c-.372-.239.235.15,0,0Zm1.132,3.252c-.825,1.2-1.408-1.409,0,0Zm.567-8.311c-.088-1.014,1.6-1.177,2.267-.723C796.293,2394.951,795.453,2395.138,794.162,2395.039Zm3.4,3.973c.265.772-.811.69-1.7.724C796.111,2399.292,796.587,2399,797.564,2399.012Zm-3.4-.724c.239.154-.371-.232,0,0Zm.568,17.346c2.227.123,2.3-2.324,4.531-1.081-.626,1.116-3.228.972-1.7,2.529a4.63,4.63,0,0,1-2.269.358A1.716,1.716,0,0,1,794.73,2415.634Zm3.967-2.529c-.953,1.28-1.77-1.177,0,0Zm-3.4,11.926c-.37-.235.238.15,0,0Zm8.5,10.12c-1.772-.375-2.92,1.39-5.666,1.444-.5,1.246-.145,3.038-2.834,2.891,1.092-.509,1.025-1.754,1.7-2.529-2.607-.649-.589-2.014-2.267-3.253.372-1.082,1.21.348,2.267,0-2.471-1.13-1.009-2.891-2.267-5.058,3.2-1.485,2.3-.014,5.666-.362.072.648-.693.764-.568,1.444,1.735.263,1.671-.622,3.4-.359-.024.618.421.932,1.133,1.082C802.9,2431.776,803.412,2434.144,803.795,2435.151Zm-2.831-10.12c-.115,1.082-2.353-.345,0,0Zm3.4-11.564c-.37-.239.238.15,0,0Zm-1.7-18.793c-5.607,1.147-7.714-3.2-11.338-3.973,1.3-1.2.846-1.174,0-2.533,2.666-1.027,4.817-.324,7.933,0,1.231.062.26-1.28.567-1.8,1.454.041.913,1.348,1.7,1.8.511-.634.046-.812,2.264-.358.41,1.43.107,3.3,1.7,3.976C805.045,2393.684,802.866,2393.3,802.666,2394.674Zm2.832,37.948c-.373-.239.235.15,0,0Zm1.7-10.482H804.93C804.269,2420.884,808.1,2420.461,807.2,2422.14Zm2.267-35.05c-.953,1.273-1.769-1.181,0,0Zm3.4,34.326c-.115,1.083-2.355-.344,0,0Zm1.7,13.012c.781-1.465-1.232-1.144-1.135-2.171,1.338.532,1.055.764,2.834.365C817.17,2433.189,815.992,2434.281,814.566,2434.428Zm2.834-2.171h-1.135v-.724H817.4Zm-.567-11.2c.246-.447.725-.744,1.7-.723C818.8,2421.1,817.724,2421.02,816.833,2421.058Zm4.534-16.625c.235.153-.372-.236,0,0Zm4.534-19.876c.235.154-.372-.235,0,0Zm1.7,8.312c.239.153-.371-.236,0,0Zm.567,33.248c1.939-.656,3.14-1.223,5.667-2.171-1.159,1.72-.982,2.6.568,3.976C831.816,2427.642,830.17,2426.765,828.167,2426.117Zm6.235-.366c.238.154-.372-.235,0,0Zm-1.7-8.311c.024-1.618,3-.061,3.966,0C836.382,2418.7,833.43,2417.99,832.7,2417.44Zm7.933,15.182c-1.451,1.055,2.13-1.556,0,0Zm9.068-7.953c-1.943,1.775-7.636,1.157-10.77,2.171-.493-.529-.45-1.4-2.265-1.089.391-1.13,1.513-.471,2.832-.358.415-1.106-.977-1.065-.567-2.171,3.086-1.044,5.8-1.215,7.371-2.529.615.092.383.72,1.132.723-.056.929-2.213.519-2.267,1.448,1.033.751,2.345-1.376,4.534-1.086.209.618-.441.683-1.135.724C848.579,2423.458,848.255,2424.632,849.7,2424.669Zm.568-1.8Zm-1.136-36.14v-1.443C851.373,2385.032,850.99,2386.8,849.135,2386.724Zm2.268-1.808c-1.507,0-3.236.14-3.967-.359a7.349,7.349,0,0,1,2.835-1.8c0-.966-1.794-.785-1.7-1.809,1.949.324,4.248.426,5.1,1.447C851.949,2383.356,851.483,2382.461,851.4,2384.916Zm61.209,12.291c-2.095-1.1,1.719-1.219,0,0Zm-2.834-10.483.038-.169-.077.342-.029.129.029-.129Zm0,5.062v.724h-1.135v-.724Zm-1.135-9.754c-.2.47-.995.563-1.132,1.078C905.654,2382.912,906.646,2381.714,908.643,2382.032Zm-2.267-1.448c-.369-.238.238.15,0,0Zm-.565,19.152c-.412,1.1.977,1.061.565,2.167-1.014.048-1.2-.443-2.267-.358C904.634,2400.913,904.09,2399.6,905.811,2399.736Zm-2.834-5.782c-1.9.874,1.37-1.212,0,0Zm-.567,12.284c.267.772-.809.693-1.7.724C900.956,2406.518,901.435,2406.221,902.41,2406.238Zm-1.133-11.564c.236.154-.372-.235,0,0Zm.568,5.782c.235.154-.372-.235,0,0Zm0-9.035c-.091.427-1.036.307-1.7.365.051-.512.094-1.024-.567-1.085C900.421,2389.51,901.176,2391.319,901.845,2391.421Zm-5.669-13.731c1.483-.1,2.438.133,2.267,1.089C896.962,2378.878,895.606,2378.9,896.176,2377.69Zm1.135,11.567c-.956,1.277-1.772-1.181,0,0Zm-.568-7.952c1.547,1.1-1.726-.987,0,0Zm.568,22.4c.235.153-.373-.236,0,0Zm-2.838,9.758c-1.9.874,1.371-1.212,0,0Zm-.564-3.615c-.115,1.083-2.356-.344,0,0Zm.564-5.419c-.35,1.1-1.258,1.85-3.4,1.8A5.889,5.889,0,0,1,894.473,2404.433ZM878.6,2382.752c-.366-.236.241.15,0,0Zm-3.4-4.7h1.135v.727h-1.135Zm-1.132,7.591c1,2.027,2.358.187,5.1.361-2.412-1.522,2.077-.767,1.135-3.252,3.3-.751,5.262,2.952,2.266,2.891,2.3.338,2.511,2.01,3.4,3.252-2.357.185-2.35,1.874-3.4,2.891-1.193-.454-2.606-1.846-1.7-2.529a76.786,76.786,0,0,0-7.369-2.167A1.531,1.531,0,0,0,874.073,2385.643Zm-.568,31.077c-1.9.874,1.371-1.212,0,0Zm-12.467-19.513c-.115,1.081-2.355-.348,0,0Zm-4.534,7.587c.236.15-.372-.235,0,0Zm5.1,32.163c-2.063.351-.262-1.761-2.836-1.085-.081-1.137,1.456-1.243,2.836-1.444C860.233,2435.585,860.915,2435.7,861.6,2436.957Zm.568-18.07c-1.654.533-1.654-1.614,0-1.082Zm-.568-3.253c1.227-.747.03-1.228-1.134-1.443.675-1.263,1.94-1.011,3.4-.362C864.108,2415.064,863.7,2415.887,861.6,2415.634Zm2.832,19.152c.239.154-.371-.236,0,0Zm1.7-.72c-.827-.318-2.2-.287-1.7-1.444C865.931,2432.51,866.3,2433.121,866.14,2434.066Zm2.264,1.444a1.543,1.543,0,0,1-1.132-1.444c1.547-.266,1.14.72,2.267.72C869.4,2435.182,868.412,2435.035,868.4,2435.51Zm.568-12.288c.2-1.56,1.522-2.4,3.969-2.529-.3,1.41,3.029,2.382,2.832,2.529C873.913,2424.147,871.819,2422.8,868.972,2423.222Zm8.5-5.417c-1.9.871,1.368-1.215,0,0Zm3.4-20.237c-.915.1-.977-.344-1.7-.361C878.95,2396.5,881.755,2396.678,880.874,2397.568Zm-1.135,9.394a1.723,1.723,0,0,1,.568-1.806c1.541-.256-.407,1.7,1.135,1.447C881.351,2407.023,880.406,2406.907,879.739,2406.962Zm2.834,27.824c-1.177-.2-1.2-.56-.564-1.082h1.132C883.3,2434.288,882.606,2434.325,882.573,2434.786Zm2.268-22.4c-.115,1.082-2.356-.345,0,0Zm0,19.151c-1.178-.2-1.2-.559-.568-1.082h1.135A1.372,1.372,0,0,0,884.841,2431.533Zm1.7-20.595c-1.178-.2-1.2-.563-.565-1.086h1.133C887.268,2410.436,886.572,2410.477,886.54,2410.938Zm1.135-5.782c-.115,1.082-2.353-.345,0,0Zm-.567-23.49c.23-.9,2.6-.273,1.7.724C887.552,2382.591,888,2381.7,887.108,2381.666Zm2.834,26.019c-.115,1.086-2.355-.345,0,0Zm2.835,10.12c-.579-.235-.589-.833-1.7-.723-.072-.649.7-.762.568-1.448,1.906.11,4.914-.481,4.534,1.086C894.615,2417.556,893.057,2416.153,892.777,2417.8Zm3.966,9.393c.236.154-.372-.235,0,0Zm12.468-14.816c-1.8-2.379-3.378.979-4.534,2.171-2.685-.338-3.925-1.594-5.669-2.53-1.3-.112-.627,1.045-1.7,1.082-3.8-.672-2.511-5.58-.568-6.5,1.049,2.229,3.632-.73,4.534,1.806-1-.523-1.293-.331-1.135.723,1.6-.068,2.414-.628,2.268-1.809a10.3,10.3,0,0,1,5.1.724c.161.584-.535.621-.568,1.085,1.615-.539,2.878.471,3.4-1.085,2.633.249,2.085,2.526,3.966,3.253C915.246,2411.737,909.9,2411.037,909.211,2412.382Zm1.132,18.431c-1.735-.355.653-.966.567-1.444.643.065.316.362,0,.359a1.527,1.527,0,0,0,1.135.723C911.981,2431.731,910.169,2429.683,910.343,2430.813Zm2.834-10.478c-.369-.236.238.15,0,0Zm1.7,10.116c-1.135.123-1.772-.075-1.7-.723h1.7Zm-2.265-31.439c-.1-1.116,1.995-1.625,2.832-1.085C915.053,2398.644,913.934,2398.893,912.612,2399.012Zm20.4-14.817c.243.69,1.619.656,1.135,1.809,1.705-1.044,1.978.861,4.531.359.45,1.252-.626,1.526-1.129,2.171-2.621-1.857-11.076.44-9.636-4.7A5,5,0,0,0,933.013,2384.2Zm-5.1-4.338v1.086C926.26,2381.475,926.26,2379.328,927.914,2379.857Zm-1.7-.358c.206,1.095-1.847.751-2.837,1.085C923.171,2379.485,925.224,2379.833,926.215,2379.5Zm-.568,2.167c2.5.908-1.59,2.8-1.135,4.7-1.183.157-1.5-.246-2.267-.359C922.5,2384,925.634,2383.827,925.647,2381.666ZM921.113,2386c2.481.536-.075,1.141-.567,1.806C919.467,2387.773,921,2386.462,921.113,2386Zm-2.834,25.3c-.37-.236.238.15,0,0Zm5.1,26.739c-.528-1.662,2.181-1.256,2.269-2.529.418.938,1.86,1.222,2.267,2.17C924.9,2438.435,926.137,2436.4,923.378,2438.039Zm1.134-3.253c.239.154-.372-.236,0,0Zm8.5-5.058c-.115,1.085-2.353-.345,0,0Zm-4.534-13.37c1.365-.71,1.306-1.8-.565-2.167a6.827,6.827,0,0,1-2.834,3.249c1.2.365,3.4,1.048,1.7,2.171q-1.854.1-1.7-1.085c-.889,1.242-3.884,1.14-4.534,2.532-.843-.549-.913-1.59-1.135-2.532,1.8-.659,3.809-1.185,4.534-2.53-1.828-.03-4.224-3.338-2.265-4.7,1.422.867,1.791.157,2.832,1.082.15-1.27,7.652-.782,8.5,1.447C931.1,2413.156,932.3,2417.092,928.479,2416.358Zm7.368-3.976c-1.1.143-.827-1.645.568-1.082C936.573,2411.883,935.879,2411.921,935.847,2412.382Zm1.135-18.066c1.009,1.283.707,3.4,2.832,3.972C935.368,2403.791,925.966,2394.333,936.982,2394.316Zm3.967-9.4c-.827,1.2-1.411-1.407,0,0Zm27.769,41.2c-.369-.236.238.15,0,0Zm-.567-16.626c-2.458-.147.6-2.1,0,0Zm-13.6-24.934h1.135v.724h-1.135Zm-13.032,23.49c-.9-1.655,2.35-.669,2.265-1.809.645.072.316.365,0,.365-.046.512-.094,1.021.567,1.082C943.5,2408.46,942.961,2407.429,941.516,2408.047Zm2.265-21.684q2.163.066,2.269,1.447C944.734,2387.687,943.393,2387.578,943.781,2386.363Zm6.8-.359c-.576-.235-.584-.832-1.7-.723v-.724a3.778,3.778,0,0,1,1.7-.362C950.245,2385.349,951.647,2385.315,950.582,2386Zm1.7,28.187c-.372-.239.236.15,0,0Zm5.1-9.4v.724h-3.4C953.445,2404.211,956.216,2405.013,957.386,2404.794Zm-2.838,30.357c-1.721.987,1.547-1.1,0,0Zm3.97-13.735c-1.411,1.41-.827-1.2,0,0Zm1.132,11.926h-1.7c.6-.334.177-1.334,1.7-1.085Zm-2.832-15.9c.375-1.184,2.241-.863,1.132-2.167h1.7c-.634,1.14-.048.819,0,2.167C958.239,2417.481,957.9,2418.119,956.818,2417.44Zm2.832-1.082c.115-1.082,2.355.345,0,0Zm2.834-37.945c-.115,1.086-2.352-.344,0,0Zm.568,53.844c-1.411,1.413-.827-1.2,0,0Zm0-14.817c.238.154-.37-.235,0,0Zm1.132-6.14a2.131,2.131,0,0,1-1.7-2.529c1.965-.29,2.179.536,3.967.361-.2.475-1,.567-1.132,1.083,1.734.262,1.667-.622,3.4-.363v1.448C967.139,2410.962,965.348,2409.993,964.184,2411.3Zm3.4,22.042c.235.15-.372-.235,0,0Zm1.7-.362c-1.7.366-1.006-.8-1.134-1.447h1.7C970.091,2432.291,969.465,2432.492,969.285,2432.98Zm-.567-4.7c-.458-1.618,1.009-2.007,2.835-2.167C972.01,2427.731,970.543,2428.12,968.718,2428.284Zm3.4-40.474c1.472-.215,2.039.143,1.7,1.085C972.583,2388.96,972.018,2388.595,972.12,2387.81Zm1.7,33.606c-1.651.533-1.651-1.614,0-1.081Zm.565-3.611c-.112,1.082-2.352-.348,0,0Zm1.7,3.611c-.313-.8,1.082-.512,1.135-1.081C978.629,2420.481,977.253,2421.734,976.086,2421.416Zm6.234-19.151c1.314.1,1.3.966.567,1.444C981.972,2403.354,981.584,2402.746,982.32,2402.265Zm1.7,26.739c-2.125.147-2.87-1.676-2.265-2.164h2.265Zm167.757-37.941c.412,1.106-.98,1.065-.565,2.167C1149.087,2393.483,1149.828,2390.5,1151.777,2391.063Zm-1.135,14.455c-.39.713-1.512.962-2.834,1.085C1145.936,2404.549,1149.413,2403.842,1150.642,2405.518Zm-6.8-25.3c-.372-.235.241.151,0,0Zm-16.434,20.234c-.115,1.085-2.353-.341,0,0Zm-1.132,16.984c-.61.338-.18,1.338-1.705,1.086C1124.471,2417.737,1125.036,2417.379,1126.275,2417.44Zm-9.639-1.806c.239.154-.368-.235,0,0Zm-11.332-12.649c-.843-.3-.822-1.16-1.135-1.805C1106.128,2400.927,1106.2,2402.446,1105.3,2402.985Zm1.135,7.591v1.085h-1.7C1104.635,2410.873,1105.2,2410.511,1106.439,2410.576Zm-3.969-7.949c-.321,1.119.152,2.747-1.7,2.891C1101.437,2404.62,1100.508,2402.7,1102.47,2402.627Zm-.568-16.264q-2.211.327-1.7-1.082C1100.733,2385.667,1102.293,2385.393,1101.9,2386.363Zm-10.767,1.447h1.7c.244.758-.388.959-.565,1.447C1091.268,2389.169,1090.977,2388.636,1091.135,2387.81Zm-7.937-5.778c3.255.266,3.191-1.584,6.8-1.089.781.467.562,1.57.57,2.532-1-.809-4.055-1.86-3.967.362C1085.064,2383.489,1082.693,2383.677,1083.2,2382.032Zm4.538,35.773a1.474,1.474,0,0,1,2.264-1.085C1090.174,2417.672,1089.218,2417.908,1087.736,2417.8Zm-7.369-37.221c.056.359,1.212,2.587-.565,2.526.479,1.062,1.424-.467,2.832,0-.2.478-1,.57-1.132,1.085a15.443,15.443,0,0,1,6.234.362c.757,2.287-2.192,2.215-2.838,3.611-2.01-.809,2.7-2.222-1.7-1.8-.5-1.157,1.871-.492,1.7-1.447-1.973-.656-5.818,1.74-9.062.365.486-1.382,2.949-.365,3.966,0C1077.816,2383.711,1079.495,2382.714,1080.367,2380.584Zm-.565,18.067c2.134-1.577,3.689-1.656,6.8-2.168C1086.229,2398.272,1082.473,2399.5,1079.8,2398.651Zm2.265,22.765c.237.154-.37-.235,0,0Zm-1.7-26.377Zm5.666-2.529c-2.32-.089-2.545-1.509-2.835-2.894C1087.784,2389.807,1084.794,2390.4,1086.033,2392.51Zm-6.231,18.066v1.085C1078.146,2412.191,1078.146,2410.044,1079.8,2410.576Zm-1.135,10.482c.158.58-.538.618-.567,1.082-.613-.088-.383-.717-1.135-.724-.1-.307.222-.341.567-.358Zm-2.831,3.973h-1.706c.2-.723-.112-1.133-1.132-1.085,1.173-.717,2.929-.809,3.4-1.082C1078.2,2423.468,1074.65,2423.632,1075.836,2425.031Zm-1.136-43c1.061.4,1.205,1.4,2.265,1.8C1075.56,2385.093,1073.183,2382.711,1074.7,2382.032Zm-.57,40.832c-.369-.236.242.15,0,0Zm-10.2-38.307c.236.154-.372-.235,0,0Zm-.57,3.611Zm-17-5.058c.239.154-.369-.235,0,0Zm-1.7,3.614h1.135c-.1.311.222.342.564.366C1046.586,2387.786,1043.781,2387.615,1044.662,2386.724Zm1.7,1.81c.488.655,1.459,1,1.7,1.805-2.3-.02-2.147,1.526-3.967,1.809C1043.142,2391.278,1047.7,2390.848,1046.361,2388.534Zm2.268,5.782c-.37-.239.235.15,0,0Zm1.134,26.742v.72h-1.134v-.72Zm-.57,4.693h-2.262c.239-.751-.393-.955-.57-1.44C1046.335,2424,1049.137,2424.919,1049.193,2425.751Zm-3.4-29.268c.134-.635.971-.823,2.267-.72C1048.634,2396.848,1046.8,2396.4,1045.8,2396.483Zm-.57-.72c-1.264-.266-.273-2.062,1.134-1.809C1045.784,2394.428,1045.805,2395.285,1045.227,2395.763Zm2.27-3.977Zm-4.535.724h1.135v.72h-1.135Zm-1.7,17.342c1.413.147.035,1.4-1.135,1.086C1040.331,2410.463,1041.126,2410.371,1041.26,2409.852Zm-1.135,9.4c-.112,1.082-2.35-.345,0,0Zm-18.7-36.139c.768.113.469.908.57,1.447C1021.06,2383.837,1019.717,2383.731,1021.424,2383.11Zm-16.433,0c.237.154-.375-.235,0,0Zm-9.069,23.852c.236.153-.372-.236,0,0Zm-1.135-5.782Zm-3.4-16.264c.239.157-.372-.232,0,0Zm-.567-7.226c-.113,1.082-2.353-.342,0,0Zm-.565,34.333c.235.151-.372-.235,0,0Zm2.832,3.973c-1.475-1.167-2.907-2.4-6.234-1.443-.589-1.943,2.184-1.738,2.267-3.253,2.428,1.666.172,1.608,2.834,3.611a18.15,18.15,0,0,0,2.832-1.082c.27-1.6-.776-1.8,0-2.891,2.125.331,2.4,1.843,2.835,3.253A8.86,8.86,0,0,0,993.088,2416Zm7.936,5.062h-1.135v-.723h1.135Zm.567-33.968c-.372-.239.236.15,0,0Zm2.264-7.591c-1.72.986,1.548-1.1,0,0Zm0,4.7c-.216.141,1.708.389,1.7.362C1005.716,2385.134,1002.5,2385.063,1003.855,2384.2Zm1.7,38.669c-.369-.236.238.15,0,0Zm2.835,0a3.7,3.7,0,0,0-1.7-.362,1.532,1.532,0,0,0,.567-1.444C1008.943,2420.98,1009.257,2422.345,1008.39,2422.864Zm1.7-37.948c.235.157-.375-.232,0,0Zm1.7,16.987c1.307-.109.629,1.044,1.7,1.082C1012.808,2404.077,1011.013,2402.931,1011.791,2401.9Zm0-1.805c.008-.717,1.547-.461,1.133-1.447C1014.915,2399.118,1013.647,2401.275,1011.791,2400.1Zm4.532-5.059c-.369-.235.238.15,0,0Zm1.135-.723c-.37-.239.238.15,0,0Zm3.966,37.941Zm2.267-3.611c-1.408.471-2.35-1.062-2.831,0-1.395-.256,1.967-2.079-.565-2.171,2.114-.775,1.308,1.137,3.961,1.085A1.379,1.379,0,0,0,1023.691,2428.646Zm-2.267-34.692c-.222-1.468.209-2.519,2.267-2.533C1024.887,2392.363,1024.513,2394.626,1021.424,2393.954Zm2.267-3.977c-.112,1.086-2.355-.344,0,0Zm0-1.443c-.672.894-2.055,1.337-4.531,1.082,1.421-1.379,3.016-2.652,3.4-4.7,5.16,1.126,3.006,3.392,2.267,5.785C1024.184,2389.936,1024.6,2389.653,1023.691,2388.534Zm2.27,4.7c-1.413,1.413-.827-1.2,0,0Zm2.831-9.393c-.112,1.079-2.354-.348,0,0Zm5.667,27.1c-.169-.952.787-1.184,2.27-1.086A1.477,1.477,0,0,1,1034.459,2410.938Zm2.834,24.934Zm11.9-7.95c-1.153-1.31-4.582-1.171-7.933-1.082,1.611,2.15-1.253,2.222-2.264,3.611-1.954-1.082,1.6-2.5,1.7-3.976,5.429-.017,5.888-.553,9.633,0A1.547,1.547,0,0,1,1049.193,2427.922Zm2.27-12.649h-1.135v-1.444h1.135ZM1047.5,2386c.267-2.764,3.77-1.6,4.533-3.614C1054.145,2383.431,1052.333,2388.247,1047.5,2386Zm4.533,13.732c.2-.475,1-.57,1.132-1.085.616.091.386.716,1.133.723C1054.121,2399.865,1052.879,2399.674,1052.03,2399.736Zm9.636,25.657c.233.154-.374-.236,0,0Zm.564-3.253c.239.154-.368-.235,0,0Zm-3.4-13.731c10.251-2.789,1.382,8.13,0,0Zm5.1,4.7c-.118,1.082-2.355-.344,0,0Zm-2.267-16.26c-1.309.109-.632-1.045-1.7-1.082,1.777-.754,3.235-1.929,1.7-2.894,1.156-.727,1.11.16,2.267.361A8.115,8.115,0,0,1,1061.666,2396.845Zm3.966-6.144c-2.3,1.031-3.688-1.178,0,0Zm.565,20.96c-.953,1.277-1.769-1.18,0,0Zm1.7-2.529c-.373-.239.235.15,0,0Zm1.7,22.043c-.377,1.038,1.149-3.171,0,0Zm.565-2.891c-1.665-.942-.3-1.567-.565-3.253C1071.454,2425.649,1070.365,2427.065,1070.164,2428.284Zm-.565-38.307c.236.154-.375-.235,0,0Zm.565,32.887c-.37-.236.238.15,0,0Zm-5.1-38.669c2.182-1.259,4.216-2.614,7.936-2.89.573,1.085-1.26.641-2.264.727,2.936,1.272,1.055,1.5,3.4,2.525-1.777.993-4.027-.788-5.666-1.082-.358,1.314,1.175,1.42,2.835,1.441C1069.961,2386.615,1066.224,2384.878,1065.062,2384.2Zm6.237,26.02c1.715-1.335,1.908,1.1,0,0Zm13.6,19.154c.983,1.7-3.059,2.372-5.666,2.888-.238-.751.391-.956.57-1.444H1073c-.506-.764-1.726-1.068-1.7-2.167,5.423-1.133,7.173-3.448,9.633-5.782-1.009,1.218-.239,1.938,1.135,2.529.281.031.281-2.2,0-2.171.326-.529,3.032.451,2.267,1.809,1.525.014,1.525-1.819,0-1.809.492-.542.848.1,2.269-.358-.074-.8-2.409-.154-3.405-.362.167-.222,1.414-1.393,0-1.444,1.336-1.625,4.021,2.509,3.97-.365,1.967.556,2.593,1.962,4.537,2.529.286,1.7-3.1,3.8,1.129,3.976C1091.335,2430.141,1089.226,2429.649,1084.9,2429.369Zm9.068,4.7c-1.362-1.772-1.6-2.2-1.132-3.973,2.372-.307,2.246.976,3.4,1.44A6.818,6.818,0,0,0,1093.966,2434.066Zm2.835-50.591c-.369-.235.238.15,0,0Zm-5.1-.365c.01-.348.69-.276,1.129-.358a1.722,1.722,0,0,1-.565-1.809c2.1.283,4.171-1.4,3.967.362,2.65.365,1.882-1.448,4.531-1.083-1.218.772-.208,1.97,1.135,2.168.265,1.252-3.078.205-3.4,1.085-1.242-.054-1.215-.915-1.132-1.809C1095.267,2382.683,1094.563,2382.461,1091.7,2383.11Zm6.8,1.085c.667.058.479.663.565,1.086h-1.7C1097.569,2384.806,1098.364,2384.711,1098.5,2384.2Zm0,47.7c-1.41,1.406-.829-1.2,0,0Zm2.834-1.448c-2.481-.563-1.461-3.044,0-3.976.094-.782-2.012-.164-2.834-.358,1.057-.772,1.791-1.748,3.967-1.806-2.283,1.638,1.734.239,4.534,1.082C1107.381,2428.707,1100.208,2427.673,1101.337,2430.451Zm6.8.724c-1.014-.048-1.194.444-2.267.358v-1.082C1106.873,2430.533,1108.706,2430.09,1108.136,2431.175Zm1.135-19.875c-.669,1.1-3.006-.393,0,0Zm2.269,24.572c.233.153-.374-.236,0,0Zm0-6.144c.233.153-.374-.236,0,0Zm.565-1.806c.238.154-.369-.235,0,0Zm2.267.362c-.915.1-.977-.341-1.7-.362C1112.448,2427.223,1115.25,2427.393,1114.372,2428.284Zm.565,11.2H1113.8v-.724h1.135Zm2.835-4.7c-1.1.147-.827-1.645.567-1.082C1118.5,2434.288,1117.8,2434.325,1117.772,2434.786Zm-.565-7.946c-.375-.239.233.147,0,0Zm4.531,1.082c-2.6-.242.455-2.188,0,0Zm-.564-5.42c2.149-.164,4.03.938,5.666,0C1127.509,2423.294,1121.411,2424.56,1121.174,2422.5Zm5.1-.724c.233.15-.375-.235,0,0Zm1.132,9.755h-1.132v-.72h1.132Zm0-2.164c-.372-.238.235.151,0,0Zm1.7-7.953c-5.039-.091-6.926-.754-10.2,1.448-2.08-1.434-1.606-5.175,3.4-4.338-1.349-1.857-5.012-.417-6.233.723-1.191-2.625,4.245-3.99,7.368-3.253-1.919,1.413,1.588,1.9,0,3.253,2.744-.665.541.212,1.7,1.444a5.069,5.069,0,0,1,5.1-.72C1130,2420.539,1128.456,2420.28,1129.106,2421.416Zm-1.134-24.933q.1-1.381,2.27-1.444C1130.172,2395.954,1129.414,2396.438,1127.972,2396.483Zm5.666,21.322c-.369-.238.241.151,0,0Zm2.27-22.766c-.37-.235.238.15,0,0Zm2.267-10.844c-1.306-.368-3.014-.484-2.832-1.805a7.167,7.167,0,0,1,3.4.362C1138.814,2383.4,1138.046,2383.516,1138.175,2384.2Zm1.7,49.147Zm1.7-46.979c-1.59-.625-.53-.946-.565-2.168,1.78-.051,1.946.929,2.267,1.809C1142.468,2385.974,1141.67,2385.943,1141.574,2386.363Zm1.135,3.253c1.48-.1,2.435.133,2.267,1.085C1143.889,2390.547,1142.535,2390.568,1142.709,2389.616Zm6.8,43.006c.249-.447.725-.744,1.705-.723C1151.472,2432.667,1150.4,2432.584,1149.507,2432.622Zm-1.7-19.878c-1.89.361-1.963,1.884-3.967,2.167-.308-2.727,4.842-1.97,5.1-4.335,1.958-.287,2.389.4,3.4.724,1.512-2.041-3.073-4.359-3.4-1.809-2.832-.734.807-1,.564-2.168.749.369,2.091.355,2.835.724,1.437-.481-.83-1.6-.565-2.529C1158.806,2407.87,1154,2418.894,1147.808,2412.744Zm8.5,18.789c.238.154-.369-.232,0,0Zm.57-.72c-.117,1.082-2.355-.345,0,0Zm0,3.973c.239.154-.374-.236,0,0Zm-.57-49.143c-2.208-2.362,2.81-3.833,4.537-1.806C1160.155,2384.96,1159.311,2385.991,1156.308,2385.643Zm5.672,28.548c.693.157,1.164.461,1.132,1.082C1161.9,2415.443,1162.031,2414.761,1161.98,2414.191Zm103.145-35.412h2.265C1267.837,2380.168,1264.679,2380.168,1265.125,2378.779Zm-6.8-2.171c.31.8-1.088.512-1.133,1.082C1256.178,2377.8,1257.157,2376.29,1258.325,2376.608Zm-1.7,3.249c.238.157-.37-.235,0,0Zm3.4,1.809a6.891,6.891,0,0,1-3.967,1.086c.07-.649-.695-.765-.57-1.447C1257.939,2381.311,1258.67,2380.639,1260.024,2381.666Zm-2.832,17.346c.233.15-.374-.235,0,0Zm-1.7,5.421Zm0,13.731Zm-1.7-40.112c-1.407,1.413-.823-1.2,0,0Zm-18.136,4.7h1.135v.723h-1.135Zm-.564,8.669c-.67,1.1-3.006-.389,0,0Zm-7.938,4.7c.059.038.1.065.005,0l-.005,0Zm1.7,3.618c-2.053.348-.473-1.625-2.261-1.448C1227.317,2397.387,1229.335,2398.671,1228.85,2399.736Zm-8.5.362c1.716-1.338,1.909,1.1,0,0Zm-.534-19.132-.036-.023Zm-.036,12.988c-.369-.239.241.15,0,0Zm-12.464-16.623c-1.9.874,1.367-1.215,0,0Zm-1.7,24.572c1.491-.109,1.86.5,1.7,1.447h-1.7Zm-31.738-12.646c-.983-.218.042-1.717-1.135-1.809,2.09-.205,4.06,2.5,3.4,4.338-1.164,1.178-2.928-.266-3.966-.365C1173.133,2390.2,1170.93,2389.206,1173.88,2389.257Zm-2.832,31.436c.233.153-.375-.236,0,0Zm2.832,15.179c-1.85.092-2.728-.427-2.832-1.444a7.218,7.218,0,0,1,3.4.358A1.376,1.376,0,0,0,1173.88,2435.872Zm-2.267-16.261c.238.154-.37-.236,0,0Zm2.267-13.008c-.372-.239.235.15,0,0Zm2.834-1.809c-1.408.5-3.576,1.792-5.1,1.086v2.529c-3.442.269-2.976-1.956-4.534-2.891,2.617.147,6.137-1.116,5.1-2.891,1.525-.331,3.136-1.8,4.536-1.082.19,1.686-1.574,2.13-2.834,2.888C1173.783,2405.218,1175.887,2404.6,1176.714,2404.794Zm-.57-17.7c.664.055.479.655.57,1.078C1174.827,2388.417,1175.8,2387.424,1176.144,2387.09Zm4.537,14.09c-.461-.069-.565-.362-1.135-.359.11-.293.57-.362.565-.723.46.068.565.361,1.135.358C1181.136,2400.749,1180.676,2400.818,1180.681,2401.18Zm1.7-4.335c-.115,1.082-2.355-.348,0,0Zm9.068,41.556Zm-1.7-13.008c1.443.044,2.2.526,2.264,1.447C1190.573,2426.8,1189.818,2426.311,1189.749,2425.393Zm2.832-.724c.235.154-.372-.235,0,0Zm1.135,11.2c-.956,1.279-1.772-1.178,0,0Zm.564-34.327c-.369-.239.241.147,0,0Zm2.27-23.132a4.553,4.553,0,0,1-1.7,2.53C1193.5,2380.291,1194.719,2378.236,1196.55,2378.413Zm-.57,53.12c.238.154-.369-.232,0,0Zm1.7-1.44c-1.137.119-1.772-.075-1.7-.724h1.7Zm.567-15.182c-1.9.877,1.368-1.212,0,0Zm5.1,1.809c-2.6-.239.458-2.188,0,0Zm2.835,13.373c-1.716,1.335-1.909-1.1,0,0Zm1.135-4.7c-.827,1.2-1.414-1.41,0,0Zm5.1-5.058c-2.443-.25-4.307-.871-5.1-2.171a3.707,3.707,0,0,0,1.7.362c.653-1.5-1.189-1.407-1.133-2.53-2.647,1.229-1.9.062-3.4-1.443.851-.543,2.385-.646,2.835-1.448.554-2.406-2.821-.665-3.97-1.444-.412-.986,1.127-.726,1.135-1.446,1.336.112,1.058,1.255,2.835,1.085,2.524-1.748-2.856-1.536-2.27-3.253,2.794.266,5.5.591,6.236,2.168-.417.644-1.03.054-1.7,0,1.308,2.44,3.011,5.338.564,6.5v2.529c2.142.522,1.087-.993,2.835-.723A1.731,1.731,0,0,1,1212.419,2420.335Zm2.832-15.541c-.369-.235.238.15,0,0Zm.565-14.817a1.385,1.385,0,0,0,.57-1.082c2.112-.382,1.828.758,2.832,1.082C1218.645,2390.994,1216.811,2389.878,1215.816,2389.977Zm3.966,13.373c-.669,1.1-3-.392,0,0Zm-1.129,21.319c-.851-.566,2.069-1.792,3.4-2.167C1223.5,2423.69,1219.662,2423.922,1218.653,2424.669Zm4.531,12.288c-.369-.239.241.154,0,0Zm0-22.766c-.369-.239.241.15,0,0Zm.567-2.891c1.781.566,1.537.737,3.967.361,1.052,1.994-3.6.356-3.4,1.806C1223.511,2412.986,1222.82,2411.86,1223.751,2411.3Zm1.133,3.973c-1.976-1.345,1.547-1.833,0,0Zm4.536,11.2c-.118,1.085-2.355-.342,0,0Zm-3.4-2.529c.326-.874,2.14-.8,3.4-1.082C1229.474,2423.98,1227.707,2423.942,1226.019,2423.946Zm4.536-10.479c.233.154-.374-.239,0,0Zm1.13,12.284c.238.154-.37-.235,0,0Zm.57-1.44c-.115,1.078-2.356-.348,0,0Zm3.4,5.782c-.369-.239.239.147,0,0Zm-1.7-33.61c-.289-1.017,1.014-3.055-1.7-2.529,2-1.359,3.137,1.109,5.1,0C1238.291,2394.9,1235.742,2396.132,1233.952,2396.483Zm6.8,12.288c-.37-.236.238.15,0,0Zm1.135-22.047c-1.184.154-1.5-.245-2.27-.361-.463-1.021.8-.935.57-1.806C1241.681,2384.687,1242.225,2385.428,1241.888,2386.724Zm2.267.366c-.825,1.2-1.411-1.413,0,0Zm1.7,2.887h-1.135v-.72h1.135Zm0-10.478c-.369-.236.238.15,0,0Zm4.537,46.976c.236.153-.374-.236,0,0Zm.565-48.062h1.135v.724h-1.135Zm2.267,60.711h-1.132v-.723h1.132Zm.564-7.225h-1.7c-.1-.789.463-1.151,1.7-1.086Zm-.564-5.059c.195-1.8,1.523-.631,2.834-.365C1256.154,2427.26,1254.045,2426.639,1253.223,2426.84Zm2.264-20.237c-.176-.641,3.177-.645,2.27.359C1256.574,2407.115,1256.255,2406.716,1255.487,2406.6Zm1.7,5.42c.693.158,1.164.461,1.133,1.082C1257.112,2413.273,1257.243,2412.59,1257.192,2412.023Zm4.531-7.229c-.369-.235.239.15,0,0Zm2.268,15.179c-1.9.873,1.37-1.212,0,0Zm-.567-15.179c-2.361-.809-3.29-1.792-6.8-1.085-.243-1.478.524-2.311,1.135-3.253,2.077,1.731.554-.884,2.267-.72,2.315-.109-.1.5.565,1.444,1.707.365,1-.806,1.134-1.444.8.031,1.607.058,1.7-.362C1266.75,2400.507,1267,2403.787,1263.424,2404.794Zm2.836,14.455c-.575-1.089,1.258-.638,2.264-.723C1268.388,2419.16,1267.55,2419.352,1266.26,2419.249Zm4.532,1.444Zm.564-1.806a3.749,3.749,0,0,0-1.7-.361c-.469-1.021.8-.936.57-1.806,2.7.546,1.408-.29,3.967-.362C1273.648,2417.457,1271.916,2417.8,1271.356,2418.887Zm3.967-37.221c.238.154-.369-.235,0,0ZM1335.4,2386c-.661-.542-1.638-.883-1.7-1.809C1335.47,2384.031,1335.513,2384.967,1335.4,2386Zm-6.8-6.147c.235.157-.373-.235,0,0Zm-14.17,42.645c-2.112.382-1.828-.761-2.832-1.086.091-.423,1.033-.3,1.7-.358v-1.085C1313.969,2419.222,1314.117,2421.83,1314.43,2422.5Zm-1.132-3.976c-1.783.6-2.318-1.342-2.835-.362C1308.231,2416.962,1314.4,2416.5,1313.3,2418.526Zm-2.27,3.252v1.086c-.913.1-.974-.342-1.7-.362.109-.294.57-.362.57-.724Zm-.565-19.875c-1.715,1.335-1.908-1.1,0,0Zm-1.134,13.731c-.113,1.082-2.356-.344,0,0Zm-28.334,9.759c-.956,1.277-1.775-1.181,0,0Zm0-9.4c-1.9.874,1.367-1.211,0,0Zm6.8-35.053c.771.112.471.9.568,1.447C1287.046,2382.291,1287.057,2381.427,1287.793,2380.943Zm5.1,26.742c-.115,1.086-2.352-.345,0,0Zm-.567-18.069c.139-.635.977-.823,2.267-.721C1294.46,2389.53,1293.622,2389.718,1292.327,2389.616Zm2.832,41.917c-.825,1.2-1.408-1.406,0,0Zm.57-4.335c.238.154-.375-.235,0,0Zm1.135-11.2c3.905.529,1.52,2.052,0,0Zm2.831,18.79c-1.713.56-1.49-1.867-.57-1.806C1301.168,2432.636,1300.134,2434.54,1299.695,2434.786Zm1.135-2.164c-.995-.2-1.231-2.918,1.135-2.171C1302.113,2431.509,1300.683,2431.564,1300.83,2432.622Zm1.7-32.166c.238.154-.37-.235,0,0Zm2.267,14.455c1.834-.447.431,1.174,2.264.723C1306.882,2416.4,1304.376,2415.717,1304.8,2414.911Zm2,4.11c-.009.023-.054.167-.111.344-.037.12-.085.28-.152.485-.011.041-.024.075-.037.123-.148.471-.075.232.037-.123.048-.157.1-.335.152-.485C1306.756,2419.143,1306.788,2419.041,1306.8,2419.021Zm3.1,17.936c.235.154-.375-.239,0,0Zm-3.967-12.646c-.244-.758.385-.959.565-1.447,2.12.092,3.166.87,5.1,1.082-.139-.444,2.056-1.5,4.532-.724C1313.145,2423.444,1309.286,2425.413,1305.932,2424.311Zm11.332,2.529c-2.9,1.843,1.269-2.522,0-.365C1317.224,2426.547,1317.342,2426.789,1317.264,2426.84Zm3.967,9.393h-1.7c.6-.338.174-1.331,1.7-1.082Zm7.369-44.085c-1.095.7-3.472.376-2.832-1.085C1327.387,2390.991,1328.857,2391.019,1328.6,2392.148Zm2.834-1.447c-3.667-.7-6.137-1.884-4.534-5.058.862-.652,3.886.068,3.4-1.448-.583-.833-3.792.014-3.4-1.443,7.178.57,3.852,1.443,6.233,4.338-.318.815-.883-.44-1.7.358C1333.728,2388.131,1331.761,2389.6,1331.434,2390.7Zm5.1,8.311c-1.707.366-1.009-.8-1.135-1.444h1.7C1337.338,2398.323,1336.712,2398.524,1336.535,2399.012Zm-1.135-7.949Zm-2.267,0c-.862-1.874,2.589-1,2.832-2.168.447-1.491-2.711-.682-2.264-2.171.9-.027,2.16.178,2.264-.361,1.191.809-.848,1.908,1.7,2.171A10,10,0,0,1,1333.133,2391.063Zm7.934,40.112c1.1-1.1,1.7-1.441,1.7-2.529,2.179.59-.069,2.123,1.129,2.887C1345.143,2431.936,1341.819,2431.093,1341.067,2431.175Zm3.4-3.615c-.118,1.082-2.356-.344,0,0Zm.564-35.774c1.248-1.1,3.629.417,0,0Zm.57,44.086h1.13c-.1.307.222.344.57.361C1347.528,2436.937,1344.72,2436.759,1345.6,2435.872Zm1.7-22.767c.239.154-.375-.235,0,0Zm3.967-16.622c.238.154-.375-.235,0,0Zm-.565,17.346h1.7c.241.754-.391.959-.567,1.444C1350.129,2415.638,1350.831,2414.467,1350.7,2413.829Zm.565,2.529c.246-.444.725-.744,1.7-.724C1353.234,2416.406,1352.161,2416.324,1351.27,2416.358Zm41.938-38.306c-.4,1.287.843-2.693,0,0Zm-5.669,12.649c-.369-.235.239.15,0,0Zm-9.633-12.649c.239.153-.374-.236,0,0Zm.565,1.8c-.115,1.086-2.353-.341,0,0Zm-1.132,7.233c-.915.1-.977-.345-1.7-.366C1375.415,2386.025,1378.217,2386.2,1377.339,2387.09Zm-.567,7.584c.238.154-.37-.235,0,0Zm-3.967-8.311h1.132c-.1.31.222.345.57.361C1374.73,2387.428,1371.922,2387.257,1372.805,2386.363Zm-1.7,15.9c-.953,1.28-1.775-1.178,0,0Zm-5.1,27.1c-.37-.238.238.151,0,0Zm-2.269-8.676c-1.716,1.338-1.906-1.1,0,0Zm-7.364-44.085h1.132v1.082c-.915.106-.977-.338-1.7-.359C1355.911,2377.038,1356.371,2376.97,1356.371,2376.608Zm.565,2.171c-1.719,1.334-1.908-1.1,0,0Zm-3.4,1.8c-.4,1.284.843-2.7,0,0Zm1.7,9.393c-.118,1.086-2.356-.344,0,0Zm1.134,27.828c-1.261.2-.808-.689-1.7-.723C1354.9,2416.181,1356.866,2417.058,1356.371,2417.8Zm-1.134,6.864h1.134c-.1.308.222.341.565.362C1357.161,2425.734,1354.353,2425.56,1355.237,2424.669Zm2.266-8.311c-1.675-.522.675-1.454,2.265-1.085C1360.677,2416.7,1357.321,2415.4,1357.5,2416.358Zm10.2,23.128c-.367-.515-2.92-3.5,0-3.614C1367.664,2437.7,1368.421,2437.94,1367.7,2439.486Zm1.7-4.7c-4.7,1.5-5.278-.249-7.933,1.447-.2-.959-2.109-.826-2.27-1.8,3.394.7,8.49.891,7.936-1.448C1369.232,2432.728,1369.641,2433.55,1369.406,2434.786Zm.565-9.393c.158-.744,2.111-.341,2.269-1.082.769.109.469.9.565,1.44A5.369,5.369,0,0,1,1369.971,2425.393Zm5.1,9.393h-1.7c.31-.522-.664-1.867.564-1.806C1375.84,2432.609,1374.82,2434.107,1375.072,2434.786Zm-2.267-7.588c.963-1.047,2.84.321,3.4.724C1375.024,2429.11,1373.817,2427.311,1372.805,2427.2Zm3.967-1.081h-1.7v-1.086C1376.544,2424.813,1377.109,2425.178,1376.772,2426.117Zm.567-27.1c.236.15-.372-.235,0,0Zm1.7,28.91c-.118,1.082-2.355-.345,0,0Zm0-1.447c-1.138.126-1.772-.075-1.7-.724h1.7Zm6.236-1.444h-1.7c.6-.338.176-1.334,1.7-1.085Zm0-30.357c-.118,1.085-2.355-.341,0,0Zm1.7,33.248c-1.408-.334-1.374-2.423,1.132-2.171C1388.712,2427.107,1386.7,2426.782,1386.975,2427.922Zm7.363,10.479c-1.181.153-1.5-.246-2.262-.362C1392.175,2437,1394.769,2437.172,1394.338,2438.4Zm1.7-14.455c.233.153-.375-.236,0,0Zm159.821-30.716c.155.587-.538.625-.57,1.086C1554.194,2394.459,1554.47,2392.67,1555.864,2393.23Zm-.57-14.451c-.113,1.078-2.355-.352,0,0Zm-1.7,19.148c1.234.757-.281,1.03,0,2.171h-1.7C1551.87,2399,1551.566,2397.719,1553.594,2397.927Zm0,4.338c-.372-.235.241.15,0,0Zm-2.267-4.7c-.369-.239.239.151,0,0Zm2.832,19.514c-1.523,1.058-2.2.31-3.966,0C1551.557,2416.317,1553.209,2417.02,1554.159,2417.082Zm-9.633-36.5c.447,1.39-2.711,1.39-2.267,0Zm-.564-3.253c-.7.639-.418,1.905-1.7,2.168-1.552-.639,1.973-1.529-.565-2.168C1541.828,2376.4,1542.666,2377.826,1543.962,2377.331Zm-18.137.359a4.431,4.431,0,0,1-3.4,1.447C1522.388,2377.905,1524.134,2376.72,1525.825,2377.69Zm-22.67,22.046c-1.186.153-1.5-.249-2.267-.362-.238-.754.386-.959.57-1.447C1503.224,2397.763,1503.264,2398.7,1503.155,2399.736Zm-1.132,27.1c-.827,1.195-1.413-1.413,0,0Zm-.565-21.684c-1.9.874,1.368-1.212,0,0Zm-.57-13.008c-1.234.065-1.8-.3-1.7-1.085C1499.716,2391.448,1501.279,2391.172,1500.888,2392.148Zm-1.7,5.779c.236.154-.372-.236,0,0Zm0,2.529c-.607.338-.176,1.335-1.7,1.089C1497.385,2400.753,1497.952,2400.4,1499.188,2400.456Zm-2.267-2.168a1.583,1.583,0,0,1-1.134-1.805C1498.134,2395.34,1498.859,2397.821,1496.921,2398.288Zm.568,28.552c-.161.836-1.515.83-2.267.358C1495.4,2426.707,1496.638,2426.9,1497.489,2426.84Zm-2.837-27.1c-1.325-.093-.324-1.587,0-1.809C1495.982,2398.022,1494.983,2399.514,1494.652,2399.736Zm1.705,24.933c.8.444,1.284,1.379.564,1.806C1495.144,2426.226,1496.183,2425.512,1496.357,2424.669Zm-1.135-27.824c-.918.1-.977-.342-1.7-.362C1493.3,2395.783,1496.1,2395.954,1495.222,2396.845Zm-1.7,27.1c.236.153-.372-.236,0,0Zm1.13,3.614c-.477.536-1.825.523-2.832.724-1.066-.69.337-.655,0-1.809C1494.392,2425.8,1492.594,2427.912,1494.652,2427.56Zm-2.265-2.891c-1.185.154-1.5-.245-2.267-.358C1490.142,2422.618,1493.131,2422.5,1492.387,2424.669Zm-2.267-4.334v-.724h1.135v.724Zm2.267,1.081c-.115,1.083-2.352-.344,0,0Zm-1.132-24.571c1.443.034,1.339,1.345.565,1.806C1490.838,2398.323,1490.356,2397.384,1491.255,2396.845Zm-1.7-2.171c-.118,1.085-2.356-.341,0,0Zm.564,19.879a1.811,1.811,0,0,1,1.135,2.887c-2.291.137-2.221-1.236-3.4-1.806C1487.61,2414.638,1489.965,2415.3,1490.12,2414.553Zm-2.267-6.868c-.457,1.335-2.334.3-3.4,0C1484.69,2406.883,1487.459,2407.4,1487.853,2407.685Zm-2.264-5.42c-2.495,1.324-2.154-1,0,0Zm2.264,20.6h1.133v.723h-1.133Zm0-26.019c-2.933,1.437-2.192-1.881,0,0Zm-2.264.723a1.5,1.5,0,0,0,1.129.72c-.4,1.308-3.086,1.168-2.834,2.892C1481.786,2400.968,1483.255,2397.312,1485.589,2397.568Zm-2.27,6.506c-.372-.239.235.15,0,0Zm-.567-16.264Zm.567,9.758c-2.6-.242.452-2.188,0,0Zm-3.967-18.789c-1.723.986,1.548-1.1,0,0Zm.566,6.137c.941.71-.421,2.136-2.265,2.174C1478.207,2386.237,1477.838,2384.8,1479.918,2384.916Zm-.566,8.314c.239.154-.371-.235,0,0Zm-1.134,10.844c-.373-.239.241.15,0,0Zm-1.7-8.676c.265.774-.814.689-1.7.723C1475.065,2395.678,1475.541,2395.38,1476.521,2395.4Zm-10.2-4.7c-1.9.874,1.367-1.212,0,0Zm.564,8.673q-1.9-.235-2.264-1.447C1465.9,2397.1,1466.679,2398.449,1466.882,2399.374Zm-2.264-14.458c-1.9.877,1.368-1.209,0,0Zm1.13,2.894c-1.438-.044-2.2-.526-2.265-1.447A1.475,1.475,0,0,1,1465.748,2387.81Zm-4.532,7.588c2.024-1.287-2.812,1.792,0,0Zm-15.869-8.674c.2-.47,1-.566,1.135-1.081a6.354,6.354,0,0,1,1.7,2.167h-1.7C1446.672,2387.083,1446.365,2386.68,1445.347,2386.724Zm1.135-5.781c1.338.532.637,2.792-1.7,2.167C1445.326,2382.373,1445.938,2381.68,1446.482,2380.943Zm-1.7,22.407c-1.9.874,1.368-1.215,0,0Zm-.57,1.083c3.635-.356,4.558,1.7,6.8.723,1.4.935-.551,1.775,0,3.253-3.3-.6-4.1-2.007-7.365-1.086C1444.5,2406.4,1445.248,2405.668,1444.212,2404.433Zm5.667-.359c-.67,1.1-3-.4,0,0Zm-.565,5.778c-1.408,1.41-.824-1.2,0,0Zm-5.1-1.443c-.369-.239.241.15,0,0ZM1443.08,2386c-.369-.239.238.151,0,0Zm-.565,25.3c-1.726.017-3.733.208-3.4-1.085C1440.829,2409.7,1442.384,2409.917,1442.515,2411.3Zm-3.4-2.529c-.369-.236.241.15,0,0Zm1.135,2.89c.04,1.021-2.912.67-2.832-.361C1439.017,2411,1438.88,2411.808,1440.246,2411.661Zm-1.7,5.421c-.372-.236.241.15,0,0Zm-1.132-1.448c-.18.769-2.688.083-2.27-.723C1436.93,2414.5,1436.523,2415.481,1437.414,2415.634Zm-3.4-31.077h1.134c-.1.307.222.345.57.359C1435.939,2385.622,1433.134,2385.448,1434.01,2384.557Zm-1.13-3.973c-1.41,1.407-.83-1.2,0,0Zm0,10.117c2.125-.27,1.234,1.383,2.834,1.447a5.614,5.614,0,0,0-2.834.721c1.07.641,2.508,1.054,2.264,2.529-2.446,2.2-6.078.143-6.231-2.168C1430.752,2392.718,1433.616,2392.855,1432.88,2390.7Zm-2.267,6.144c-1.414,1.41-.827-1.2,0,0Zm-3.967-6.506h2.267C1429.358,2391.732,1426.2,2391.732,1426.646,2390.339Zm.565,12.646c-1.234.068-1.8-.293-1.7-1.082Q1427.37,2401.805,1427.211,2402.985Zm-1.7,6.867c1.373-1.184,2.705,1.007,0,0Zm-2.268,1.086h1.132v.723h-1.132Zm-1.7,4.7c1.124-2.86,3.567,1.294,0,0Zm-1.135-23.124c.16.58-.535.618-.565,1.082C1418.745,2393.735,1419.015,2391.947,1420.41,2392.51Zm-20.971,10.117c-.369-.239.241.153,0,0Zm1.135-7.229c1.778,1.191-1.394,2.249,0,0Zm1.135,19.513c-.112,1.085-2.356-.342,0,0Zm1.135-30.354c-.485.065-.535-.14-.57-.362v-.72c.808.028,1.608.058,1.7-.365C1405.51,2383.438,1402.68,2383.919,1402.844,2384.557ZM1415.308,2429c.238.154-.369-.236,0,0Zm2.27-20.233-.026-.017.045.028Zm1.7-8.315c-.824,1.2-1.408-1.406,0,0Zm2.27,26.019c-.669,1.1-3.009-.389,0,0Zm4.531,1.447c-2.593-.242.458-2.188,0,0Zm6.8,2.529c-.7-.873-3.014-.727-2.832-2.167C1431.713,2428.52,1433.908,2429.615,1432.88,2430.451Zm-2.267-3.976c.238.153-.375-.236,0,0Zm13.035,3.976h-1.133v-1.082a3.713,3.713,0,0,0,1.7.359C1444.1,2430.021,1443.645,2430.09,1443.648,2430.451Zm1.134-3.253c-.918.1-.976-.341-1.7-.358.107-.293.568-.362.568-.723h1.134Zm-.57-1.447c-1.18.157-1.5-.245-2.267-.358-.447.14-1.126,2.382.57,2.891-1.718.45-2.674-.43-6.236,0,.522-1.536-1.357-1.546-3.4-1.444-.455-.839-1.815-2.055-.568-2.894-1.809-.212-1.753.679-2.834,0,.766-2.666-6.161-3.427-7.366-2.53-2.719-.433-3.062-2.385-3.4-4.334,5.615-.205,13.684,1.065,6.8-3.615,1.5-1.45,3.846-2.365,6.8-2.891.169-.952-2.2-.283-1.7-1.444,1.932,1.106,2.9.379,5.1,0-.026,1.454.391,4.67-3.4,5.421-.16-.587.533-.625.568-1.086h-2.832c-.3,2.925-.369,4.28,2.264,6.506-.918-.594-3.559-.437-3.4.72,1.039.758,7.981-1.894,8.5.723a4.671,4.671,0,0,0,2.267-1.443c-2.633.351-3.423-.471-5.1-.724.122-1.321.779-1.386,0-2.529,1.664,1.45,3.289,2.263,5.666.72-.391,2.181.23,3.71,3.966,3.253-1.312,1.652-2.425,1.365-2.267,3.618,3.055.055.335-1.478,1.7-2.171a11.816,11.816,0,0,0,2.834,1.447C1446.2,2424.611,1443.519,2424.106,1444.212,2425.751Zm-11.332-8.669Zm-.568-1.086c-.669,1.1-3.008-.392,0,0Zm14.735-7.225c-1.371,1.621.42-.5,0,0Zm1.7,25.295c-1.41,1.41-.83-1.2,0,0Zm1.13,2.891h-1.13v-.724h1.13Zm.57-26.019c-.37-.239.238.153,0,0Zm3.4,28.548h-1.7c.607-1.352-1.409-1.031-1.136-2.167C1452.74,2437.541,1453.912,2438.121,1453.851,2439.486Zm-.571-13.735h-1.131v-.72h1.131Zm.571-22.042c-2.647-.3-6.036-1.686-6.8.365-2.246-.669-.988-3.42-.565-4.338a5,5,0,0,1,4.531,0c.552-1.314-2.759-.167-1.7-1.809,1.86.587,2.168-.079,4.537,0,.168.956-1.186.932-2.268,1.085,1.847.6-1.6,3.43,3.4,3.253C1454.685,2402.8,1454.142,2403.176,1453.851,2403.709Zm1.7.365c-.375-.239.238.15,0,0Zm1.135-11.926c1.547,1.1-1.727-.986,0,0Zm.565,15.9c2.219.051,2.261,1.232,4.537.362.31.641.286,1.5,1.129,1.806-2.974,1.02-1.448.924-3.969,3.614C1456.755,2412.938,1457.354,2410.273,1457.25,2408.047Zm1.7,9.758c-.113,1.082-2.35-.348,0,0Zm-1.133,5.059c.747.126.894.634,1.7.723C1459.286,2424.488,1457.319,2423.608,1457.814,2422.864Zm3.4,6.864Zm5.1-.359c-2.9,1.847,1.269-2.522,0-.365C1466.278,2429.076,1466.4,2429.315,1466.318,2429.369Zm2.267,6.141c.236.153-.372-.236,0,0Zm-2.837-12.646c-1.585-.355.827-.966-.565-1.448-3.1.144-1.86,1.653-1.7,3.253-3.832-1.215-1.924-4.034-4.536-4.7.23-1.058,1.482-1.465,2.269-2.168a7.205,7.205,0,0,1,3.4,1.082c.768-.109.469-.9.565-1.447,1.611.659,2.069,2.058,3.966,2.533C1468.6,2421.307,1467.049,2422,1465.748,2422.864Zm8.5-14.817-.059-.038C1474.27,2408.058,1474.376,2408.125,1474.251,2408.047Zm1.135,13.369c-1.413,1.41-.827-1.2,0,0Zm.564-3.252c-2.654-.307-.577-1.389-1.7-2.53,2.778.325,2.663-1.191,5.667-.723C1480.03,2416.911,1476.936,2416.867,1475.95,2418.164Zm5.1-25.3c-1.772-.465-.291-.748-1.134-1.806C1482.2,2391.008,1481.416,2391.988,1481.052,2392.869Zm.57,1.805c.233.154-.375-.235,0,0Zm0-1.444c.233.154-.375-.235,0,0Zm3.967,18.431a1.721,1.721,0,0,1,.565,1.806c-2.513.065-3.589.655-3.967-1.085A18.462,18.462,0,0,1,1485.589,2411.661Zm-2.27,17.343c-.182-.847-.894-1.355-.567-2.529,2.872-.215,4.783-1.048,5.669-2.529,1.991.42,1.734,2.266,1.7,3.976C1487.179,2427.857,1486.761,2429.393,1483.319,2429Zm4.534,10.12c-.736-1.966-.324-5.939,5.1-4.338C1490.1,2436.237,1492.757,2438.981,1487.853,2439.124Zm7.934,0h-1.135v-.723h1.135Zm5.1-5.058c.246-.444.725-.744,1.7-.724C1502.339,2433.786,1501.862,2434.083,1500.888,2434.066Zm-3.4-1.086c-2.455-.412-1.4-1.187-3.967-1.081.862-1.622,4.489-1.475,4.532-3.615,1.547.577,2.108,1.785,4.533,1.809C1501.769,2432.858,1498.128,2431.4,1497.489,2432.98Zm5.666-7.229.049.032C1503.151,2425.749,1502.876,2425.575,1503.155,2425.751Zm2.834-44.808c2.867,7.219-8.061,2.747,0,0Zm1.135,29.633c.233.15-.374-.235,0,0Zm1.132-25.66c.236.157-.372-.236,0,0Zm1.7,39.4c-.375-.239.238.147,0,0Zm.886,14.445c-.211-.236-.522-.574-.567-.628.021.02.093.1.246.273.139.153.243.266.321.355Zm2.516-53.84c1.191.884,2.516-.318,3.4.365v1.443C1514.793,2386.653,1513.072,2386.424,1513.358,2384.916Zm2.264,12.291c-.112,1.081-2.355-.348,0,0Zm7.933,33.606a9.049,9.049,0,0,1-3.966-1.809c-1.2.734-.991,1.884-2.832,2.9.129.518,1.689.122,1.7.723.581,1.212-1.762.563-2.835.72-.243-.689-1.22-.908-1.135-1.809,1.414.058,1.756-.566,2.838-.72.331-1.536-3.062-.7-2.268-2.529,1.352-.99,3.63.706,5.1-.362.222-.867-2.58.2-1.7-1.082h3.4c-1.616,2.956,4.037,1.28,3.4,3.611C1523.952,2429.734,1524.629,2430.544,1523.555,2430.813Zm1.7,6.144c-2.16,1.376,1.978-1.263,0,0Zm1.13,1.8c-.217.141,1.708.389,1.7.362C1528.25,2439.7,1525.031,2439.63,1526.39,2438.762Zm-4.532-50.594v-1.8c-1.948.416-3.4-1.358-5.666-1.806.008-1.075-.056-2.2,1.7-2.167-.337-1-2.84-1.7-1.135-2.891,1.307-.113.629,1.044,1.7,1.085-.07-.365.559-2-2.265-1.8.126-1.485,2.763-1.373,5.1-1.448.042.57-.276,1.376.564,1.448-.066.679-1.873.249-1.7,1.078,1.967.673,2.3,2.39,3.967,3.253.912.1.974-.338,1.7-.358-2.09-.089-1.057-.765-3.4-1.809,2.293-1.021,4.7-.55,5.1-2.164,1.638.157,2.585.757,2.831,1.8a4.569,4.569,0,0,1-2.264.359c-.581,1.457.884,1.607,1.7,2.167.974.024-.616-1.857,1.7-1.805-.975,1.788,2.175,3.2,4.536,3.976-1.483.635-1.552,2.382-3.966,1.443-.084,1.137,1.45,1.243,2.832,1.444q.448,2.463-3.4,2.171c.468-1.024-.8-.935-.566-1.805C1527.458,2390.308,1526.085,2387.875,1521.858,2388.168Zm14.17,10.483c-.067.682-1.879.252-1.7,1.085C1532.615,2399.3,1534.412,2398.156,1536.028,2398.651Zm-5.672,21.684c1,.085,1.3.621,1.136,1.443C1529.786,2422.143,1530.488,2420.973,1530.356,2420.335Zm1.706,18.066c-1.191-.775-1.373-.758-1.706-2.529a5.428,5.428,0,0,1,2.838-.362C1532.126,2436.039,1533.124,2437.878,1532.062,2438.4Zm-.57-32.521v-1.086c1.471-.218,2.042.147,1.7,1.086Zm2.266,9.393c-1.959-1.174,2.158-1.925,2.835-.72C1536.85,2415.556,1533.5,2414.269,1533.758,2415.273Zm1.7-4.7c4.033.8,7.291,2.1,7.936,5.058C1539.569,2415.553,1534.173,2413.675,1535.458,2410.576Zm9.068-11.564c-.824,1.2-1.407-1.409,0,0Zm1.135-14.1c-2.363.184-2.719-.912-2.835-2.164C1545.473,2382.39,1546,2383.383,1545.661,2384.916Zm3.4-7.226c1.852,2.177-.005,2.15-2.267,3.253C1544,2379.925,1545.661,2377.608,1549.063,2377.69Zm2.264,59.267c-.112,1.082-2.355-.345,0,0Zm1.7-.362c.235.15-.372-.236,0,0Zm2.264,1.085h-1.135v-.723h1.135Zm0-2.529c-.369-.238.238.151,0,0Zm0-13.011c-.642-.068-.313-.362,0-.362-.511-.874-1.673.819-3.4.362-.784-.464-.561-1.567-.57-2.529-1.734-.263-1.665.624-3.4.362.354-1.1,1.258-1.847,3.4-1.809-.251,2.055,2.12.337,3.4,1.085-.11-.293-.57-.358-.57-.723C1554.793,2418.276,1556.745,2420.529,1555.294,2422.14Zm1.135-5.42h-2.27c-.046-.574.276-1.379-.565-1.447C1554.012,2414.685,1556.812,2415.6,1556.429,2416.72Zm1.135,10.478c.233.154-.375-.235,0,0Zm0,.724c.238.154-.375-.235,0,0Zm1.132-4.335h-1.132v-.723h1.132Zm88.413-23.489c3.82-.318-.318,2.321,0,0Zm.566-21.319c-.953,1.276-1.77-1.181,0,0Zm-4.535,5.416c2.238.738,4.51,1.458,5.1,3.253C1644.345,2388.4,1639.366,2387.94,1643.14,2384.2Zm3.4,10.121v.723h-1.134v-.723Zm-5.095,1.082c-.958,1.276-1.775-1.178,0,0Zm-6.807-5.782c1.609.061,1.108-1.222,3.4-.721-.656,2.113-2.61.888-5.1.721C1633.066,2389.155,1634.629,2389.144,1634.637,2389.616Zm-3.4,13.734c-.139.635-.976.823-2.269.724C1628.4,2402.985,1630.237,2403.432,1631.24,2403.35Zm-13.037-18.793c-.824,1.2-1.41-1.406,0,0Zm-7.368-4.7c.029,1.707-1.828,2.208-1.7,3.98C1605.843,2382.718,1609.135,2380.768,1610.835,2379.857Zm-10.2,14.459c1.012-.045,1.194.443,2.265.358-.07.921-.828,1.4-2.265,1.447Zm-3.4,2.529c.239.153-.374-.236,0,0Zm0,7.229c-.374-.239.239.15,0,0Zm-.565,5.417c.233.153-.374-.236,0,0Zm-20.97-26.016c.235.15-.375-.235,0,0Zm-15.3,27.1c-1.207.167-1.078-.515-1.134-1.085C1559.962,2409.651,1560.425,2409.955,1560.4,2410.576Zm0,11.2c-.952,1.28-1.769-1.177,0,0Zm.57,1.809c-.885,1.707-2.813.478,0,0Zm0,14.452c.244-.44.721-.741,1.7-.72C1562.93,2438.087,1561.851,2438.008,1560.965,2438.039Zm-.57-53.844a1.714,1.714,0,0,1,.57-1.805h2.265C1564.349,2383.68,1562.668,2384.131,1560.4,2384.2Zm3.4,54.206c.236.153-.372-.236,0,0Zm5.666-1.806c-.95,1.28-1.771-1.177,0,0Zm-1.134-45.532v-.724h1.134v.724Zm1.7,47.7c-.112,1.086-2.35-.344,0,0Zm0-3.611c-.369-.238.241.151,0,0Zm.57-25.3c-.117,1.083-2.355-.344,0,0Zm.565-22.042c-3.646-1.318-2,1.243-4.531,1.447.53-1.59,1.18-3.106,3.966-3.253A1.723,1.723,0,0,1,1571.163,2387.81Zm1.7,3.611c.236.154-.372-.235,0,0Zm2.835,39.03c1.137,1.345-.573,2.274.564,3.615C1573.176,2434.025,1571.283,2430.37,1575.7,2430.451Zm0-2.167c-1.295-.5-.434-2.656,1.7-2.167C1577.424,2427.216,1576.2,2427.519,1575.7,2428.284Zm1.7-9.758c-.118,1.082-2.356-.345,0,0Zm2.831.361c-1.26-.522-2.955-.768-2.831-2.167C1579.442,2416.744,1580.418,2417.443,1580.231,2418.887Zm-.565-19.151c.675-2.485,2.9-1.929,2.835-5.062C1585.892,2395.732,1583.66,2400.691,1579.666,2399.736Zm4.532,34.33a2.16,2.16,0,0,1-1.132-3.253c1.833-.447.433,1.171,2.266.72A9.985,9.985,0,0,1,1584.2,2434.066Zm2.27-19.513c.232.15-.375-.236,0,0Zm2.832-1.086c-.135.635-.972.823-2.268.724C1587.172,2413.552,1588.009,2413.365,1589.3,2413.467Zm-1.7,3.973c2.374-.775,5.377,1.144,6.8,2.171C1591.716,2419.154,1588.836,2418.822,1587.6,2417.44Zm7.366-10.478c-.951,1.28-1.767-1.178,0,0Zm3.4,12.287c-.078,2.857-4.484.051,0,0Zm3.969-11.564c-1.17-.461-2.878-.577-2.835-1.805A3.319,3.319,0,0,1,1602.337,2407.685Zm-2.27,0h1.134v.724h-1.134Zm1.134,18.432Zm2.268-12.288c-.747-.369-2.09-.355-2.832-.724-.158-1.5.742-1.406,0-2.529C1602.344,2409.771,1605.487,2412.255,1603.469,2413.829Zm1.7-36.139c1.287.758,2.454,1.809,1.7,2.894H1604.6C1605.476,2380.059,1605.1,2378.734,1605.169,2377.69Zm1.7,9.034c-.827,1.2-1.408-1.409,0,0Zm0,28.91c-1.651.533-1.651-1.614,0-1.081Zm0-3.611Zm.57-27.828h1.132a1.378,1.378,0,0,0-.567,1.086C1606.825,2385.079,1606.8,2384.718,1607.438,2384.2Zm.565,6.144h1.7v.724C1608.568,2391.186,1607.928,2390.991,1608,2390.339Zm1.7,31.077a1.585,1.585,0,0,1-1.13-1.8C1610.848,2419.556,1610.069,2420.539,1609.7,2421.416Zm1.705,13.012c-.118,1.082-2.356-.348,0,0Zm.565-56.738c-.953,1.28-1.77-1.178,0,0Zm4.536,56.376c-2.465,0-2.43-1.587-3.405-2.533,1.17-1.952,3.365-1.4,4.535-1.082C1617.43,2430.472,1620.1,2432.192,1616.506,2434.066Zm2.262-29.633c-.367-.236.241.153,0,0Zm.57-4.335c.744.126.891.635,1.7.723-1.507,1.7-.635,2.137.564,3.612C1616.214,2403.357,1618.618,2401.985,1619.338,2400.1Zm5.666,38.664h-1.135v-.723H1625Zm-1.7-9.393c-.916.1-.977-.344-1.7-.365-.278-1.137,1.02-1.273.57-2.529,1.871-.591,3.341.266,3.4,1.809C1623.754,2427.97,1623.8,2428.84,1623.305,2429.369Zm0-6.5Zm2.264-5.424c.238.154-.369-.235,0,0Zm5.671-7.225c-.117,1.085-2.355-.345,0,0Zm.565.361c-.134-.635-.974-.822-2.269-.724-.394-1.112-.394-.692,0-1.8-2.677.341-3.954,1.573-6.8,1.8.455-3.263-.305-4.935-1.135-7.225,3.137-.072,3.6,1.559,6.8,1.447-.752,1.055.362,1.864,0,3.611,1.183-.208,1.617-.894,3.4-.723-.235,1.6,2.037,1.593,2.267,2.89C1631.045,2409.467,1634.147,2410.75,1631.805,2410.576Zm2.267-15.178c-1.493.109-1.86-.5-1.7-1.444C1633.863,2393.845,1634.233,2394.452,1634.072,2395.4Zm3.4-.359c-1.434-.409-1.643-1.6-1.7-2.891C1637.946,2392.418,1639.313,2394.22,1637.471,2395.039Zm-1.129,10.117c.233.153-.375-.239,0,0Zm1.7-1.447c1.2.116.123,1.713-1.132,1.447C1636.494,2404.17,1638.031,2404.429,1638.039,2403.709Zm1.135,11.925c-.956,1.28-1.772-1.177,0,0Zm-2.267-6.863c1.7-.366,1,.8,1.132,1.444A1.547,1.547,0,0,1,1636.907,2408.771Zm2.267,27.462c-3.319-.481,2.05-1.706,0,0Zm.564-32.883c.2-1.621,1.944-1.457,3.4-.723,1.727-.444-.829-1.379.565-1.806,1.365-.15,1.236.659,2.834.359C1645.613,2403.2,1643.189,2404.808,1639.738,2403.35Zm2.835,24.21h-1.129v-.72h1.129Zm.567-12.649c.656.061,1.009-.079,1.136-.358,1.956-.495,2.668,1.621,3.966.358,2.133,1.788-.907,2.492,1.135,4.338C1645.437,2418.99,1642.672,2417.983,1643.14,2414.911Zm18.134-34.689c-.113,1.083-2.35-.348,0,0Zm-7.366,6.141c1.817,1.01,5.136,1.065,4.534,3.614a12.872,12.872,0,0,1-4.534.724C1652.187,2388.37,1654.612,2388.773,1653.908,2386.363Zm0,37.948c-.915.1-.977-.345-1.7-.365C1651.984,2423.246,1654.791,2423.42,1653.908,2424.311Zm-2.267-4.338c-.369-.239.239.15,0,0Zm3.967,8.673v1.447c-2.233-.044-1.735-1.573-3.967-.724C1651.183,2427.994,1654.32,2428.909,1655.608,2428.646Zm0,6.864Zm1.135-1.806c-1.5-.727-3.681-1.02-3.964-2.522-.153,0-.174-.014,0-.007l0,.007a7.264,7.264,0,0,0,3.4-.731C1657.8,2431.362,1656.994,2432.858,1656.743,2433.7Zm5.1,4.7c-1.33.116-2.13.573-3.969.361,1.038-.9.452-2.843,3.4-2.529C1661.927,2436.66,1661.916,2437.51,1661.844,2438.4Zm6.233-13.37c1.028.942-.246,1.089.566,2.167-2.155.205-3.255,1.3-5.1.724C1662.73,2425.478,1665.581,2425.366,1668.077,2425.031Zm-4.536,6.144c.883,1.283-1.924.218-1.7,1.082C1660.313,2431.936,1662.1,2430.792,1663.541,2431.175Zm-2.832.724c-.112,1.078-2.355-.349,0,0Zm.565,1.081c.078.953,2.259,2.178-1.129,2.53,1.059-1.639-2.252-.492-1.7-1.806.482-.065.533.144.567.362.667-.058.479-.662.566-1.086Zm-2.832-46.256c-.222-.7,2.58-.528,1.7.366C1659.226,2387.189,1659.168,2386.745,1658.442,2386.724Zm1.7,16.261c1.016-.041,1.194.444,2.264.365C1662.647,2405.487,1658.038,2404.586,1660.145,2402.985Zm2.264-13.369Zm1.132-4.335c-.367-.236.241.15,0,0Zm0,16.622c.249-.443.728-.741,1.7-.723C1664.994,2401.627,1664.515,2401.924,1663.541,2401.9Zm1.7-6.14c-1.413,1.406-.83-1.2,0,0Zm.565-1.447v-1.086h1.7C1667.615,2394.019,1667.045,2394.381,1665.811,2394.316Z" fill="#d44150"/>
    <path id="Path_49220" data-name="Path 49220" d="M293,2439.5h1.46a14.519,14.519,0,0,1-1.46-2.632Z" fill="#d44150"/>
    <path id="Path_49221" data-name="Path 49221" d="M1255.93,2439.5h4.913c-.209-.5-.056-1,.88-1.461A7.9,7.9,0,0,0,1255.93,2439.5Z" fill="#d44150"/>
    <path id="Path_49222" data-name="Path 49222" d="M1648.242,2438.762c-.554-.742-2.968-.255-2.927.738h2.056a.812.812,0,0,1-.262-.738Z" fill="#d44150"/>
    <path id="Path_49223" data-name="Path 49223" d="M1052.03,2377.331a3.465,3.465,0,0,0,.387-.831h-2.12A4.108,4.108,0,0,0,1052.03,2377.331Z" fill="#d44150"/>
    <path id="Path_49224" data-name="Path 49224" d="M1167.022,2439.5h.05l.007-.014Z" fill="#d44150"/>
  </g>
</svg>
