<svg xmlns="http://www.w3.org/2000/svg" width="1377" height="63" viewBox="0 0 1377 63">
  <g id="Group_3182" data-name="Group 3182" transform="translate(-293 -1027.5)">
    <path id="Path_57423" data-name="Path 57423" d="M1670,1067.641V1027.5H1558.922c.194.631,1.017,1.525-.226,1.913a8.231,8.231,0,0,1-2.422-1.913h-7.222a.911.911,0,0,1,.011.108,2.892,2.892,0,0,1-1.024-.108h-2.1a8.271,8.271,0,0,0,.284,1.19,3.68,3.68,0,0,1-1.886-1.19H1431.345a4.193,4.193,0,0,1,2.1,2.637c-1.074.717-2.677.174-3.967,0-1.228-.061-.257,1.28-.565,1.806-4.389-.543-5.114,2.887-8.5,1.809a1.536,1.536,0,0,0,.57-1.447c3.453,2.088.517-1.908,2.832-2.892a3.808,3.808,0,0,1-2.063-1.913h-22.5a9.153,9.153,0,0,1,3.6,5.166c-3.8.192-4.482-5.149-8.963-5.166h-.324a6.608,6.608,0,0,0-.916.108c.057-.04.112-.071.168-.108h-39.391c.039.036.075.064.119.108-.428.617-.786.225-.844-.108H1351a1.573,1.573,0,0,1-.862.831c-.94.13-1.25-.293-1.265-.831h-86.257c.007.729,1.33,1.09,2.512,1.552-.6,1.02-2.245.45-1.134,1.805-2.532-.187-3.579-1.328-6.234-1.444a24.21,24.21,0,0,0,3.927-1.913H1074.611c-.061,1.319-.346,2.826-2.742,1.913,2.6-1.252-.683-.8-1.705-1.082a11.814,11.814,0,0,0,1.758-.831h-2.816c.154.751-.852.764-.642,1.552-.837-.188-1.429-.533-2.267-.721a2.941,2.941,0,0,1,.92-.831H1054.21a5.492,5.492,0,0,1-.48,3c-5.9.1-1.806-2.147-6.233-1.086a1.714,1.714,0,0,1-.566-1.8c1.2.074,1.665.493,1.719-.108H986.289v.47h-1.134v-.47h-3.136a2.643,2.643,0,0,1-1.966.47,1.293,1.293,0,0,0,.083-.47h-3.458c.035.907-1.009,1.126-.592,2.279-1.687.152-1.2-1.608-.237-2.279H930.886c-.32.947-1.2,2.11-1.272,3h-1.7a11.975,11.975,0,0,1,.307-3h-1.633a1.584,1.584,0,0,1,.191.47,8.7,8.7,0,0,1-2.178-.47H912.228c.794.591,1.164,1.321.384,1.913a40.943,40.943,0,0,1-5.057-1.913h-.863c-.259.406-.421,1.076-2.015,1.19.2-.392.366-.808.582-1.19h-88.25c-.061.035-.109.077-.176.108a2.591,2.591,0,0,1-.443-.108h-43.2v1.552h-1.7c-.067-.631-.073-1.222.33-1.552H740.995a2.987,2.987,0,0,1-2.231,0h-7.731c-.163.125-.346.237-.345.47,1.494-.11,1.459.754,1.7,1.443-1.365-.146-1.234.663-2.835.366-.487-1.154.894-1.12,1.135-1.809h-1.135a.411.411,0,0,1,.075-.47H683.6c-.5,3.969-5.24,6.118-10.159,5.166,1.768-.979,1.343-3.272,2.108-5.166H626.12c.5.261,1.374.283.855,1.19-5.537,2.656-8.633,1.109-8.746-1.19H581.775a1.678,1.678,0,0,0-.14.47c-1.017.044-1.2-.441-2.267-.362.015-.04.046-.069.062-.108H565.8l-.015.05-.018.058-.061.194.079-.252.015-.05h-46.09c1.37,1.84,1.48,3.758-2.683,4.805-1.068-.639.776-1.12-1.132-1.448-.461.072-.565.365-1.135.365,1.049.693,1.038.284.568,1.444h-1.7c-.876-1.975-1.874-2.91-1.2-5.166h-.877c-1.568.642-1.784,2.146-3.589,2.637,2.039-1.645-2.388-1.191-.565-2.529-.1-.044-.188-.076-.279-.108h-1.886a1.343,1.343,0,0,1-1.113,0H463.388a5.31,5.31,0,0,1-3.035.831v2.526c-1.849-.648-3.077-1.7-3.344-3.357H422.32c.025.038.033.069.061.108a5.133,5.133,0,0,1-4.119-.108H370.626c.061.276.117.556.181.831-2.974.274-2.337,2.847-3.4,4.335-2.064.352-.265-1.757-2.835-1.082.792-1.061-.3-1.556,1.7-2.171-.514-.87-3.2-.15-3.4.366-.645-.072-.316-.366,0-.366-1.118-.69-1.61-1.337-1.692-1.913H306.153a5.636,5.636,0,0,1-.52,3h-1.7c.626-1.145.068-2.222.44-3H293v39.7a.39.39,0,0,1,.163.518H293v19.443c1.125-.257,1.476-1.009,3-1.012-.731,1.263-.2,3.248-.041,4.349h62.931c.006,0,.01-.01.016-.014l.01.014h9.466a5.493,5.493,0,0,1,2.994-1.1.751.751,0,0,0-.083,1.1h84.354c.221-.422.515-.969.174-1.461.744.13.891.638,1.7.723-.327.28-.775.482-1.138.738H467.2c-.546-.174-.972-.31-.041-.014l.043.014H588.432c.155-.388.983-.348,1.7-.376a1.241,1.241,0,0,1-.341.376H789.061v-.376H790.2v.376h64.611a.508.508,0,0,0-.57-.376c-.1-.307.219-.341.565-.362h1.135a.805.805,0,0,1-.086.738h15.592c.551-.815,1.882-1.133,3.2-1.461a8.022,8.022,0,0,1-.237,1.461h11.013a1.376,1.376,0,0,0-.006-.376,1.353,1.353,0,0,1,.91.376h30.015c.056-.093.177-.122.387,0h24.016c-.108-.252-.326-.434-.922-.376a1.416,1.416,0,0,1,1.837.376H954.3c.056-.093.176-.122.386,0h205.87a12.669,12.669,0,0,1,5.952-3.628c-.639-.676-.669-1.741-2.834-1.444.152-.744,2.513-.086,2.269-1.086.372,1.219.621.755,3.4.362.862,1.017-.187,1.481.57,2.891h2.832c-.634.444-.5.741.567.724-.816,1.087-2.577,1.571-4.143,2.181h85.266a2.815,2.815,0,0,0-.078-1.461c3.513,1.007,6.711-2.639,7.366,0a3.728,3.728,0,0,1,1.327,1.461h16.261l-.021-.014c-.247-.16-.059-.039.023.014h49.306c-.082-.053-.268-.174-.019-.014l.021.014h19.993a13.311,13.311,0,0,0-2.446-1.1c-.168-1.315,3.019-.482,3.967-1.082.869.59-.062,1.493-.78,2.181h3.081c-1.493-1.229-1.352-3.5-4.568-3.628.947-1.434,3.035-2,1.7-3.973,5.053-.788,7.782,5.008,5.426,7.6h104.745c.064-3.049-2.7-5.351-7.025-6.158,5.915.161,6.613-1.246,10.767-2.529,1.025,2.014-1.316,4.267-3.966,5.059.048,1.174,3.38.255,2.834,1.808-1.713-.188-1.38.856-1.445,1.82h33.2l-.021-.014.022.014h56.053l.031-.014c.021,0,.037.011.058.014h25.862a3.487,3.487,0,0,1,2.418-.738c.014.352.7.28,1.135.362.015.135-.005.248,0,.376H1590.3c.232-.6.468-1.2.7-1.82.969-.078,1.469.615,1.7,0a2.415,2.415,0,0,1,1.087,1.82h2.8c.026-.126.05-.252.079-.376.088.122.15.252.23.376h22.332c0-.629,1.5-.3,2.37-.376v.376h23.111c-1.666-1.013-3.2-3.224-1.573-4.714-.482-1.058-1.822.218-2.832,0,1.157-3.287,4.8-1.918,7.934-2.887.005,1.471-.551,2.836,2.835,3.973-.2.474-1,.57-1.136,1.085,1.2.437,1.646,1.362,3.4,1.444a20.475,20.475,0,0,0-1.967,1.1H1670v-16.144c-.731-1.579-2.508-3.134-3.624-4.83-1.079.157-1.422.781-2.835.723-.806-1.048-3.632-.816-3.966-2.167.714-1.041,3.516,1.71,3.966-.362,1.777-.167,1.6.908,2.27,1.444.768-.11.468-.9.565-1.444-.755-.6-2.522-.563-3.4-1.086v-1.805c.913-.1.974.341,1.7.362-.442-1.424-.442-1.106,0-2.53,4.127-.576,5.5,2.776,3.4,3.973A2,2,0,0,0,1670,1067.641Zm-247.888-38.228c.235.154-.372-.235,0,0ZM354.37,1028.69h1.135v.723H354.37Zm-.567,2.532c-.688.523-2.262.485-2.264,1.444C348.734,1032.192,352.218,1029.97,353.8,1031.222Zm-1.7,10.479Zm-4.534-8.669H348.7v.72h-1.132Zm-1.135,18.789h1.135v.724h-1.135Zm-1.7-18.069c-.115,1.082-2.356-.345,0,0Zm-4.535,15.9c3.82-.315-.315,2.32,0,0Zm0,24.213c-1.9.372-.88-1.127-1.134-1.806C341.03,1071.8,341.1,1073.324,340.2,1073.864Zm-1.134-36.5Zm-1.7,20.6H338.5v.723h-1.129Zm-2.27-19.152c.238.154-.372-.239,0,0Zm-.568-5.778c-.371-.24.241.146,0,0ZM330,1080.369c-1.9.871,1.371-1.215,0,0Zm-31.735-36.139H299.4v.724h-1.132ZM296,1082.9c-1.464-.615,1.244-1.587,2.267-1.806A9.106,9.106,0,0,1,296,1082.9Zm2.832-11.564c-1.409-.058-.164-1.226,0-1.448-1.4.6-2.385,2.823-5.1,1.448,1.536-1.55,2.432-3.509,5.666-3.977C299.175,1069.324,300.526,1070.174,298.83,1071.335Zm2.269-8.674H298.83c1.635-1.024,1.822-1.539.567-2.89a4.608,4.608,0,0,1,2.269-.362C302.108,1060.9,300.794,1061.262,301.1,1062.661Zm.567-5.058c-.371-.239.236.15,0,0Zm1.7-2.529c-2.9,1.843,1.271-2.522,0-.365C303.324,1054.78,303.444,1055.019,303.364,1055.074Zm.567-5.423H302.8v-.724h1.132Zm-1.132-5.421c.246-.444.725-.74,1.7-.72C304.763,1044.278,303.687,1044.2,302.8,1044.23Zm2.267-3.253c-1.138.123-1.775-.071-1.7-.72h1.7Zm-1.135-2.529a4.076,4.076,0,0,1-3.4,0,2.376,2.376,0,0,1,2.267-1.085c-.279-1.024-2.963-.519-2.267-2.168,3.308.639,1.841-1.14,5.666-.358C305.087,1035.813,303.018,1036.182,303.931,1038.448Zm10.2,49.509c-.369-.239.241.154,0,0Zm13.6.362Zm.565,1.443c1.038-.679,3.23-2.494,2.267-3.252.072-.8,2.406-.15,3.4-.359-.091.417.126.642.567.721A4.685,4.685,0,0,1,328.3,1089.762Zm6.244-5.451-.08.257c.013-.045.035-.11.069-.226a.117.117,0,0,0,.011-.031c.086-.276.15-.475.2-.62C334.681,1083.882,334.605,1084.125,334.545,1084.311Zm2.259-13.338c-.666.058-.479.658-.567,1.085h-1.7c.022-1.191,1.615-1.382,3.4-1.447C337.736,1071.027,336.938,1071.529,336.8,1070.973Zm1.132,18.066c-.623-1.608,1.668-2.444,2.835-1.806C340.3,1088.141,340.027,1089.172,337.936,1089.039Zm2.835-33.606q-.158-1.183,1.7-1.083C342.575,1055.135,342.007,1055.5,340.771,1055.433Zm3.4,33.968c.238.153-.372-.236,0,0Zm1.7-5.421c-1.411,1.41-.825-1.194,0,0Zm.567-6.14c-.115,1.079-2.353-.348,0,0Zm.567-2.894c-1.771-.434-2.465-1.56-4.534-1.806.787-1.1-1.164-4.424,1.132-5.42A5.317,5.317,0,0,1,347,1074.946Zm0-13.37c-.371-.235.239.15,0,0Zm.568-6.143c-1.309.112-.632-1.045-1.7-1.083C346.5,1053.3,347.711,1054.811,347.572,1055.433Zm1.7,24.213a1.588,1.588,0,0,1-1.134-1.806C349.376,1077.891,349.354,1078.748,349.271,1079.646Zm.565-23.128c1.6-.3,1.47.508,2.837.362-1.332.5-1.068,2.679.565,3.252-1.5.932-.781,2.724-2.267,4.335C345.725,1063.163,347.644,1058.194,349.836,1056.518Zm1.135,29.633c-.372-.238.238.151,0,0Zm2.267-4.7c.247-.444.726-.74,1.7-.723C354.692,1081.175,354.212,1081.472,353.238,1081.451Zm3.4-48.061q-2.163-.068-2.27-1.447h2.27Zm6.8-1.806c-.369-.238.238.15,0,0Zm1.7,4.7Zm.566,1.809c-.37-.239.238.15,0,0Zm43.638-1.809c3.822-.314-.313,2.324,0,0Zm-15.3,16.264c-.112,1.078-2.353-.348,0,0Zm-2.265,9.031c1.962-.252,2.032,1.27,1.132,1.806C390.444,1063.317,391.879,1062.757,391.777,1061.576Zm-3.966-1.085c.937.157-.051-1.345-.567-1.444.744-.345,1.86-.161,3.4,0v2.168c-2.476-.974-2.848.58-5.666.361C384.773,1060.02,386.384,1060.183,387.811,1060.491Zm-14.172-29.634c-.113,1.086-2.353-.341,0,0Zm.567,16.264c-.669,1.1-3-.392,0,0Zm-2.264-3.973c-.372-.239.235.15,0,0Zm.567,18.067c-.115,1.085-2.355-.345,0,0Zm-2.27-16.985c-.115,1.086-2.352-.345,0,0Zm0,2.168c-3.316-.478,2.053-1.707,0,0Zm-2.267.723c2.54.912.458,4.769,1.136,6.864C365.93,1053.791,366.067,1048.217,367.972,1047.121Zm.568,7.229c-.115,1.079-2.355-.348,0,0Zm-1.132,9.755h1.132a1.386,1.386,0,0,0-.568,1.086C366.8,1064.989,366.773,1064.628,367.408,1064.1Zm.564,3.253c.423-2.632,2.88-3.509,6.234-2.529C372.651,1068.092,371.886,1065.959,367.972,1067.358Zm6.234,12.288c-.369-.239.241.153,0,0Zm.568,10.116c.238.154-.372-.238,0,0Zm-2.265-39.388c.134-.638.974-.826,2.265-.723C375.346,1050.736,373.513,1050.292,372.509,1050.374Zm5.1,26.377c.238.154-.369-.235,0,0ZM382.142,1037a4.621,4.621,0,0,1-2.267.359C379.292,1035.888,382.522,1035.438,382.142,1037Zm-.567,27.1h-1.7c-.112-1.034-.07-1.969,1.7-1.8C382.637,1062.989,381.636,1063.208,381.575,1064.1Zm1.7,2.529c-.995-.085-1.293-.621-1.132-1.443C383.729,1065.133,383.992,1066.211,383.274,1066.634Zm2.267-3.973c-.112,1.083-2.353-.344,0,0Zm2.835,24.572c-2.077-1.938,3.246-2.256,3.4-3.976.83.317,1.8.543,1.7,1.447C389.765,1084.264,389.109,1085.772,388.376,1087.233Zm5.666,1.806c-1.237-.051-1.215-.912-1.133-1.806C395.188,1087.182,394.411,1088.158,394.042,1089.039Zm0-5.417c.147-.85,2.492-.212,2.837,0C396.732,1084.465,394.387,1083.83,394.042,1083.622Zm6.236-51.679c1.587-.352-.824-.963.568-1.444,1.769-.167,1.812.771,1.7,1.806-1.734.01-4.392,1.508-2.267,1.8-1.44.659-3.343-1.468-3.4-2.888C398.838,1030.936,399.269,1031.622,400.278,1031.943Zm-1.7,51.314c.642.437,1.619.659,1.135,1.809-3.065-.881-1.143-1.294-2.267-3.973.915-.621,2.371-.9,4.534-.724-.495,1.28-.07.888-.568,2.164C400.005,1082.482,398.662,1082.468,398.576,1083.257Zm3.4,0c.663.058.476.662.567,1.085C400.658,1084.591,401.633,1083.595,401.978,1083.257Zm-1.7-19.513c-1.266-.912,1.237-1.615,1.132-2.892,1.411-.054,1.756.567,2.835.724C403.878,1062.907,402.3,1063.471,400.278,1063.744Zm6.8-21.681c-.915.1-.977-.342-1.7-.362.11-.293.57-.358.568-.724h1.134Zm-.567-3.253c-1.956,1.079-1.662,1.785-2.835,2.891-.743-.369-2.09-.355-2.831-.724.1-1.822,2.577-2.344.564-3.614.916-.1.975.345,1.7.361-.073-1.761-2.067-2.293-1.7-4.334,1.483.1,2.439-.133,2.267-1.085,1,.088,1.293.624,1.135,1.447,1.384-.758,1.207-.516,3.4-.362-1.848,2.983,2.748,4.307,1.132,6.867C408.3,1039.834,408.953,1038.339,406.512,1038.81Zm1.7,50.229v-1.082c.744.126.89.635,1.7.723C409.82,1089.1,408.88,1088.984,408.212,1089.039Zm3.4-3.611c-.919.1-.978-.345-1.7-.362.11-.294.57-.362.567-.724h1.136Zm-1.7-19.875c-.1-.792.466-1.151,1.7-1.086Q411.765,1065.65,409.911,1065.553Zm4.534,1.805c-1.1.144-.827-1.645.568-1.085C415.173,1066.86,414.477,1066.894,414.445,1067.358Zm4.534,19.152h-1.132v-.724h1.132Zm30.036-41.556c-.369-.239.241.15,0,0Zm0,33.606c-.112,1.082-2.352-.344,0,0Zm-1.132-15.537Zm0,10.479c-.115,1.082-2.352-.345,0,0Zm-1.132-37.221h1.132V1037h-1.132Zm-1.7-.724h1.134v.724h-1.134Zm-17-7.949h1.7c.241.758-.388.956-.568,1.444C428.186,1028.966,427.889,1028.431,428.047,1027.608Zm-4.534,5.782c-1.9.874,1.371-1.212,0,0Zm.568,54.2c-.372-.236.238.15,0,0Zm4.534-21.684c-.653-.427-.643-1.276-.568-2.167,1.941-.151,1.705,1.085,2.835,1.447C430.745,1065.826,429.908,1066.013,428.615,1065.911Zm2.834,1.809c-1.654.529-1.654-1.618,0-1.086Zm1.135-22.766h-1.135v-.724h1.135Zm-1.7-12.649c.136-.636.974-.823,2.267-.721A1.419,1.419,0,0,1,430.882,1032.305Zm5.669,2.532c-.672,1.1-3.009-.392,0,0Zm8.5,52.035c-.113,1.081-2.353-.345,0,0Zm0-23.49c-1.9.877,1.37-1.212,0,0Zm3.966,18.069c-2.112.144-3.324-.286-3.4-1.447C447.517,1080,449.395,1080,449.015,1081.451Zm.568-11.564c-.113,1.082-2.353-.344,0,0Zm2.837-8.672h-1.135v-.724h1.135Zm1.7,28.909c-.37-.235.241.15,0,0Zm.567-31.439c.238.154-.372-.239,0,0Zm60.075-23.848c-.372-.239.238.15,0,0Zm-3.4,11.926c1.244-1.106,3.627.413,0,0Zm-7.936-18.073c-1.2-.881.6.543,1.7.362.145,1.054-1.065,1.245-1.7,1.805C501.6,1030.281,505.418,1029.509,503.424,1028.69Zm-.565,2.894c-.428,1.171-.942,2.287-3.4,2.168C500.284,1032.83,500.536,1031.547,502.859,1031.584Zm-.568,9.032c-2.895,1.85,1.272-2.523,0-.359C502.249,1040.326,502.372,1040.568,502.291,1040.616Zm-2.834,7.952c-.372-.239.238.151,0,0Zm-23.235,2.53c.661.058.477.658.565,1.082C474.9,1052.429,475.874,1051.432,476.222,1051.1Zm-2.27-12.288c-.369-.239.242.154,0,0Zm1.135,10.841c-2.127-.328-2.9-1.526-2.832-3.253C474.835,1046.79,475.8,1048.067,475.087,1049.651Zm-5.1,0c1.413.146.035,1.4-1.135,1.085C468.541,1049.934,469.938,1050.22,469.986,1049.651Zm-2.264,2.529h1.129v.723h-1.129Zm0,28.548c.235.153-.373-.236,0,0Zm-9.071-40.471c-1.719,1.335-1.908-1.1,0,0ZM457.519,1080c.032-1.181,1.611-1.379,1.132-2.887,1.849-.1,2.727.43,2.834,1.443C459.494,1078.615,460.126,1080.342,457.519,1080Zm6.8,8.315h-1.7v-1.086C464.092,1087.018,464.659,1087.377,464.32,1088.319Zm-1.7-9.035c.083-.9,1.916-.106,2.264,0C464.5,1080.414,463.161,1079.891,462.62,1079.284Zm2.832,9.4c-.372-.238.238.151,0,0Zm.568-10.12c-2.394.079-3.47-.675-3.967-1.809,1.731.266,2.066-.368,3.4-.358C465.042,1077.5,466.429,1077.458,466.02,1078.56Zm1.134-20.6c-.669,1.1-3.008-.389,0,0Zm1.132,27.824c-1.619-.048-1.035-1.505-1.132-2.529,1.834-.184,3.854-1.932,5.1-.358.887-.035-1.086-2.158,1.7-1.806C474.611,1084.281,470.821,1084.632,468.286,1085.786Zm6.234-.72c-.016-1.068,2.625-1.222,3.4-.724C477.347,1084.939,475.513,1084.735,474.52,1085.066Zm5.669,1.806c-1.24.064-1.8-.294-1.7-1.086C479.016,1086.172,480.577,1085.9,480.189,1086.872Zm.564.723c-.369-.236.239.15,0,0Zm1.7-3.973c-.372-.239.238.15,0,0Zm0-39.753c.995.088,1.292.621,1.132,1.447C481.822,1045.483,481.562,1044.408,482.456,1043.869Zm2.264,13.011c-.369-.239.241.153,0,0Zm1.135-1.447c.238.153-.372-.236,0,0Zm-1.7-5.421a1.723,1.723,0,0,1-.567-1.8c2.034.3,2.743-.813,3.969,0C487.2,1049.306,486.3,1050.053,484.155,1050.012Zm4.532-11.922c-.113,1.078-2.353-.348,0,0Zm.567,32.159c-.95,1.28-1.769-1.177,0,0Zm-1.132-35.774c-2.652-.088-.118-1.932.565-2.17C490.617,1032.987,487.718,1033.574,488.122,1034.475Zm9.068,14.813c-.112,1.083-2.352-.344,0,0Zm0-2.89c-.112,1.085-2.352-.345,0,0Zm1.7,37.944c1.662.307-.736.912,0,1.809C496.369,1086.2,498.552,1084.684,498.89,1084.342Zm.567,2.168c.238.153-.372-.236,0,0Zm.568-5.059c.238.154-.372-.235,0,0Zm3.966-7.949c2.848,7.093-12.775-1.15,0,0Zm.565,13.37Zm1.135-1.444c-1.483.1-2.439-.133-2.267-1.086C504.486,1083.632,506.154,1084.134,505.691,1085.428Zm-.568-19.875c.142-.4,1.127-.246,1.135-.724.552.01.439.444.568.724C506.079,1065.986,505.935,1065.693,505.123,1065.553Zm5.1,2.167c-1.5,0-3.236.136-3.967-.362.94-.979,1.989-2.1,1.7-2.891C509.992,1064.737,510.431,1066.023,510.225,1067.72Zm0-35.415c1.41-.055,1.756.57,2.834.727C512.8,1033.738,509.082,1033.68,510.225,1032.305Zm1.7,49.87c-1.41,1.409-.829-1.2,0,0Zm1.132-27.1c-.83-.317-2.194-.29-1.7-1.447h2.264C513.868,1054.381,513.236,1054.583,513.059,1055.074Zm1.132,27.1c-.369-.239.241.154,0,0Zm-.567-31.8c.1-1.509-1.683-1.816-2.264-2.891.963-.133,1.068.28,1.132.724,2.016.559.343-1.229,1.7-1.086C516.37,1047.514,516.194,1050.323,513.624,1050.374Zm2.27,3.253c.236.153-.372-.239,0,0Zm1.7-16.984c-.372-.239.239.15,0,0Zm2.267,36.859c-.115,1.082-2.355-.345,0,0Zm0-41.2c.239.153-.372-.236,0,0Zm.565,26.742c-.369-.235.238.15,0,0Zm95.215-26.742c.236.153-.372-.236,0,0Zm-3.4-3.974h1.131v.721h-1.131Zm0,53.482h-1.7v-1.085Q612.393,1080.63,612.239,1081.813Zm-3.4-44.089c1.475-.214,2.043.151,1.7,1.086h-1.7Zm-1.129,4.339h1.129v.723h-1.129Zm-5.669,18.789c1.718-1.334,1.909,1.1,0,0ZM599.771,1037v1.086h-1.7C597.967,1037.3,598.535,1036.936,599.771,1037Zm-2.834-5.782c-.113,1.083-2.353-.348,0,0ZM595.8,1056.88c-1.242-.055-1.218-.912-1.134-1.806h2.267C596.7,1055.76,595.317,1055.726,595.8,1056.88Zm0-3.253v.723c-1.137.123-1.774-.075-1.7-.723Zm-2.834-21.322c-.827,1.2-1.411-1.407,0,0Zm0,14.816c-.115,1.082-2.353-.345,0,0Zm-3.4-19.513c1.475-.215,2.04.143,1.7,1.082h-1.7Zm-6.234,1.082c.83.317,1.8.546,1.7,1.447C583.543,1030.246,583.174,1029.635,583.334,1028.69Zm.568,32.162c.238.154-.372-.235,0,0Zm-2.267,6.868h1.135v.72h-1.135Zm-.217,15.1c.541.2,1.068.4.217.082-.086-.035-.147-.055-.217-.082l-.688-.253Zm-1.483-54.486c-.372-.238.238.151,0,0Zm.565,29.992c-1.41,1.41-.825-1.2,0,0Zm-1.132,22.77c-.072.648.693.761.567,1.44C579.63,1082.171,577,1080.939,579.368,1081.093Zm-3.4-15.54c1.964.211,1.4,1.781,1.132,2.529C575.348,1068.327,574.74,1066.01,575.969,1065.553Zm-.568,15.175c.236.153-.372-.236,0,0Zm-6.236-48.423v1.447a3.692,3.692,0,0,0-1.7-.362C567.363,1032.6,567.929,1032.236,569.165,1032.305Zm-4.534,4.7c-.372-.239.24.147,0,0Zm-5.666,15.541c-2.6-.243.455-2.192,0,0Zm-1.7,5.417c-.091.426-1.033.307-1.7.361v-1.085C556.821,1057.04,556.371,1057.931,557.265,1057.962Zm.568,11.925v.724H556.7v-.724Zm-3.4-19.151c-1.724.986,1.547-1.1,0,0Zm-9.636-16.261c-1.721.987,1.547-1.1,0,0Zm-.568,43c-.369-.236.242.153,0,0Zm0-46.976v1.806C542.295,1032.438,541.837,1030.216,544.227,1030.5Zm-.564,24.575c-.115,1.079-2.356-.348,0,0Zm-1.7-7.229c-1.892-.137-.637-1.922,1.132-1.806C543.58,1047.19,542.2,1047.155,541.963,1047.845Zm-.567-15.54c.479-2.137-.324,1.45,0,0Zm-.568,1.085c-.048.512-.093,1.024.568,1.085-.26.71-2.449-.324-2.835-.723C538.738,1033.26,539.98,1033.451,540.828,1033.39Zm-.567,28.548h-1.7v-1.086Q540.774,1060.531,540.261,1061.938Zm-.565-9.035c-.115,1.082-2.355-.345,0,0Zm-3.4,7.949c1.008.267.082.659,0,1.086C535.285,1061.672,536.214,1061.283,536.295,1060.852Zm-2.835-3.249c-.889.273-.846,1.144-2.264,1.082C531.024,1057.733,531.98,1057.5,533.46,1057.6Zm-1.7,2.888h-2.27C529.049,1059.1,532.208,1059.1,531.763,1060.491Zm0,6.143c-1.062.69-.064.908,0,1.806a4.579,4.579,0,0,1-2.27.365C529.126,1067.365,529.8,1066.594,531.763,1066.634Zm-2.837-8.311c-.37-.235.241.154,0,0Zm-5.667-24.571c-.368-.236.239.15,0,0Zm1.133,4.7v.72h-1.133v-.72Zm-2.264,22.043c.767.112.47.908.567,1.447-.916.1-.977-.341-1.7-.362C520.682,1060.774,522.074,1061.064,522.128,1060.491Zm10.2,16.26c.238.154-.37-.235,0,0Zm1.132,8.315c-.367-.236.241.15,0,0Zm0-9.035c-.766-1.1-1.571-.116-3.967-.362,1.379.407-1.33,3.13,2.835,3.253v2.891a3.716,3.716,0,0,0-1.7-.362v-1.805c-.615.088-.385.717-1.135.723-.42,1.11,1.555.693,1.135,1.806-1.068-.638-2.625.45-3.4,1.082-.645-.068-.316-.362,0-.358-2.206-1.7.972-3.352-1.135-4.339.3.953-3.287,1.233-3.4.724-.174-1.478.784.058,2.264-.362.426-1.113-1.954-.44-1.132-1.805-1.017-.048-1.2.443-2.267.358-.054-1.478.077-2.84,2.267-2.888a3.7,3.7,0,0,0-2.834-2.171c5.845-1.235,3.054,3.939,5.1,6.144-.257-1,3.089.284,2.832-.72-2.042-.082-2.165-3.942-2.832-5.062.551.011.442.444.567.724,1.419-.048,1.775-.69,2.265.362.773-.113.474-.908.567-1.448,2.653.567,1.885-.3,4.534-.358A10.823,10.823,0,0,1,533.46,1076.031Zm0-6.505c-.367-.236.241.15,0,0Zm0-2.53c-2.013.564-.34-1.225-1.7-1.085.174-.492,1.419-.3,2.264-.358C534.268,1066.307,533.639,1066.508,533.46,1067Zm1.7-1.8c-2.9,1.846,1.269-2.522,0-.362C535.122,1064.9,535.24,1065.14,535.162,1065.191Zm.567,22.766c.415-.645,1.031-.051,1.7,0C537.014,1088.6,536.4,1088.008,535.729,1087.957Zm3.967-27.825h-2.267C538.414,1058.886,538.575,1058.129,539.7,1060.132Zm-.567,24.572c.977-1.273.929,1.041,2.834.362a1.543,1.543,0,0,1-1.135,1.444,5.165,5.165,0,0,1,3.967,3.252C532.491,1092.026,541.026,1085.595,539.129,1084.7Zm5.666-48.423c-.072-.649.7-.761.568-1.444C547.009,1034.9,546.73,1036.554,544.795,1036.281Zm1.7,13.731Zm.568-15.537c.235.15-.372-.235,0,0Zm1.7,22.043c-.37-.236.24.15,0,0Zm.567,10.116Zm.567-35.05c-1.161-.42,1.475-1.44,2.835-1.447C552.559,1031.113,550.346,1030.786,549.9,1031.584Zm1.135,6.14c-.326,1.451.477-2.133,0,0Zm0,4.339c2.131-1.553-1.45,1.058,0,0Zm0,8.673h1.135v.72h-1.135Zm.568,34.692c-.372-.239.235.15,0,0Zm1.132-29.272H551.6v-.723h1.132Zm-1.7-12.287v-1.083c1.135.12,1.772-.075,1.7-.723-.8-.434-.048-.144.567,0C552.977,1042.943,552.814,1043.923,551.031,1043.869Zm2.832,12.287a2.375,2.375,0,0,1,2.27-1.082A2.375,2.375,0,0,1,553.863,1056.156Zm2.27,33.606c-.667-.058-.482-.658-.568-1.082.916-.1.975.342,1.7.359C557.126,1089.435,556.138,1089.285,556.133,1089.762Zm1.7-12.287c-.172-.949.784-1.185,2.266-1.082C559.6,1076.922,559.647,1077.792,557.833,1077.475Zm1.132-4.335c-.413-.986,1.127-.727,1.134-1.447.769.116.469.908.565,1.447Zm-1.132-13.369c-.4-1.253,1.986-1.3,2.831-.724A3.58,3.58,0,0,1,557.833,1059.771Zm2.831-6.868c.238.154-.372-.235,0,0Zm1.7-1.082c-.372-.239.236.15,0,0Zm1.7,35.412c.238.154-.372-.235,0,0Zm2.267-5.782c.236.154-.372-.235,0,0Zm-3.967-22.042c.458-1.758,3.14-2.1,5.1-2.891C568.191,1057.593,566.186,1060.027,562.366,1059.409Zm5.667-3.976c-.827,1.2-1.411-1.41,0,0Zm1.132-15.176c-1.646,1.359-2.875-1.355-3.967.359.193-1.413.927-1.557,3.967-2.168C569.9,1039.346,567.5,1039.95,569.165,1040.257Zm2.269,1.444c-.042.072.078.311,0,.362C568.536,1043.909,572.7,1039.541,571.434,1041.7Zm0,29.992c.236.153-.372-.236,0,0Zm1.133,16.626c-.744-.13-.891-.635-1.7-.724C571.1,1086.7,573.065,1087.574,572.567,1088.319Zm2.267-5.062h1.7c-1-1.417,2.048-.324.568,1.085C576.019,1084.192,574.66,1084.212,574.834,1083.257Zm2.267,5.423c1.627-2.293-.76-3.559,2.834-5.058,1.9-.119-.294,2,2.835,1.806C581.453,1086.875,581.335,1089.09,577.1,1088.68Zm5.669-5.058c.578-.809,3.792-.286,3.4.72C584.686,1085.291,584.432,1083.615,582.77,1083.622Zm3.966,1.444Zm1.133-1.444c-.115,1.079-2.353-.348,0,0Zm.567-29.272c-1.9.874,1.37-1.215,0,0Zm1.132,2.888c-.27-1.133.808-1.41,1.135-2.164,2.441-.236,1.78,1.515,3.967,1.444C593.8,1057.832,591.209,1058.242,589.568,1057.238Zm4.534,23.49v1.085h-1.7C593.008,1081.475,592.576,1080.479,594.1,1080.728Zm-2.831,9.4c.235.15-.373-.235,0,0Zm-.568-22.042c.7.157,1.164.46,1.135,1.082C590.628,1069.334,590.756,1068.648,590.7,1068.082Zm2.831,20.6c-3.115-.982-.786-3,2.27-2.894C595.673,1087.353,591.99,1087.052,593.534,1088.68Zm.568-29.633c.064-.683,1.876-.249,1.7-1.085C596.875,1057.992,595.665,1059.508,594.1,1059.047Zm6.8,8.311c1.063.737,1.644,1.229-1.7,1.447.367.369,1.3.372,1.133,1.082-1.416.724-4.457.167-3.967-1.447,6.041.055,2.626-3.693,6.236-5.058,1.408-.055,1.754.566,2.832.723C604.693,1065.682,604.848,1067.826,600.9,1067.358Zm5.1-4.335c-1.9.871,1.369-1.215,0,0Zm.568,6.141c.177-.492,1.419-.3,2.264-.359C608.678,1069.642,607.324,1069.635,606.572,1069.164Zm2.264,15.54Zm0,4.335c2.193-.816,2.238.672,3.97,1.085C611.872,1090.93,609.136,1089.838,608.836,1089.039Zm4.534.362c-.912.1-.974-.342-1.7-.362C611.446,1088.339,614.254,1088.51,613.37,1089.4Zm2.835-26.378c-.112,1.082-2.353-.348,0,0Zm-1.7-27.466c-1.8-.566.709-2.167,1.7-1.082C616.141,1035.158,614.331,1034.724,614.505,1035.557Zm3.4,30c1.547,1.1-1.726-.987,0,0Zm.565,14.816c-.115,1.079-2.353-.348,0,0Zm228.4-20.237c-.048.512-.094,1.021.567,1.083-1.2,1.307-.985-1.257-2.834-.724C844.778,1060,846.02,1060.194,846.869,1060.132Zm-1.7,11.2c.1.781-2.01.163-2.832.358C842.394,1070.775,844.449,1070.84,845.169,1071.335Zm-3.966-22.408c-.116,1.085-2.356-.341,0,0Zm-1.136-2.888c-.371-.235.239.15,0,0Zm1.7,14.093q-2.164-.066-2.27-1.447Q842.163,1058.434,841.77,1060.132Zm-4.534,13.37c-.372-.239.235.15,0,0Zm.568,1.444c-.116,1.085-2.356-.342,0,0Zm-5.1-29.992h1.132v.72H832.7Zm.564,11.2c.266.771-.808.686-1.7.724C831.813,1056.432,832.292,1056.135,833.266,1056.156Zm0,14.093c-.952,1.28-1.768-1.177,0,0Zm-1.132,3.615c.265.768-.808.686-1.7.723C830.681,1074.14,831.158,1073.843,832.134,1073.864Zm-1.7-4.338v-.721h1.132v.721Zm1.132-6.144c-1.411,1.409-.827-1.2,0,0Zm-1.132-9.4c.235.154-.372-.232,0,0Zm-11.9-3.611c-.115,1.082-2.355-.345,0,0Zm-3.966-22.4c3.819-.314-.316,2.324,0,0Zm1.7,23.851c-.372-.239.236.15,0,0ZM814,1053.627h1.132v.723H814Zm1.7,1.447c.265.768-.808.686-1.7.72C814.247,1055.35,814.723,1055.054,815.7,1055.074Zm-9.633-24.217c-.348,1.3-3.627.485-3.4-.72C804.322,1029.075,804.962,1030.509,806.065,1030.857Zm0,35.416c.236.153-.372-.232,0,0Zm-8.5-31.078c-.276,1.141,1.737.82,1.133,2.168-1.794-.058-1.9.962-3.967.727a1.587,1.587,0,0,0-1.135-1.809A15.155,15.155,0,0,1,797.564,1035.195Zm-5.1,1.809v1.086C790.809,1038.619,790.809,1036.472,792.463,1037Zm-5.666-5.42c.934,1.208,2.746,1.86,3.4,3.253-1.655-.512-2.787-1.358-5.1-1.447C784.495,1032.045,786.288,1032.222,786.8,1031.584Zm2.831,12.646c-.115,1.086-2.355-.345,0,0Zm-5.669-8.314c.241.157-.369-.232,0,0Zm-11.9-2.884c-.373-.24.238.146,0,0Zm-1.132-2.533c-1.414,1.41-.828-1.2,0,0Zm-14.17,24.21c.236.153-.372-.236,0,0Zm-10.768-15.541q2.208-.322,1.7,1.089h-1.7Zm-2.834,6.506c1.547,1.1-1.724-.987,0,0Zm-4.534-15.895c1.2-.321,1.675-1.1,3.4-1.089.145,1.659.6,1.747,0,3.253h-2.269C740.361,1030.591,738.349,1030.912,738.622,1029.779Zm.567,6.137c.348-1.2,1.662-1.229.565-2.526.541-.888.7,1.437,2.269,1.085A2.825,2.825,0,0,1,739.189,1035.916Zm2.267,24.216c-.249.444-.725.741-1.7.72C739.492,1060.081,740.565,1060.166,741.456,1060.132Zm-3.4-31.08Zm.568,2.891c-.67,1.1-3.006-.393,0,0Zm-1.132,12.649c.235.153-.373-.236,0,0Zm-1.136-2.171c1.548,1.1-1.723-.986,0,0ZM733.52,1030.5c-.115,1.082-2.353-.345,0,0Zm-1.7,11.564c-.373-.239.237.15,0,0Zm-2.835,4.335Zm-.567-17.708c-.115,1.082-2.353-.342,0,0Zm-1.13,2.894c.27,1.137-.808,1.413-1.135,2.168-1.734.017.078-1.864-1.7-2.53A5.421,5.421,0,0,1,727.289,1031.584Zm-.567,14.455c.235.15-.372-.235,0,0Zm-1.135-7.229c-.085.9-1.919.106-2.267,0C723.405,1037.912,725.239,1038.7,725.587,1038.81Zm-1.135,2.891c-.115,1.082-2.353-.345,0,0Zm-.568-13.731c-.112,1.082-2.352-.349,0,0ZM721.62,1041.7Zm3.4,1.447c.251,1.362-1.117,1.7-1.7,2.526a3.63,3.63,0,0,1-2.835-2.526C722.7,1043.5,723.778,1042.346,725.02,1043.148Zm-2.265,6.864c-1.482,1.41-1.293-1.809.565-1.444C724.069,1049.469,721.08,1049.7,722.755,1050.012Zm-1.7,11.564c-1.489,1.492-4.553.137-5.1-1.085A8.346,8.346,0,0,0,721.053,1061.576Zm-2.835,4.335c-.115,1.085-2.353-.342,0,0Zm-1.7-2.888c-.158-.587.535-.624.567-1.085,1.178.2,1.2.563.568,1.085Zm1.7.359c-1.723.986,1.548-1.1,0,0Zm-2.266-13.731c.238.153-.373-.236,0,0Zm.567,4.7Zm1.135,1.806Zm2.264-10.482c.1,3.72-5.821-.181,0,0Zm-1.7-1.8Zm1.135-3.974a2.033,2.033,0,0,1-1.7-2.171C720.461,1037.4,719.985,1038.916,719.353,1039.9Zm-1.7,2.168c-.07,1.024-2.42.693-2.268-.362C716.57,1041.547,716.886,1041.95,717.654,1042.063Zm-2.268-1.447c.236.153-.371-.236,0,0Zm-3.4-10.479c-1.411,1.41-.827-1.194,0,0Zm-22.1,14.093c-.825,2.365-1.6.557-3.967.362C686.159,1043.786,688.707,1044.445,689.882,1044.23Zm-5.669,0a5.419,5.419,0,0,1-2.832-.361C681.432,1042.793,684.762,1042.9,684.213,1044.23Zm-3.4,2.891Zm-3.4-.723c.235.153-.373-.236,0,0Zm-2.268,13.373c-1.723.986,1.547-1.1,0,0Zm0,15.9c-.663-.542-1.637-.884-1.7-1.8C675.217,1073.7,675.257,1074.635,675.147,1075.669Zm-1.7-40.474h1.134v.721h-1.134Zm1.134,15.179h-2.267C671.866,1048.985,675.027,1048.985,674.58,1050.374Zm-3.966-18.431v.723c-1.138.123-1.772-.075-1.7-.723Zm-5.669,5.781c-1.411,1.414-.825-1.2,0,0Zm0,10.483c1.547,1.1-1.724-.987,0,0Zm-.568,3.249c-.112,1.085-2.352-.341,0,0Zm-1.7-1.082c1.719-1.334,1.906,1.1,0,0Zm-2.834.362c1.962.071.811,2.133,3.966,1.444C662.2,1054.763,657.442,1051.954,659.846,1050.736Zm-1.7-19.152c-.37-.238.238.15,0,0Zm8.5,23.125c.423,1.235-2.3.461-1.7,1.809-3.681-.976-7.262,1.768-7.366-1.809C659.348,1053.678,664.875,1053.678,666.647,1054.709Zm-11.335-7.588c1.41.147.032,1.4-1.135,1.086C654.378,1047.732,655.176,1047.637,655.312,1047.121Zm.567,14.817c-.372-.239.235.15,0,0Zm-13.6-32.525c1.079-.153,1.421-.778,2.832-.723,1.36,1.137.369,1.526,1.135,2.894-1.922-1.386-.91-.508-3.4,0C642.189,1031.157,642.2,1030.3,642.277,1029.413Zm-1.135,7.95c.236.153-.372-.236,0,0Zm-9.068,28.19c1.892-.366,1.861.5,1.7,1.443h-1.7Zm-1.132-19.879c-.115,1.085-2.355-.341,0,0Zm-6.236-9.393c1.72-.01,1.413,1.266,1.7,2.167C624.416,1038.844,624.176,1036.3,624.706,1036.281Zm1.7,43.723c.236.154-.372-.236,0,0Zm-2.27-40.109c-.369-.238.241.151,0,0Zm0,19.514a.057.057,0,0,0,.016-.021c-.056.072-.112.147-.171.222C624.031,1059.549,624.079,1059.484,624.138,1059.409Zm-1.7-7.229c.236.153-.372-.236,0,0Zm0,33.248c-.372-.239.236.15,0,0Zm0-23.852c-1.522-.249-1.094.748-1.7,1.085-1.713-.443.4-1.378.568-1.809,1.25.41,3.126.421,3.4,1.448C623.02,1062.552,621.293,1063.126,622.441,1061.576Zm2.265,17.346c-2.489,1.325-2.152-1,0,0Zm.567,6.506c-2.9,1.846,1.271-2.523,0-.362C625.233,1085.138,625.353,1085.376,625.273,1085.428Zm-.567-22.046h1.7v.723C625.268,1064.228,624.633,1064.034,624.706,1063.382Zm3.966,21.684c.667.058.479.658.568,1.085C627.356,1086.4,628.327,1085.4,628.672,1085.066Zm1.135-1.809c-1.705,1.413-1.56-1.382-3.966-.724.283-1.5,1.98-2.106,2.267-3.611,1.547-.263,1.14.717,2.266.724C628.006,1080.038,629.716,1081.888,629.807,1083.257Zm-.567-12.284c-.37-.239.238.15,0,0Zm1.7,10.12c-.372-.239.235.147,0,0Zm1.132-5.062c-.238-.754.388-.955.567-1.444a3.722,3.722,0,0,0,1.7.359C633.846,1075.475,633.892,1076.345,632.074,1076.031Zm-3.4-6.144c-.407-1.1.581-1.317.568-2.167,2.077.621,4.938.034,3.969,1.085,4.737-.57-.664-3.652,2.832-4.338,2.1,2.086,1.378,4.263,0,6.506C633.474,1069.806,632.681,1069.218,628.672,1069.887Zm10.2,2.171c-1.595.051-1.635-.887-1.7-1.809,1.161-.341,2.7-.447,2.832-1.444C641.452,1069.632,638.825,1070.918,638.875,1072.058Zm3.97,6.5h-1.7c.337-1.153-1.062-1.116,0-1.809h1.7C643.9,1077.444,642.507,1077.407,642.845,1078.56Zm1.129-37.944c-.369-.236.241.153,0,0Zm2.837,4.7c-.519,1.211-1.054.177-2.837.358C644.368,1044.544,645.486,1045.2,646.811,1045.316Zm-1.7,33.968c-2.382-.379,0-1.9,0,0Zm1.7-3.253c-.7-.157-1.164-.461-1.134-1.085C647.245,1074.884,647.622,1075.5,646.811,1076.031Zm.568-33.61c-.116,1.085-2.356-.341,0,0Zm1.129-10.837c-.824,1.2-1.408-1.409,0,0Zm0,34.689c-1.408-.144-.032-1.4,1.135-1.082C649.956,1065.993,648.561,1065.7,648.508,1066.273Zm1.135-2.891c.238.153-.372-.236,0,0Zm-.567-19.152c-2.238-.426.286-1.792-1.133-2.891,1.732-.259,2.067.369,3.4.362C651.155,1043.715,649.8,1042.834,649.076,1044.23Zm2.269,28.548H650.21v-.72h1.135Zm3.967-3.252c-.672,1.1-3.006-.393,0,0Zm1.132,19.513h-2.267q-.393-1.695,2.267-1.444Zm1.7-19.152c-1.015.048-1.194-.444-2.265-.361.362-1.595,2.559-1.9.565-3.253-1.3,1.577-4.807,1.754-6.234,3.253-1.445-1.014,2.669-4.168,5.669-4.7.67,1.492,3.378,1.355,5.1,2.891C658.192,1067.017,657.929,1067.9,658.144,1069.887Zm3.4,10.482c-.279-.179-.008-.005.046.03Zm1.134,1.444Zm6.8,6.506c-1.951-.935,2.917-.874,0,0Zm1.135-2.891h-2.267c-1.293-1.465-.788-4.076-2.268-5.424a4.607,4.607,0,0,1-2.267.365c1.213-.164,1.208-2.055,3.967-2.529a14.09,14.09,0,0,1-7.369-1.447,6.677,6.677,0,0,1,1.136-2.891c-.129-.461-1.692-.471-1.7,0-1.033-.45.744-2.151,2.267-2.167-.23-.7-2.2-.287-1.7-1.448,2.286-.228,3.062-1.42,5.669-1.447,1.655,1.488,2.971,2.966,5.1,3.253-.6,1.666,1.065,2.676,0,4.338-.1.782,2.01.164,2.832.362-1.582,2.5-2.2,3.4-5.1,5.058.5,1.052.851.406,2.27.362C672.286,1083.124,669.845,1083.359,670.614,1085.428Zm2.266-1.086c-.9,1.417,1.473.751,1.7,1.444.081,1.137-1.453,1.243-2.832,1.447,1.491-1.993-1.7-4.73,2.265-5.058.506.758.018,2.154,2.267,1.8C676.21,1084.779,673.876,1084.134,672.88,1084.342Zm5.667-24.933v1.443c-1.017.048-1.194-.44-2.267-.361A2.372,2.372,0,0,1,678.547,1059.409Zm0,27.824c-1.138.123-1.772-.075-1.7-.723h1.7Zm1.135-1.447c-1.906.372-.884-1.119-1.135-1.806C680.825,1083.929,680.046,1084.909,679.682,1085.786Zm-2.267-13.37c-1.976-1.706,1.7-2.375,3.4-2.89-2.278.324-2.372-2.093,1.134-1.806C683.654,1070,679.077,1071.113,677.415,1072.416Zm5.1-8.672c.659.058,1.006-.079,1.132-.362,1.189.932,2.717,1.641,3.4,2.891h-2.837C686.2,1064.32,682.487,1065.706,682.516,1063.744Zm3.967,18.431h-2.27a2.375,2.375,0,0,1,2.27-1.082Zm.567,2.891Zm2.265.362h-1.133v-.724h1.133Zm.567-20.961c-.916.1-.974-.341-1.7-.362C687.957,1063.406,690.763,1063.58,689.882,1064.467Zm-1.7-25.657c.726-.659,3.394-2.335,3.4-.362C690.249,1038.441,689.912,1039.069,688.182,1038.81Zm5.666,26.019c-.115,1.082-2.352-.345,0,0Zm-1.132-22.766v-1.086h1.7C694.518,1041.769,693.953,1042.128,692.716,1042.063Zm1.7,3.611c.238.154-.372-.235,0,0Zm2.267,38.668c-.115,1.082-2.353-.344,0,0Zm.567-18.431c.236.153-.372-.236,0,0Zm3.967-23.848c-.115,1.079-2.353-.345,0,0Zm1.7,15.175c.239.154-.368-.235,0,0Zm1.133-.72c-1.719-.663-4.681-1.448-.565-1.809A1.719,1.719,0,0,1,704.049,1056.518Zm.567-5.782c.667.058.479.659.568,1.085C703.3,1052.07,704.271,1051.074,704.616,1050.736Zm2.838,24.933c-.788.464-.349,1.707-1.136,2.171C704.568,1077.287,705.226,1075.591,707.454,1075.669Zm2.831-33.606c-1.694-.485-3.934-.625-3.967-2.168,2.115.386,1.615-.9,3.4-.727C707.935,1040.349,710.467,1040.817,710.285,1042.063Zm-2.831.358c.235.154-.373-.235,0,0Zm.564,37.948h-1.132v-.723h1.132Zm0-31.8c-3.319-.481,2.053-1.706,0,0Zm3.4,18.428c-.115,1.082-2.355-.344,0,0Zm-1.7-4.335c2.248-.351,1.761,1.045,2.267,1.806C710.392,1064.4,709.571,1063.839,709.718,1062.661Zm1.7-18.069c1.234,2.3-2.46,1.017,0,0Zm-3.966-6.144c-.737-.648-1.283-3.488.564-3.611-1.121-.491-2.2-1.007-1.7-2.532,1.079-.158,1.424-.775,2.832-.721,1.1.454-.554,2.2,1.135,1.082,1.877.352-.634.714-.567,1.086.535.74,2.229.747,2.267,1.805.653-.116,1.954-1.573.567-1.805,3.828.116-.99,2.556-.567,4.7C710.183,1037.9,709.493,1038.322,707.454,1038.448Zm7.365,7.591c-.953,1.277-1.769-1.181,0,0Zm0,17.343c.239.153-.372-.236,0,0Zm3.4,26.019c-2.666-.151-1.536-1.918-3.966-1.444a3.555,3.555,0,0,0,0-2.529C718.518,1085.9,719.169,1087.892,718.218,1089.4Zm1.135-4.7a1.552,1.552,0,0,1-1.135-1.447C719.923,1082.9,719.222,1084.066,719.353,1084.7Zm1.7.362c-.827,1.2-1.411-1.41,0,0Zm2.267-.724c.061.9,1.06,1.12,0,1.809C721.385,1086.281,720.93,1084.059,723.32,1084.342Zm-1.7-12.649v-.72h1.135v.72Zm2.264,15.54Zm-4.539-22.37c-.163,1.011-2.31-.369,0-.034a2.747,2.747,0,0,1,.011-.362c1.93-.959,3.193-2.522,2.267-4.335,2.739,1.11-.594,3.471,5.1,3.612C726.181,1069.72,719.482,1068.6,719.345,1064.863Zm7.944,9.724c-.918.1-.979-.341-1.7-.365C725.362,1073.522,728.167,1073.7,727.289,1074.587Zm.565,3.973c1.528.352,2.736.908,2.834,2.168C728.2,1082.448,725.333,1080.035,727.854,1078.56Zm6.234-13.007c-.372-.236.238.15,0,0Zm-.568-11.2c-2.053.011-1.82-1.894-3.4-.365-1.649-.311-.64-.539-.568-1.44a28.086,28.086,0,0,1-5.669-.724c2.886-.57,3.022-2.894,4.535-4.338C731.826,1048.442,735.948,1051.985,733.52,1054.35Zm1.135-8.676h1.132v.724h-1.132Zm.567,14.458c1.563-.433,1.989-1.027,3.967-.361-.243.689-1.22.907-1.135,1.805C736.708,1061.351,735.415,1061.091,735.222,1060.132Zm3.4,3.25c.238.153-.37-.236,0,0Zm4.534,1.809c-.332.751-1.191,1.167-1.7,1.8-1.413-.181-3.42.014-3.4-1.085.7-.4,1.167-.314,1.135.362.431-.82-.233-2.874,2.834-2.891a1.511,1.511,0,0,0,1.133.723c-.158.758-1.512-.522-2.267.362C740.974,1065.136,742.811,1064.689,743.156,1065.191Zm.565,1.443c.24.154-.37-.235,0,0Zm.567-18.789h-1.7V1046.4C744.481,1046.036,744.448,1046.9,744.288,1047.845Zm1.7-3.253c-.115,1.082-2.355-.348,0,0Zm-.567-2.171c.447-1.266,1.981-.413,2.834,0C747.342,1043.39,746.461,1042.961,745.423,1042.421Zm5.669,13.735Zm2.831,32.163c-.115,1.082-2.355-.345,0,0Zm3.4-7.226c-1.378-.338-3.233-1.447-2.267-2.171h1.7C756.129,1080.321,758.76,1080.209,757.325,1081.093Zm-.567-10.12c-2.3.082-1.028-2.8,1.134-2.168C758.163,1069.938,757.084,1070.218,756.758,1070.973Zm3.4,13.731h-1.132v-.724h1.132Zm-1.7-30.719c1.236-.061,1.8.3,1.7,1.089C758.92,1055.135,758.353,1054.777,758.458,1053.985Zm3.969,29.637c-2.506-.522-1.959-1.59-1.7-3.253.9-.03,2.163.171,2.267-.365C764.043,1080.581,762.769,1082.735,762.427,1083.622Zm1.119-4.912c-.539-.2-.351-.133,0,0Zm1.145,7.8c-.953,1.28-1.769-1.178,0,0Zm-1.06-7.772c.206.078.447.167.637.235-.043-.013-.088-.03-.144-.051C763.92,1078.847,763.759,1078.786,763.631,1078.738Zm.493-40.648c-.263-.775.811-.69,1.7-.727C765.577,1037.81,765.1,1038.107,764.124,1038.09Zm2.269,41.556c-.372-.239.236.15,0,0Zm1.133-26.019c.064-.922.107-1.861,1.7-1.806C769.337,1052.855,769.295,1053.791,767.526,1053.627Zm0-3.615c-.37-.235.238.15,0,0Zm-.565-2.167c-4-2.048-.311-6.465,4.513-6.11-1-.095-.391-1.212-1.682-1.119-1.164.1-1.132.966-1.7,1.447-2.588-1.331,3.03-2.925,2.835-5.059-.065-.925-1.9-.72-3.4-.723-.525-1.632,4.076-1.195,5.1-.724-.969,3.072-1.234,4.113-.567,6.144a2.526,2.526,0,0,1-.52.041,7.586,7.586,0,0,1,1.651.321c-.045.512-.09,1.024.568,1.085C771.366,1044.629,770.17,1046.882,766.961,1047.845Zm7.933-11.929c3.538.355.021,1.078,0,2.174C772.292,1038.073,775.727,1037.059,774.894,1035.916Zm-.567,41.559c.238.153-.373-.236,0,0Zm.567-25.295c.239.153-.372-.236,0,0Zm0,7.952c.239-.693.2-1.556,1.7-1.447C777.616,1059.3,776.42,1060.108,774.894,1060.132Zm3.4-22.042c-.115,1.078-2.353-.348,0,0Zm2.267,31.8c-.115,1.082-2.352-.344,0,0Zm-1.7-20.96q1.855-.1,1.7,1.085C779.324,1050.077,778.756,1049.719,778.86,1048.927Zm4.535.724c-.953,1.276-1.77-1.178,0,0Zm-.568-11.927c3.819-.313-.316,2.325,0,0Zm2.835,38.669c-.115,1.082-2.355-.348,0,0Zm.567-30.354c1.718-1.338,1.908,1.1,0,0Zm3.4,11.2c-.669,1.1-3.006-.389,0,0Zm0,19.879c-.372-.236.238.15,0,0Zm0-27.1c3.049.178.147,2.028,0,0Zm1.135,22.766c-.327,1.451.476-2.136,0,0Zm1.133-14.455c-.177,1.574,2.954,2.229,5.1,1.809C795.246,1064.214,787.953,1060.778,791.9,1058.323Zm.567-3.249c-.372-.239.235.15,0,0Zm0-3.976c-.372-.239.235.15,0,0Zm1.132,3.252c-.825,1.2-1.408-1.409,0,0Zm.567-8.311c-.088-1.014,1.6-1.177,2.267-.723C796.293,1045.951,795.453,1046.138,794.162,1046.039Zm3.4,3.973c.265.772-.811.69-1.7.724C796.111,1050.292,796.587,1049.995,797.564,1050.012Zm-3.4-.724c.239.154-.371-.232,0,0Zm.568,17.346c2.227.123,2.3-2.324,4.531-1.081-.626,1.116-3.228.972-1.7,2.529a4.63,4.63,0,0,1-2.269.358A1.716,1.716,0,0,1,794.73,1066.634Zm3.967-2.529c-.953,1.28-1.77-1.177,0,0Zm-3.4,11.926c-.37-.235.238.15,0,0Zm8.5,10.12c-1.772-.375-2.92,1.39-5.666,1.444-.5,1.246-.145,3.038-2.834,2.891,1.092-.509,1.025-1.754,1.7-2.529-2.607-.649-.589-2.014-2.267-3.253.372-1.082,1.21.348,2.267,0-2.471-1.13-1.009-2.891-2.267-5.058,3.2-1.485,2.3-.014,5.666-.362.072.648-.693.764-.568,1.444,1.735.263,1.671-.622,3.4-.359-.024.618.421.932,1.133,1.082C802.9,1082.776,803.412,1085.144,803.795,1086.151Zm-2.831-10.12c-.115,1.082-2.353-.345,0,0Zm3.4-11.564c-.37-.239.238.15,0,0Zm-1.7-18.793c-5.607,1.147-7.714-3.195-11.338-3.973,1.3-1.2.846-1.174,0-2.533,2.666-1.027,4.817-.324,7.933,0,1.231.062.26-1.28.567-1.8,1.454.041.913,1.348,1.7,1.8.511-.634.046-.812,2.264-.358.41,1.43.107,3.3,1.7,3.976C805.045,1044.684,802.866,1044.305,802.666,1045.674Zm2.832,37.948Zm1.7-10.482H804.93C804.269,1071.884,808.1,1071.461,807.2,1073.14Zm2.267-35.05c-.953,1.273-1.769-1.181,0,0Zm3.4,34.326c-.115,1.083-2.355-.344,0,0Zm1.7,13.012c.781-1.465-1.232-1.144-1.135-2.171,1.338.532,1.055.764,2.834.365C817.17,1084.189,815.992,1085.281,814.566,1085.428Zm2.834-2.171h-1.135v-.724H817.4Zm-.567-11.2c.246-.447.725-.744,1.7-.723C818.8,1072.1,817.724,1072.02,816.833,1072.058Zm4.534-16.625c.235.153-.372-.236,0,0Zm4.534-19.876c.235.154-.372-.235,0,0Zm1.7,8.312Zm.567,33.248c1.939-.656,3.14-1.223,5.667-2.171-1.159,1.72-.982,2.6.568,3.976C831.816,1078.642,830.17,1077.765,828.167,1077.117Zm6.235-.366c.238.154-.372-.235,0,0Zm-1.7-8.311c.024-1.618,3-.061,3.966,0C836.382,1069.7,833.43,1068.99,832.7,1068.44Zm7.933,15.182c-1.451,1.055,2.13-1.556,0,0Zm9.068-7.953c-1.943,1.775-7.636,1.157-10.77,2.171-.493-.529-.45-1.4-2.265-1.089.391-1.13,1.513-.471,2.832-.358.415-1.106-.977-1.065-.567-2.171,3.086-1.044,5.8-1.215,7.371-2.529.615.092.383.72,1.132.723-.056.929-2.213.519-2.267,1.448,1.033.751,2.345-1.376,4.534-1.086.209.618-.441.683-1.135.724C848.579,1074.458,848.255,1075.632,849.7,1075.669Zm.568-1.8Zm-1.136-36.14v-1.443C851.373,1036.032,850.99,1037.8,849.135,1037.724Zm2.268-1.808c-1.507,0-3.236.14-3.967-.359a7.348,7.348,0,0,1,2.835-1.805c0-.966-1.794-.785-1.7-1.809,1.949.324,4.248.426,5.1,1.447C851.949,1034.356,851.483,1033.461,851.4,1035.916Zm61.209,12.291c-2.095-1.1,1.719-1.219,0,0Zm-2.834-10.483.038-.169-.077.342-.029.129.029-.129Zm0,5.062v.724h-1.135v-.724Zm-1.135-9.754c-.2.47-.995.563-1.132,1.078C905.654,1033.912,906.646,1032.714,908.643,1033.032Zm-2.267-1.448c-.369-.238.238.15,0,0Zm-.565,19.152c-.412,1.1.977,1.061.565,2.167-1.014.048-1.2-.443-2.267-.358C904.634,1051.913,904.09,1050.6,905.811,1050.736Zm-2.834-5.782c-1.9.874,1.37-1.212,0,0Zm-.567,12.284c.267.772-.809.693-1.7.724C900.956,1057.518,901.435,1057.221,902.41,1057.238Zm-1.133-11.564c.236.154-.372-.235,0,0Zm.568,5.782c.235.154-.372-.235,0,0Zm0-9.035c-.091.427-1.036.307-1.7.365.051-.512.094-1.024-.567-1.085C900.421,1040.51,901.176,1042.319,901.845,1042.421Zm-5.669-13.731c1.483-.1,2.438.133,2.267,1.089C896.962,1029.878,895.606,1029.9,896.176,1028.69Zm1.135,11.567c-.956,1.277-1.772-1.181,0,0Zm-.568-7.952c1.547,1.1-1.726-.987,0,0Zm.568,22.4c.235.153-.373-.236,0,0Zm-2.838,9.758c-1.9.874,1.371-1.212,0,0Zm-.564-3.615c-.115,1.083-2.356-.344,0,0Zm.564-5.419c-.35,1.1-1.258,1.85-3.4,1.805A5.89,5.89,0,0,1,894.473,1055.433ZM878.6,1033.752c-.366-.236.241.15,0,0Zm-3.4-4.7h1.135v.727h-1.135Zm-1.132,7.591c1,2.027,2.358.187,5.1.361-2.412-1.522,2.077-.767,1.135-3.252,3.3-.751,5.262,2.952,2.266,2.891,2.3.338,2.511,2.01,3.4,3.252-2.357.185-2.35,1.874-3.4,2.891-1.193-.454-2.606-1.846-1.7-2.529-2.307-.822-4.78-1.529-7.369-2.167A1.531,1.531,0,0,0,874.073,1036.643Zm-.568,31.077c-1.9.874,1.371-1.212,0,0Zm-12.467-19.513c-.115,1.081-2.355-.348,0,0Zm-4.534,7.587Zm5.1,32.163c-2.063.351-.262-1.761-2.836-1.085-.081-1.137,1.456-1.243,2.836-1.444C860.233,1086.585,860.915,1086.7,861.6,1087.957Zm.568-18.07c-1.654.533-1.654-1.614,0-1.082Zm-.568-3.253c1.227-.747.03-1.228-1.134-1.443.675-1.263,1.94-1.011,3.4-.362C864.108,1066.064,863.7,1066.887,861.6,1066.634Zm2.832,19.152c.239.154-.371-.236,0,0Zm1.7-.72c-.827-.318-2.2-.287-1.7-1.444C865.931,1083.51,866.3,1084.121,866.14,1085.066Zm2.264,1.444a1.543,1.543,0,0,1-1.132-1.444c1.547-.266,1.14.72,2.267.72C869.4,1086.182,868.412,1086.035,868.4,1086.51Zm.568-12.288c.2-1.56,1.522-2.4,3.969-2.529-.3,1.41,3.029,2.382,2.832,2.529C873.913,1075.147,871.819,1073.8,868.972,1074.222Zm8.5-5.417c-1.9.871,1.368-1.215,0,0Zm3.4-20.237c-.915.1-.977-.344-1.7-.361C878.95,1047.5,881.755,1047.678,880.874,1048.568Zm-1.135,9.394a1.724,1.724,0,0,1,.568-1.806c1.541-.256-.407,1.7,1.135,1.447C881.351,1058.023,880.406,1057.907,879.739,1057.962Zm2.834,27.824c-1.177-.2-1.2-.56-.564-1.082h1.132C883.3,1085.288,882.606,1085.325,882.573,1085.786Zm2.268-22.4c-.115,1.082-2.356-.345,0,0Zm0,19.151c-1.178-.2-1.2-.559-.568-1.082h1.135A1.371,1.371,0,0,0,884.841,1082.533Zm1.7-20.595c-1.178-.2-1.2-.563-.565-1.086h1.133C887.268,1061.436,886.572,1061.477,886.54,1061.938Zm1.135-5.782c-.115,1.082-2.353-.345,0,0Zm-.567-23.49c.23-.9,2.6-.273,1.7.724C887.552,1033.591,888,1032.7,887.108,1032.666Zm2.834,26.019c-.115,1.086-2.355-.345,0,0Zm2.835,10.12c-.579-.235-.589-.833-1.7-.723-.072-.649.7-.762.568-1.448,1.906.11,4.914-.481,4.534,1.086C894.615,1068.556,893.057,1067.153,892.777,1068.805Zm3.966,9.393c.236.154-.372-.235,0,0Zm12.468-14.816c-1.8-2.379-3.378.979-4.534,2.171-2.685-.338-3.925-1.594-5.669-2.53-1.3-.112-.627,1.045-1.7,1.082-3.8-.672-2.511-5.58-.568-6.5,1.049,2.229,3.632-.73,4.534,1.806-1-.523-1.293-.331-1.135.723,1.6-.068,2.414-.628,2.268-1.809a10.3,10.3,0,0,1,5.1.724c.161.584-.535.621-.568,1.085,1.615-.539,2.878.471,3.4-1.085,2.633.249,2.085,2.526,3.966,3.253C915.246,1062.737,909.9,1062.037,909.211,1063.382Zm1.132,18.431c-1.735-.355.653-.966.567-1.444.643.065.316.362,0,.359a1.528,1.528,0,0,0,1.135.723C911.981,1082.731,910.169,1080.683,910.343,1081.813Zm2.834-10.478c-.369-.236.238.15,0,0Zm1.7,10.116c-1.135.123-1.772-.075-1.7-.723h1.7Zm-2.265-31.439c-.1-1.116,1.995-1.625,2.832-1.085C915.053,1049.644,913.934,1049.893,912.612,1050.012Zm20.4-14.817c.243.69,1.619.656,1.135,1.809,1.705-1.044,1.978.861,4.531.359.45,1.252-.626,1.526-1.129,2.171-2.621-1.857-11.076.44-9.636-4.7A5,5,0,0,0,933.013,1035.195Zm-5.1-4.338v1.086C926.26,1032.475,926.26,1030.328,927.914,1030.857Zm-1.7-.358c.206,1.095-1.847.751-2.837,1.085C923.171,1030.485,925.224,1030.833,926.215,1030.5Zm-.568,2.167c2.5.908-1.59,2.8-1.135,4.7-1.183.157-1.5-.246-2.267-.359C922.5,1035,925.634,1034.827,925.647,1032.666ZM921.113,1037c2.481.536-.075,1.141-.567,1.806C919.467,1038.773,921,1037.462,921.113,1037Zm-2.834,25.3c-.37-.236.238.15,0,0Zm5.1,26.739c-.528-1.662,2.181-1.256,2.269-2.529.418.938,1.86,1.222,2.267,2.17C924.9,1089.435,926.137,1087.4,923.378,1089.039Zm1.134-3.253c.239.154-.372-.236,0,0Zm8.5-5.058c-.115,1.085-2.353-.345,0,0Zm-4.534-13.37c1.365-.71,1.306-1.805-.565-2.167a6.828,6.828,0,0,1-2.834,3.249c1.2.365,3.4,1.048,1.7,2.171q-1.854.1-1.7-1.085c-.889,1.242-3.884,1.14-4.534,2.532-.843-.549-.913-1.59-1.135-2.532,1.8-.659,3.809-1.185,4.534-2.53-1.828-.03-4.224-3.338-2.265-4.7,1.422.867,1.791.157,2.832,1.082.15-1.27,7.652-.782,8.5,1.447C931.1,1064.156,932.3,1068.092,928.479,1067.358Zm7.368-3.976c-1.1.143-.827-1.645.568-1.082C936.573,1062.883,935.879,1062.921,935.847,1063.382Zm1.135-18.066c1.009,1.283.707,3.4,2.832,3.972C935.368,1054.791,925.966,1045.333,936.982,1045.316Zm3.967-9.4c-.827,1.2-1.411-1.407,0,0Zm27.769,41.2c-.369-.236.238.15,0,0Zm-.567-16.626c-2.458-.147.6-2.1,0,0Zm-13.6-24.934h1.135v.724h-1.135Zm-13.032,23.49c-.9-1.655,2.35-.669,2.265-1.809.645.072.316.365,0,.365-.046.512-.094,1.021.567,1.082C943.5,1059.46,942.961,1058.429,941.516,1059.047Zm2.265-21.684q2.163.066,2.269,1.447C944.734,1038.687,943.393,1038.578,943.781,1037.363Zm6.8-.359c-.576-.235-.584-.832-1.7-.723v-.724a3.78,3.78,0,0,1,1.7-.362C950.245,1036.349,951.647,1036.315,950.582,1037Zm1.7,28.187c-.372-.239.236.15,0,0Zm5.1-9.4v.724h-3.4C953.445,1055.211,956.216,1056.013,957.386,1055.794Zm-2.838,30.357c-1.721.987,1.547-1.1,0,0Zm3.97-13.735c-1.411,1.41-.827-1.2,0,0Zm1.132,11.926h-1.7c.6-.334.177-1.334,1.7-1.085Zm-2.832-15.9c.375-1.184,2.241-.863,1.132-2.167h1.7c-.634,1.14-.048.819,0,2.167C958.239,1068.481,957.9,1069.119,956.818,1068.44Zm2.832-1.082c.115-1.082,2.355.345,0,0Zm2.834-37.945c-.115,1.086-2.352-.344,0,0Zm.568,53.844c-1.411,1.413-.827-1.195,0,0Zm0-14.817c.238.154-.37-.235,0,0Zm1.132-6.14a2.131,2.131,0,0,1-1.7-2.529c1.965-.29,2.179.536,3.967.361-.2.475-1,.567-1.132,1.083,1.734.262,1.667-.622,3.4-.363v1.448C967.139,1061.962,965.348,1060.993,964.184,1062.3Zm3.4,22.042c.235.15-.372-.235,0,0Zm1.7-.362c-1.7.366-1.006-.8-1.134-1.447h1.7C970.091,1083.291,969.465,1083.492,969.285,1083.98Zm-.567-4.7c-.458-1.618,1.009-2.007,2.835-2.167C972.01,1078.731,970.543,1079.12,968.718,1079.284Zm3.4-40.474c1.472-.215,2.039.143,1.7,1.085C972.583,1039.96,972.018,1039.595,972.12,1038.81Zm1.7,33.606c-1.651.533-1.651-1.614,0-1.081Zm.565-3.611c-.112,1.082-2.352-.348,0,0Zm1.7,3.611c-.313-.8,1.082-.512,1.135-1.081C978.629,1071.481,977.253,1072.734,976.086,1072.416Zm6.234-19.151c1.314.1,1.3.966.567,1.444C981.972,1054.354,981.584,1053.746,982.32,1053.265Zm1.7,26.739c-2.125.147-2.87-1.676-2.265-2.164h2.265Zm167.757-37.941c.412,1.106-.98,1.065-.565,2.167C1149.087,1044.483,1149.828,1041.5,1151.777,1042.063Zm-1.135,14.455c-.39.713-1.512.962-2.834,1.085C1145.936,1055.549,1149.413,1054.842,1150.642,1056.518Zm-6.8-25.3c-.372-.235.241.151,0,0Zm-16.434,20.234c-.115,1.085-2.353-.341,0,0Zm-1.132,16.984c-.61.338-.18,1.338-1.705,1.086C1124.471,1068.737,1125.036,1068.379,1126.275,1068.44Zm-9.639-1.806c.239.154-.368-.235,0,0Zm-11.332-12.649c-.843-.3-.822-1.16-1.135-1.8C1106.128,1051.927,1106.2,1053.446,1105.3,1053.985Zm1.135,7.591v1.085h-1.7C1104.635,1061.873,1105.2,1061.511,1106.439,1061.576Zm-3.969-7.949c-.321,1.119.152,2.747-1.7,2.891C1101.437,1055.62,1100.508,1053.7,1102.47,1053.627Zm-.568-16.264q-2.211.327-1.7-1.082C1100.733,1036.667,1102.293,1036.393,1101.9,1037.363Zm-10.767,1.447h1.7c.244.758-.388.959-.565,1.447C1091.268,1040.169,1090.977,1039.636,1091.135,1038.81Zm-7.937-5.778c3.255.266,3.191-1.584,6.8-1.089.781.467.562,1.57.57,2.532-1-.809-4.055-1.86-3.967.362C1085.064,1034.489,1082.693,1034.677,1083.2,1033.032Zm4.538,35.773a1.474,1.474,0,0,1,2.264-1.085C1090.174,1068.672,1089.218,1068.908,1087.736,1068.805Zm-7.369-37.221c.056.359,1.212,2.587-.565,2.526.479,1.062,1.424-.467,2.832,0-.2.478-1,.57-1.132,1.085a15.442,15.442,0,0,1,6.234.362c.757,2.287-2.192,2.215-2.838,3.611-2.01-.809,2.7-2.222-1.7-1.8-.5-1.157,1.871-.492,1.7-1.447-1.973-.656-5.818,1.74-9.062.365.486-1.382,2.949-.365,3.966,0C1077.816,1034.711,1079.495,1033.714,1080.367,1031.584Zm-.565,18.067c2.134-1.577,3.689-1.656,6.8-2.168C1086.229,1049.272,1082.473,1050.5,1079.8,1049.651Zm2.265,22.765c.237.154-.37-.235,0,0Zm-1.7-26.377Zm5.666-2.529c-2.32-.089-2.545-1.509-2.835-2.894C1087.784,1040.807,1084.794,1041.4,1086.033,1043.51Zm-6.231,18.066v1.085C1078.146,1063.191,1078.146,1061.044,1079.8,1061.576Zm-1.135,10.482c.158.58-.538.618-.567,1.082-.613-.088-.383-.717-1.135-.724-.1-.307.222-.341.567-.358Zm-2.831,3.973h-1.706c.2-.723-.112-1.133-1.132-1.085,1.173-.717,2.929-.809,3.4-1.082C1078.2,1074.468,1074.65,1074.632,1075.836,1076.031Zm-1.136-43c1.061.4,1.205,1.4,2.265,1.805C1075.56,1036.093,1073.183,1033.711,1074.7,1033.032Zm-.57,40.832c-.369-.236.242.15,0,0Zm-10.2-38.307c.236.154-.372-.235,0,0Zm-.57,3.611Zm-17-5.058c.239.154-.369-.235,0,0Zm-1.7,3.614h1.135c-.1.311.222.342.564.366C1046.586,1038.786,1043.781,1038.615,1044.662,1037.724Zm1.7,1.81c.488.655,1.459,1,1.7,1.8-2.3-.02-2.147,1.526-3.967,1.809C1043.142,1042.278,1047.7,1041.848,1046.361,1039.534Zm2.268,5.782c-.37-.239.235.15,0,0Zm1.134,26.742v.72h-1.134v-.72Zm-.57,4.693h-2.262c.239-.751-.393-.955-.57-1.44C1046.335,1075,1049.137,1075.919,1049.193,1076.751Zm-3.4-29.268c.134-.635.971-.823,2.267-.72C1048.634,1047.848,1046.8,1047.4,1045.8,1047.483Zm-.57-.72c-1.264-.266-.273-2.062,1.134-1.809C1045.784,1045.428,1045.805,1046.285,1045.227,1046.763Zm2.27-3.977Zm-4.535.724h1.135v.72h-1.135Zm-1.7,17.342c1.413.147.035,1.4-1.135,1.086C1040.331,1061.463,1041.126,1061.371,1041.26,1060.852Zm-1.135,9.4c-.112,1.082-2.35-.345,0,0Zm-18.7-36.139c.768.113.469.908.57,1.447C1021.06,1034.837,1019.717,1034.731,1021.424,1034.11Zm-16.433,0c.237.154-.375-.235,0,0Zm-9.069,23.852c.236.153-.372-.236,0,0Zm-1.135-5.782Zm-3.4-16.264c.239.157-.372-.232,0,0Zm-.567-7.226c-.113,1.082-2.353-.342,0,0Zm-.565,34.333c.235.151-.372-.235,0,0Zm2.832,3.973c-1.475-1.167-2.907-2.4-6.234-1.443-.589-1.943,2.184-1.738,2.267-3.253,2.428,1.666.172,1.608,2.834,3.611a18.162,18.162,0,0,0,2.832-1.082c.27-1.6-.776-1.795,0-2.891,2.125.331,2.4,1.843,2.835,3.253A8.857,8.857,0,0,0,993.088,1067Zm7.936,5.062h-1.135v-.723h1.135Zm.567-33.968c-.372-.239.236.15,0,0Zm2.264-7.591c-1.72.986,1.548-1.1,0,0Zm0,4.7c-.216.141,1.708.389,1.7.362C1005.716,1036.134,1002.5,1036.063,1003.855,1035.195Zm1.7,38.669c-.369-.236.238.15,0,0Zm2.835,0a3.7,3.7,0,0,0-1.7-.362,1.533,1.533,0,0,0,.567-1.444C1008.943,1071.98,1009.257,1073.345,1008.39,1073.864Zm1.7-37.948c.235.157-.375-.232,0,0Zm1.7,16.987c1.307-.109.629,1.044,1.7,1.082C1012.808,1055.077,1011.013,1053.931,1011.791,1052.9Zm0-1.8c.008-.717,1.547-.461,1.133-1.447C1014.915,1050.118,1013.647,1052.275,1011.791,1051.1Zm4.532-5.059c-.369-.235.238.15,0,0Zm1.135-.723c-.37-.239.238.15,0,0Zm3.966,37.941Zm2.267-3.611c-1.408.471-2.35-1.062-2.831,0-1.395-.256,1.967-2.079-.565-2.171,2.114-.775,1.308,1.137,3.961,1.085A1.379,1.379,0,0,0,1023.691,1079.646Zm-2.267-34.692c-.222-1.468.209-2.519,2.267-2.533C1024.887,1043.363,1024.513,1045.626,1021.424,1044.954Zm2.267-3.977c-.112,1.086-2.355-.344,0,0Zm0-1.443c-.672.894-2.055,1.337-4.531,1.082,1.421-1.379,3.016-2.652,3.4-4.7,5.16,1.126,3.006,3.392,2.267,5.785C1024.184,1040.936,1024.6,1040.653,1023.691,1039.534Zm2.27,4.7c-1.413,1.413-.827-1.2,0,0Zm2.831-9.393c-.112,1.079-2.354-.348,0,0Zm5.667,27.1c-.169-.952.787-1.184,2.27-1.086A1.477,1.477,0,0,1,1034.459,1061.938Zm2.834,24.934Zm11.9-7.95c-1.153-1.31-4.582-1.171-7.933-1.082,1.611,2.15-1.253,2.222-2.264,3.611-1.954-1.082,1.6-2.5,1.7-3.976,5.429-.017,5.888-.553,9.633,0A1.547,1.547,0,0,1,1049.193,1078.922Zm2.27-12.649h-1.135v-1.444h1.135ZM1047.5,1037c.267-2.764,3.77-1.6,4.533-3.614C1054.145,1034.431,1052.333,1039.247,1047.5,1037Zm4.533,13.732c.2-.475,1-.57,1.132-1.085.616.091.386.716,1.133.723C1054.121,1050.865,1052.879,1050.674,1052.03,1050.736Zm9.636,25.657c.233.154-.374-.236,0,0Zm.564-3.253c.239.154-.368-.235,0,0Zm-3.4-13.731c10.251-2.789,1.382,8.13,0,0Zm5.1,4.7c-.118,1.082-2.355-.344,0,0Zm-2.267-16.26c-1.309.109-.632-1.045-1.7-1.082,1.777-.754,3.235-1.929,1.7-2.894,1.156-.727,1.11.16,2.267.361A8.116,8.116,0,0,1,1061.666,1047.845Zm3.966-6.144c-2.3,1.031-3.688-1.178,0,0Zm.565,20.96c-.953,1.277-1.769-1.18,0,0Zm1.7-2.529Zm1.7,22.043c-.377,1.038,1.149-3.171,0,0Zm.565-2.891c-1.665-.942-.3-1.567-.565-3.253C1071.454,1076.649,1070.365,1078.065,1070.164,1079.284Zm-.565-38.307c.236.154-.375-.235,0,0Zm.565,32.887c-.37-.236.238.15,0,0Zm-5.1-38.669c2.182-1.259,4.216-2.614,7.936-2.89.573,1.085-1.26.641-2.264.727,2.936,1.272,1.055,1.5,3.4,2.525-1.777.993-4.027-.788-5.666-1.082-.358,1.314,1.175,1.42,2.835,1.441C1069.961,1037.615,1066.224,1035.878,1065.062,1035.195Zm6.237,26.02c1.715-1.335,1.908,1.1,0,0Zm13.6,19.154c.983,1.7-3.059,2.372-5.666,2.888-.238-.751.391-.956.57-1.444H1073c-.506-.764-1.726-1.068-1.7-2.167,5.423-1.133,7.173-3.448,9.633-5.782-1.009,1.218-.239,1.938,1.135,2.529.281.031.281-2.2,0-2.171.326-.529,3.032.451,2.267,1.809,1.525.014,1.525-1.819,0-1.809.492-.542.848.1,2.269-.358-.074-.8-2.409-.154-3.405-.362.167-.222,1.414-1.393,0-1.444,1.336-1.625,4.021,2.509,3.97-.365,1.967.556,2.593,1.962,4.537,2.529.286,1.7-3.1,3.8,1.129,3.976C1091.335,1081.141,1089.226,1080.649,1084.9,1080.369Zm9.068,4.7c-1.362-1.772-1.6-2.2-1.132-3.973,2.372-.307,2.246.976,3.4,1.44A6.818,6.818,0,0,0,1093.966,1085.066Zm2.835-50.591c-.369-.235.238.15,0,0Zm-5.1-.365c.01-.348.69-.276,1.129-.358a1.722,1.722,0,0,1-.565-1.809c2.1.283,4.171-1.4,3.967.362,2.65.365,1.882-1.448,4.531-1.083-1.218.772-.208,1.97,1.135,2.168.265,1.252-3.078.2-3.4,1.085-1.242-.054-1.215-.915-1.132-1.809C1095.267,1033.683,1094.563,1033.461,1091.7,1034.11Zm6.8,1.085c.667.058.479.663.565,1.086h-1.7C1097.569,1035.806,1098.364,1035.711,1098.5,1035.195Zm0,47.7c-1.41,1.406-.829-1.2,0,0Zm2.834-1.448c-2.481-.563-1.461-3.044,0-3.976.094-.782-2.012-.164-2.834-.358,1.057-.772,1.791-1.748,3.967-1.806-2.283,1.638,1.734.239,4.534,1.082C1107.381,1079.707,1100.208,1078.673,1101.337,1081.451Zm6.8.724c-1.014-.048-1.194.444-2.267.358v-1.082C1106.873,1081.533,1108.706,1081.09,1108.136,1082.175Zm1.135-19.875c-.669,1.1-3.006-.393,0,0Zm2.269,24.572c.233.153-.374-.236,0,0Zm0-6.144c.233.153-.374-.236,0,0Zm.565-1.806c.238.154-.369-.235,0,0Zm2.267.362c-.915.1-.977-.341-1.7-.362C1112.448,1078.223,1115.25,1078.393,1114.372,1079.284Zm.565,11.2H1113.8v-.724h1.135Zm2.835-4.7c-1.1.147-.827-1.645.567-1.082C1118.5,1085.288,1117.8,1085.325,1117.772,1085.786Zm-.565-7.946c-.375-.239.233.147,0,0Zm4.531,1.082c-2.6-.242.455-2.188,0,0Zm-.564-5.42c2.149-.164,4.03.938,5.666,0C1127.509,1074.294,1121.411,1075.56,1121.174,1073.5Zm5.1-.724c.233.15-.375-.235,0,0Zm1.132,9.755h-1.132v-.72h1.132Zm0-2.164Zm1.7-7.953c-5.039-.091-6.926-.754-10.2,1.448-2.08-1.434-1.606-5.175,3.4-4.338-1.349-1.857-5.012-.417-6.233.723-1.191-2.625,4.245-3.99,7.368-3.253-1.919,1.413,1.588,1.905,0,3.253,2.744-.665.541.212,1.7,1.444a5.068,5.068,0,0,1,5.1-.72C1130,1071.539,1128.456,1071.28,1129.106,1072.416Zm-1.134-24.933q.1-1.382,2.27-1.444C1130.172,1046.954,1129.414,1047.438,1127.972,1047.483Zm5.666,21.322c-.369-.238.241.151,0,0Zm2.27-22.766c-.37-.235.238.15,0,0Zm2.267-10.844c-1.306-.368-3.014-.484-2.832-1.8a7.166,7.166,0,0,1,3.4.362C1138.814,1034.4,1138.046,1034.516,1138.175,1035.195Zm1.7,49.147Zm1.7-46.979c-1.59-.625-.53-.946-.565-2.168,1.78-.051,1.946.929,2.267,1.809C1142.468,1036.974,1141.67,1036.943,1141.574,1037.363Zm1.135,3.253c1.48-.1,2.435.133,2.267,1.085C1143.889,1041.547,1142.535,1041.568,1142.709,1040.616Zm6.8,43.006c.249-.447.725-.744,1.705-.723C1151.472,1083.667,1150.4,1083.584,1149.507,1083.622Zm-1.7-19.878c-1.89.361-1.963,1.884-3.967,2.167-.308-2.727,4.842-1.97,5.1-4.335,1.958-.287,2.389.4,3.4.724,1.512-2.041-3.073-4.359-3.4-1.809-2.832-.734.807-1,.564-2.168.749.369,2.091.355,2.835.724,1.437-.481-.83-1.6-.565-2.529C1158.806,1058.87,1154,1069.894,1147.808,1063.744Zm8.5,18.789c.238.154-.369-.232,0,0Zm.57-.72c-.117,1.082-2.355-.345,0,0Zm0,3.973c.239.154-.374-.236,0,0Zm-.57-49.143c-2.208-2.362,2.81-3.833,4.537-1.806C1160.155,1035.96,1159.311,1036.991,1156.308,1036.643Zm5.672,28.548c.693.157,1.164.461,1.132,1.082C1161.9,1066.443,1162.031,1065.761,1161.98,1065.191Zm103.145-35.412h2.265C1267.837,1031.168,1264.679,1031.168,1265.125,1029.779Zm-6.8-2.171c.31.8-1.088.512-1.133,1.082C1256.178,1028.8,1257.157,1027.29,1258.325,1027.608Zm-1.7,3.249c.238.157-.37-.235,0,0Zm3.4,1.809a6.89,6.89,0,0,1-3.967,1.086c.07-.649-.695-.765-.57-1.447C1257.939,1032.311,1258.67,1031.639,1260.024,1032.666Zm-2.832,17.346c.233.15-.374-.235,0,0Zm-1.7,5.421Zm0,13.731Zm-1.7-40.112c-1.407,1.413-.823-1.2,0,0Zm-18.136,4.7h1.135v.723h-1.135Zm-.564,8.669c-.67,1.1-3.006-.389,0,0Zm-7.938,4.7c.059.038.1.065.005,0l-.005,0Zm1.7,3.618c-2.053.348-.473-1.625-2.261-1.448C1227.317,1048.387,1229.335,1049.671,1228.85,1050.736Zm-8.5.362c1.716-1.338,1.909,1.095,0,0Zm-.534-19.132-.036-.023Zm-.036,12.988c-.369-.239.241.15,0,0Zm-12.464-16.623c-1.9.874,1.367-1.215,0,0Zm-1.7,24.572c1.491-.109,1.86.5,1.7,1.447h-1.7Zm-31.738-12.646c-.983-.218.042-1.717-1.135-1.809,2.09-.2,4.06,2.495,3.4,4.338-1.164,1.178-2.928-.266-3.966-.365C1173.133,1041.2,1170.93,1040.206,1173.88,1040.257Zm-2.832,31.436c.233.153-.375-.236,0,0Zm2.832,15.179c-1.85.092-2.728-.427-2.832-1.444a7.217,7.217,0,0,1,3.4.358A1.375,1.375,0,0,0,1173.88,1086.872Zm-2.267-16.261c.238.154-.37-.236,0,0Zm2.267-13.008c-.372-.239.235.15,0,0Zm2.834-1.809c-1.408.5-3.576,1.792-5.1,1.086v2.529c-3.442.269-2.976-1.956-4.534-2.891,2.617.147,6.137-1.116,5.1-2.891,1.525-.331,3.136-1.8,4.536-1.082.19,1.686-1.574,2.13-2.834,2.888C1173.783,1056.218,1175.887,1055.6,1176.714,1055.794Zm-.57-17.7c.664.055.479.655.57,1.078C1174.827,1039.417,1175.8,1038.424,1176.144,1038.09Zm4.537,14.09c-.461-.069-.565-.362-1.135-.359.11-.293.57-.362.565-.723.46.068.565.361,1.135.358C1181.136,1051.749,1180.676,1051.818,1180.681,1052.18Zm1.7-4.335c-.115,1.082-2.355-.348,0,0Zm9.068,41.556Zm-1.7-13.008c1.443.044,2.2.526,2.264,1.447C1190.573,1077.8,1189.818,1077.311,1189.749,1076.393Zm2.832-.724c.235.154-.372-.235,0,0Zm1.135,11.2c-.956,1.279-1.772-1.178,0,0Zm.564-34.327c-.369-.239.241.147,0,0Zm2.27-23.132a4.552,4.552,0,0,1-1.7,2.53C1193.5,1031.291,1194.719,1029.236,1196.55,1029.413Zm-.57,53.12c.238.154-.369-.232,0,0Zm1.7-1.44c-1.137.119-1.772-.075-1.7-.724h1.7Zm.567-15.182c-1.9.877,1.368-1.212,0,0Zm5.1,1.809c-2.6-.239.458-2.188,0,0Zm2.835,13.373c-1.716,1.335-1.909-1.1,0,0Zm1.135-4.7c-.827,1.2-1.414-1.41,0,0Zm5.1-5.058c-2.443-.25-4.307-.871-5.1-2.171a3.707,3.707,0,0,0,1.7.362c.653-1.5-1.189-1.407-1.133-2.53-2.647,1.229-1.9.062-3.4-1.443.851-.543,2.385-.646,2.835-1.448.554-2.406-2.821-.665-3.97-1.444-.412-.986,1.127-.726,1.135-1.446,1.336.112,1.058,1.255,2.835,1.085,2.524-1.748-2.856-1.536-2.27-3.253,2.794.266,5.5.591,6.236,2.168-.417.644-1.03.054-1.7,0,1.308,2.44,3.011,5.338.564,6.505v2.529c2.142.522,1.087-.993,2.835-.723A1.731,1.731,0,0,1,1212.419,1071.335Zm2.832-15.541c-.369-.235.238.15,0,0Zm.565-14.817a1.385,1.385,0,0,0,.57-1.082c2.112-.382,1.828.758,2.832,1.082C1218.645,1041.994,1216.811,1040.878,1215.816,1040.977Zm3.966,13.373c-.669,1.1-3-.392,0,0Zm-1.129,21.319c-.851-.566,2.069-1.792,3.4-2.167C1223.5,1074.69,1219.662,1074.922,1218.653,1075.669Zm4.531,12.288c-.369-.239.241.154,0,0Zm0-22.766c-.369-.239.241.15,0,0Zm.567-2.891c1.781.566,1.537.737,3.967.361,1.052,1.994-3.6.356-3.4,1.806C1223.511,1063.986,1222.82,1062.86,1223.751,1062.3Zm1.133,3.973c-1.976-1.345,1.547-1.833,0,0Zm4.536,11.2c-.118,1.085-2.355-.342,0,0Zm-3.4-2.529c.326-.874,2.14-.8,3.4-1.082C1229.474,1074.98,1227.707,1074.942,1226.019,1074.946Zm4.536-10.479c.233.154-.374-.239,0,0Zm1.13,12.284c.238.154-.37-.235,0,0Zm.57-1.44c-.115,1.078-2.356-.348,0,0Zm3.4,5.782c-.369-.239.239.147,0,0Zm-1.7-33.61c-.289-1.017,1.014-3.055-1.7-2.529,2-1.359,3.137,1.109,5.1,0C1238.291,1045.9,1235.742,1047.132,1233.952,1047.483Zm6.8,12.288c-.37-.236.238.15,0,0Zm1.135-22.047c-1.184.154-1.5-.245-2.27-.361-.463-1.021.8-.935.57-1.806C1241.681,1035.687,1242.225,1036.428,1241.888,1037.724Zm2.267.366c-.825,1.2-1.411-1.413,0,0Zm1.7,2.887h-1.135v-.72h1.135Zm0-10.478c-.369-.236.238.15,0,0Zm4.537,46.976c.236.153-.374-.236,0,0Zm.565-48.062h1.135v.724h-1.135Zm2.267,60.711h-1.132v-.723h1.132Zm.564-7.225h-1.7c-.1-.789.463-1.151,1.7-1.086Zm-.564-5.059c.195-1.8,1.523-.631,2.834-.365C1256.154,1078.26,1254.045,1077.639,1253.223,1077.84Zm2.264-20.237c-.176-.641,3.177-.645,2.27.359C1256.574,1058.115,1256.255,1057.716,1255.487,1057.6Zm1.7,5.42c.693.158,1.164.461,1.133,1.082C1257.112,1064.273,1257.243,1063.59,1257.192,1063.023Zm4.531-7.229c-.369-.235.239.15,0,0Zm2.268,15.179c-1.9.873,1.37-1.212,0,0Zm-.567-15.179c-2.361-.809-3.29-1.792-6.8-1.085-.243-1.478.524-2.311,1.135-3.253,2.077,1.731.554-.884,2.267-.72,2.315-.109-.1.5.565,1.444,1.707.365,1-.806,1.134-1.444.8.031,1.607.058,1.7-.362C1266.75,1051.507,1267,1054.787,1263.424,1055.794Zm2.836,14.455c-.575-1.089,1.258-.638,2.264-.723C1268.388,1070.16,1267.55,1070.352,1266.26,1070.249Zm4.532,1.444c.238.153-.37-.236,0,0Zm.564-1.806a3.747,3.747,0,0,0-1.7-.361c-.469-1.021.8-.936.57-1.806,2.7.546,1.408-.29,3.967-.362C1273.648,1068.457,1271.916,1068.8,1271.356,1069.887Zm3.967-37.221c.238.154-.369-.235,0,0ZM1335.4,1037c-.661-.542-1.638-.883-1.7-1.809C1335.47,1035.031,1335.513,1035.967,1335.4,1037Zm-6.8-6.147c.235.157-.373-.235,0,0Zm-14.17,42.645c-2.112.382-1.828-.761-2.832-1.086.091-.423,1.033-.3,1.7-.358v-1.085C1313.969,1070.222,1314.117,1072.83,1314.43,1073.5Zm-1.132-3.976c-1.783.6-2.318-1.342-2.835-.362C1308.231,1067.962,1314.4,1067.495,1313.3,1069.526Zm-2.27,3.252v1.086c-.913.1-.974-.342-1.7-.362.109-.294.57-.362.57-.724Zm-.565-19.875c-1.715,1.335-1.908-1.1,0,0Zm-1.134,13.731c-.113,1.082-2.356-.344,0,0Zm-28.334,9.759c-.956,1.277-1.775-1.181,0,0Zm0-9.4c-1.9.874,1.367-1.211,0,0Zm6.8-35.053c.771.112.471.9.568,1.447C1287.046,1033.291,1287.057,1032.427,1287.793,1031.943Zm5.1,26.742c-.115,1.086-2.352-.345,0,0Zm-.567-18.069c.139-.635.977-.823,2.267-.721C1294.46,1040.53,1293.622,1040.718,1292.327,1040.616Zm2.832,41.917c-.825,1.2-1.408-1.406,0,0Zm.57-4.335c.238.154-.375-.235,0,0Zm1.135-11.2c3.905.529,1.52,2.052,0,0Zm2.831,18.79c-1.713.56-1.49-1.867-.57-1.806C1301.168,1083.636,1300.134,1085.54,1299.695,1085.786Zm1.135-2.164c-.995-.2-1.231-2.918,1.135-2.171C1302.113,1082.509,1300.683,1082.564,1300.83,1083.622Zm1.7-32.166c.238.154-.37-.235,0,0Zm2.267,14.455c1.834-.447.431,1.174,2.264.723C1306.882,1067.4,1304.376,1066.717,1304.8,1065.911Zm2,4.11c-.009.023-.054.167-.111.344-.037.12-.085.28-.152.485-.011.041-.024.075-.037.123-.148.471-.075.232.037-.123.048-.157.1-.335.152-.485C1306.756,1070.143,1306.788,1070.041,1306.8,1070.021Zm3.1,17.936c.235.154-.375-.239,0,0Zm-3.967-12.646c-.244-.758.385-.959.565-1.447,2.12.092,3.166.87,5.1,1.082-.139-.444,2.056-1.495,4.532-.724C1313.145,1074.444,1309.286,1076.413,1305.932,1075.311Zm11.332,2.529c-2.9,1.843,1.269-2.522,0-.365C1317.224,1077.547,1317.342,1077.789,1317.264,1077.84Zm3.967,9.393h-1.7c.6-.338.174-1.331,1.7-1.082Zm7.369-44.085c-1.095.7-3.472.376-2.832-1.085C1327.387,1041.991,1328.857,1042.019,1328.6,1043.148Zm2.834-1.447c-3.667-.7-6.137-1.884-4.534-5.058.862-.652,3.886.068,3.4-1.448-.583-.833-3.792.014-3.4-1.443,7.178.57,3.852,1.443,6.233,4.338-.318.815-.883-.44-1.7.358C1333.728,1039.131,1331.761,1040.6,1331.434,1041.7Zm5.1,8.311c-1.707.366-1.009-.8-1.135-1.444h1.7C1337.338,1049.323,1336.712,1049.524,1336.535,1050.012Zm-1.135-7.949Zm-2.267,0c-.862-1.874,2.589-1,2.832-2.168.447-1.491-2.711-.682-2.264-2.171.9-.027,2.16.178,2.264-.361,1.191.809-.848,1.908,1.7,2.171A10,10,0,0,1,1333.133,1042.063Zm7.934,40.112c1.1-1.1,1.7-1.441,1.7-2.529,2.179.59-.069,2.123,1.129,2.887C1345.143,1082.936,1341.819,1082.093,1341.067,1082.175Zm3.4-3.615c-.118,1.082-2.356-.344,0,0Zm.564-35.774c1.248-1.1,3.629.417,0,0Zm.57,44.086h1.13c-.1.307.222.344.57.361C1347.528,1087.937,1344.72,1087.759,1345.6,1086.872Zm1.7-22.767c.239.154-.375-.235,0,0Zm3.967-16.622c.238.154-.375-.235,0,0Zm-.565,17.346h1.7c.241.754-.391.959-.567,1.444C1350.129,1066.638,1350.831,1065.467,1350.7,1064.829Zm.565,2.529c.246-.444.725-.744,1.7-.724C1353.234,1067.406,1352.161,1067.324,1351.27,1067.358Zm41.938-38.306c-.4,1.287.843-2.693,0,0Zm-5.669,12.649c-.369-.235.239.15,0,0Zm-9.633-12.649c.239.153-.374-.236,0,0Zm.565,1.805c-.115,1.086-2.353-.341,0,0Zm-1.132,7.233c-.915.1-.977-.345-1.7-.366C1375.415,1037.025,1378.217,1037.2,1377.339,1038.09Zm-.567,7.584c.238.154-.37-.235,0,0Zm-3.967-8.311h1.132c-.1.31.222.345.57.361C1374.73,1038.428,1371.922,1038.257,1372.805,1037.363Zm-1.7,15.9c-.953,1.28-1.775-1.178,0,0Zm-5.1,27.1c-.37-.238.238.151,0,0Zm-2.269-8.676c-1.716,1.338-1.906-1.1,0,0Zm-7.364-44.085h1.132v1.082c-.915.106-.977-.338-1.7-.359C1355.911,1028.038,1356.371,1027.97,1356.371,1027.608Zm.565,2.171c-1.719,1.334-1.908-1.1,0,0Zm-3.4,1.8c-.4,1.284.843-2.7,0,0Zm1.7,9.393c-.118,1.086-2.356-.344,0,0Zm1.134,27.828c-1.261.2-.808-.689-1.7-.723C1354.9,1067.181,1356.866,1068.058,1356.371,1068.805Zm-1.134,6.864h1.134c-.1.308.222.341.565.362C1357.161,1076.734,1354.353,1076.56,1355.237,1075.669Zm2.266-8.311c-1.675-.522.675-1.454,2.265-1.085C1360.677,1067.7,1357.321,1066.4,1357.5,1067.358Zm10.2,23.128c-.367-.515-2.92-3.5,0-3.614C1367.664,1088.7,1368.421,1088.94,1367.7,1090.486Zm1.7-4.7c-4.7,1.5-5.278-.249-7.933,1.447-.2-.959-2.109-.826-2.27-1.805,3.394.7,8.49.891,7.936-1.448C1369.232,1083.728,1369.641,1084.55,1369.406,1085.786Zm.565-9.393c.158-.744,2.111-.341,2.269-1.082.769.109.469.9.565,1.44A5.369,5.369,0,0,1,1369.971,1076.393Zm5.1,9.393h-1.7c.31-.522-.664-1.867.564-1.806C1375.84,1083.609,1374.82,1085.107,1375.072,1085.786Zm-2.267-7.588c.963-1.047,2.84.321,3.4.724C1375.024,1080.11,1373.817,1078.311,1372.805,1078.2Zm3.967-1.081h-1.7v-1.086C1376.544,1075.813,1377.109,1076.178,1376.772,1077.117Zm.567-27.1Zm1.7,28.91c-.118,1.082-2.355-.345,0,0Zm0-1.447c-1.138.126-1.772-.075-1.7-.724h1.7Zm6.236-1.444h-1.7c.6-.338.176-1.334,1.7-1.085Zm0-30.357c-.118,1.085-2.355-.341,0,0Zm1.7,33.248c-1.408-.334-1.374-2.423,1.132-2.171C1388.712,1078.107,1386.7,1077.782,1386.975,1078.922Zm7.363,10.479c-1.181.153-1.5-.246-2.262-.362C1392.175,1087.995,1394.769,1088.172,1394.338,1089.4Zm1.7-14.455c.233.153-.375-.236,0,0Zm159.821-30.716c.155.587-.538.625-.57,1.086C1554.194,1045.459,1554.47,1043.67,1555.864,1044.23Zm-.57-14.451c-.113,1.078-2.355-.352,0,0Zm-1.7,19.148c1.234.757-.281,1.03,0,2.171h-1.7C1551.87,1050,1551.566,1048.719,1553.594,1048.927Zm0,4.338c-.372-.235.241.15,0,0Zm-2.267-4.7c-.369-.239.239.151,0,0Zm2.832,19.514c-1.523,1.058-2.2.31-3.966,0C1551.557,1067.317,1553.209,1068.02,1554.159,1068.082Zm-9.633-36.5c.447,1.39-2.711,1.39-2.267,0Zm-.564-3.253c-.7.639-.418,1.9-1.7,2.168-1.552-.639,1.973-1.529-.565-2.168C1541.828,1027.4,1542.666,1028.826,1543.962,1028.331Zm-18.137.359a4.43,4.43,0,0,1-3.4,1.447C1522.388,1028.905,1524.134,1027.72,1525.825,1028.69Zm-22.67,22.046c-1.186.153-1.5-.249-2.267-.362-.238-.754.386-.959.57-1.447C1503.224,1048.763,1503.264,1049.7,1503.155,1050.736Zm-1.132,27.1c-.827,1.2-1.413-1.413,0,0Zm-.565-21.684c-1.9.874,1.368-1.212,0,0Zm-.57-13.008c-1.234.065-1.8-.3-1.7-1.085C1499.716,1042.448,1501.279,1042.172,1500.888,1043.148Zm-1.7,5.779c.236.154-.372-.236,0,0Zm0,2.529c-.607.338-.176,1.335-1.7,1.089C1497.385,1051.753,1497.952,1051.4,1499.188,1051.456Zm-2.267-2.168a1.582,1.582,0,0,1-1.134-1.8C1498.134,1046.34,1498.859,1048.821,1496.921,1049.288Zm.568,28.552c-.161.836-1.515.83-2.267.358C1495.4,1077.707,1496.638,1077.9,1497.489,1077.84Zm-2.837-27.1c-1.325-.093-.324-1.587,0-1.809C1495.982,1049.022,1494.983,1050.514,1494.652,1050.736Zm1.705,24.933c.8.444,1.284,1.379.564,1.806C1495.144,1077.226,1496.183,1076.512,1496.357,1075.669Zm-1.135-27.824c-.918.1-.977-.342-1.7-.362C1493.3,1046.783,1496.1,1046.954,1495.222,1047.845Zm-1.7,27.1c.236.153-.372-.236,0,0Zm1.13,3.614c-.477.536-1.825.523-2.832.724-1.066-.69.337-.655,0-1.809C1494.392,1076.8,1492.594,1078.912,1494.652,1078.56Zm-2.265-2.891c-1.185.154-1.5-.245-2.267-.358C1490.142,1073.618,1493.131,1073.505,1492.387,1075.669Zm-2.267-4.334v-.724h1.135v.724Zm2.267,1.081c-.115,1.083-2.352-.344,0,0Zm-1.132-24.571c1.443.034,1.339,1.345.565,1.806C1490.838,1049.323,1490.356,1048.384,1491.255,1047.845Zm-1.7-2.171c-.118,1.085-2.356-.341,0,0Zm.564,19.879a1.811,1.811,0,0,1,1.135,2.887c-2.291.137-2.221-1.236-3.4-1.806C1487.61,1065.638,1489.965,1066.3,1490.12,1065.553Zm-2.267-6.868c-.457,1.335-2.334.3-3.4,0C1484.69,1057.883,1487.459,1058.4,1487.853,1058.685Zm-2.264-5.42c-2.495,1.324-2.154-1,0,0Zm2.264,20.6h1.133v.723h-1.133Zm0-26.019c-2.933,1.437-2.192-1.881,0,0Zm-2.264.723a1.5,1.5,0,0,0,1.129.72c-.4,1.308-3.086,1.168-2.834,2.892C1481.786,1051.968,1483.255,1048.312,1485.589,1048.568Zm-2.27,6.506c-.372-.239.235.15,0,0Zm-.567-16.264Zm.567,9.758c-2.6-.242.452-2.188,0,0Zm-3.967-18.789c-1.723.986,1.548-1.1,0,0Zm.566,6.137c.941.71-.421,2.136-2.265,2.174C1478.207,1037.237,1477.838,1035.8,1479.918,1035.916Zm-.566,8.314c.239.154-.371-.235,0,0Zm-1.134,10.844c-.373-.239.241.15,0,0Zm-1.7-8.676c.265.774-.814.689-1.7.723C1475.065,1046.678,1475.541,1046.38,1476.521,1046.4Zm-10.2-4.7c-1.9.874,1.367-1.212,0,0Zm.564,8.673q-1.9-.235-2.264-1.447C1465.9,1048.1,1466.679,1049.449,1466.882,1050.374Zm-2.264-14.458c-1.9.877,1.368-1.209,0,0Zm1.13,2.894c-1.438-.044-2.2-.526-2.265-1.447A1.475,1.475,0,0,1,1465.748,1038.81Zm-4.532,7.588c2.024-1.287-2.812,1.792,0,0Zm-15.869-8.674c.2-.47,1-.566,1.135-1.081a6.357,6.357,0,0,1,1.7,2.167h-1.7C1446.672,1038.083,1446.365,1037.68,1445.347,1037.724Zm1.135-5.781c1.338.532.637,2.792-1.7,2.167C1445.326,1033.373,1445.938,1032.68,1446.482,1031.943Zm-1.7,22.407c-1.9.874,1.368-1.215,0,0Zm-.57,1.083c3.635-.356,4.558,1.7,6.8.723,1.4.935-.551,1.775,0,3.253-3.3-.6-4.1-2.007-7.365-1.086C1444.5,1057.4,1445.248,1056.668,1444.212,1055.433Zm5.667-.359c-.67,1.1-3-.4,0,0Zm-.565,5.778c-1.408,1.41-.824-1.2,0,0Zm-5.1-1.443c-.369-.239.241.15,0,0ZM1443.08,1037c-.369-.239.238.151,0,0Zm-.565,25.3c-1.726.017-3.733.208-3.4-1.085C1440.829,1060.7,1442.384,1060.917,1442.515,1062.3Zm-3.4-2.529c-.369-.236.241.15,0,0Zm1.135,2.89c.04,1.021-2.912.67-2.832-.361C1439.017,1062,1438.88,1062.808,1440.246,1062.661Zm-1.7,5.421c-.372-.236.241.15,0,0Zm-1.132-1.448c-.18.769-2.688.083-2.27-.723C1436.93,1065.5,1436.523,1066.481,1437.414,1066.634Zm-3.4-31.077h1.134c-.1.307.222.345.57.359C1435.939,1036.622,1433.134,1036.448,1434.01,1035.557Zm-1.13-3.973c-1.41,1.407-.83-1.2,0,0Zm0,10.117c2.125-.27,1.234,1.383,2.834,1.447a5.612,5.612,0,0,0-2.834.721c1.07.641,2.508,1.054,2.264,2.529-2.446,2.2-6.078.143-6.231-2.168C1430.752,1043.718,1433.616,1043.855,1432.88,1041.7Zm-2.267,6.144c-1.414,1.41-.827-1.2,0,0Zm-3.967-6.506h2.267C1429.358,1042.732,1426.2,1042.732,1426.646,1041.339Zm.565,12.646c-1.234.068-1.8-.293-1.7-1.082Q1427.37,1052.806,1427.211,1053.985Zm-1.7,6.867c1.373-1.184,2.705,1.007,0,0Zm-2.268,1.086h1.132v.723h-1.132Zm-1.7,4.7c1.124-2.86,3.567,1.294,0,0Zm-1.135-23.124c.16.58-.535.618-.565,1.082C1418.745,1044.735,1419.015,1042.947,1420.41,1043.51Zm-20.971,10.117c-.369-.239.241.153,0,0Zm1.135-7.229c1.778,1.191-1.394,2.249,0,0Zm1.135,19.513c-.112,1.085-2.356-.342,0,0Zm1.135-30.354c-.485.065-.535-.14-.57-.362v-.72c.808.028,1.608.058,1.7-.365C1405.51,1034.438,1402.68,1034.919,1402.844,1035.557ZM1415.308,1080c.238.154-.369-.236,0,0Zm2.27-20.233-.026-.017.045.028Zm1.7-8.315c-.824,1.2-1.408-1.406,0,0Zm2.27,26.019c-.669,1.1-3.009-.389,0,0Zm4.531,1.447c-2.593-.242.458-2.188,0,0Zm6.8,2.529c-.7-.873-3.014-.727-2.832-2.167C1431.713,1079.52,1433.908,1080.615,1432.88,1081.451Zm-2.267-3.976c.238.153-.375-.236,0,0Zm13.035,3.976h-1.133v-1.082a3.716,3.716,0,0,0,1.7.359C1444.1,1081.021,1443.645,1081.09,1443.648,1081.451Zm1.134-3.253c-.918.1-.976-.341-1.7-.358.107-.293.568-.362.568-.723h1.134Zm-.57-1.447c-1.18.157-1.5-.245-2.267-.358-.447.14-1.126,2.382.57,2.891-1.718.45-2.674-.43-6.236,0,.522-1.536-1.357-1.546-3.4-1.444-.455-.839-1.815-2.055-.568-2.894-1.809-.212-1.753.679-2.834,0,.766-2.666-6.161-3.427-7.366-2.53-2.719-.433-3.062-2.385-3.4-4.334,5.615-.205,13.684,1.065,6.8-3.615,1.5-1.45,3.846-2.365,6.8-2.891.169-.952-2.2-.283-1.7-1.444,1.932,1.106,2.9.379,5.1,0-.026,1.454.391,4.67-3.4,5.421-.16-.587.533-.625.568-1.086h-2.832c-.3,2.925-.369,4.28,2.264,6.506-.918-.594-3.559-.437-3.4.72,1.039.758,7.981-1.894,8.5.723a4.673,4.673,0,0,0,2.267-1.443c-2.633.351-3.423-.471-5.1-.724.122-1.321.779-1.386,0-2.529,1.664,1.45,3.289,2.263,5.666.72-.391,2.181.23,3.71,3.966,3.253-1.312,1.652-2.425,1.365-2.267,3.618,3.055.055.335-1.478,1.7-2.171a11.825,11.825,0,0,0,2.834,1.447C1446.2,1075.611,1443.519,1075.106,1444.212,1076.751Zm-11.332-8.669Zm-.568-1.086c-.669,1.1-3.008-.392,0,0Zm14.735-7.225c-1.371,1.621.42-.5,0,0Zm1.7,25.3c-1.41,1.41-.83-1.2,0,0Zm1.13,2.891h-1.13v-.724h1.13Zm.57-26.019c-.37-.239.238.153,0,0Zm3.4,28.548h-1.7c.607-1.352-1.409-1.031-1.136-2.167C1452.74,1088.541,1453.912,1089.121,1453.851,1090.486Zm-.571-13.735h-1.131v-.72h1.131Zm.571-22.042c-2.647-.3-6.036-1.686-6.8.365-2.246-.669-.988-3.42-.565-4.338a5,5,0,0,1,4.531,0c.552-1.314-2.759-.167-1.7-1.809,1.86.587,2.168-.079,4.537,0,.168.956-1.186.932-2.268,1.085,1.847.6-1.6,3.43,3.4,3.253C1454.685,1053.8,1454.142,1054.176,1453.851,1054.709Zm1.7.365c-.375-.239.238.15,0,0Zm1.135-11.926c1.547,1.1-1.727-.986,0,0Zm.565,15.9c2.219.051,2.261,1.232,4.537.362.31.641.286,1.5,1.129,1.806-2.974,1.02-1.448.924-3.969,3.614C1456.755,1063.938,1457.354,1061.273,1457.25,1059.047Zm1.7,9.758c-.113,1.082-2.35-.348,0,0Zm-1.133,5.059c.747.126.894.634,1.7.723C1459.286,1075.488,1457.319,1074.608,1457.814,1073.864Zm3.4,6.864Zm5.1-.359c-2.9,1.847,1.269-2.522,0-.365C1466.278,1080.076,1466.4,1080.315,1466.318,1080.369Zm2.267,6.141c.236.153-.372-.236,0,0Zm-2.837-12.646c-1.585-.355.827-.966-.565-1.448-3.1.144-1.86,1.653-1.7,3.253-3.832-1.215-1.924-4.034-4.536-4.7.23-1.058,1.482-1.465,2.269-2.168a7.2,7.2,0,0,1,3.4,1.082c.768-.109.469-.9.565-1.447,1.611.659,2.069,2.058,3.966,2.533C1468.6,1072.307,1467.049,1073,1465.748,1073.864Zm8.5-14.817-.059-.038C1474.27,1059.058,1474.376,1059.125,1474.251,1059.047Zm1.135,13.369c-1.413,1.41-.827-1.2,0,0Zm.564-3.252c-2.654-.307-.577-1.389-1.7-2.53,2.778.325,2.663-1.191,5.667-.723C1480.03,1067.911,1476.936,1067.867,1475.95,1069.164Zm5.1-25.295c-1.772-.465-.291-.748-1.134-1.806C1482.2,1042.008,1481.416,1042.988,1481.052,1043.869Zm.57,1.8c.233.154-.375-.235,0,0Zm0-1.444c.233.154-.375-.235,0,0Zm3.967,18.431a1.721,1.721,0,0,1,.565,1.806c-2.513.065-3.589.655-3.967-1.085A18.463,18.463,0,0,1,1485.589,1062.661Zm-2.27,17.343c-.182-.847-.894-1.355-.567-2.529,2.872-.215,4.783-1.048,5.669-2.529,1.991.42,1.734,2.266,1.7,3.976C1487.179,1078.857,1486.761,1080.393,1483.319,1080Zm4.534,10.12c-.736-1.966-.324-5.939,5.1-4.338C1490.1,1087.237,1492.757,1089.981,1487.853,1090.124Zm7.934,0h-1.135v-.723h1.135Zm5.1-5.058c.246-.444.725-.744,1.7-.724C1502.339,1084.786,1501.862,1085.083,1500.888,1085.066Zm-3.4-1.086c-2.455-.412-1.4-1.187-3.967-1.081.862-1.622,4.489-1.475,4.532-3.615,1.547.577,2.108,1.785,4.533,1.809C1501.769,1083.858,1498.128,1082.4,1497.489,1083.98Zm5.666-7.229.049.032C1503.151,1076.749,1502.876,1076.575,1503.155,1076.751Zm2.834-44.808c2.867,7.219-8.061,2.747,0,0Zm1.135,29.633c.233.15-.374-.235,0,0Zm1.132-25.66c.236.157-.372-.236,0,0Zm1.7,39.4c-.375-.239.238.147,0,0Zm.886,14.445c-.211-.236-.522-.574-.567-.628.021.02.093.1.246.273.139.153.243.266.321.355Zm2.516-53.84c1.191.884,2.516-.318,3.4.365v1.443C1514.793,1037.653,1513.072,1037.424,1513.358,1035.916Zm2.264,12.291c-.112,1.081-2.355-.348,0,0Zm7.933,33.606a9.05,9.05,0,0,1-3.966-1.809c-1.2.734-.991,1.884-2.832,2.9.129.518,1.689.122,1.7.723.581,1.212-1.762.563-2.835.72-.243-.689-1.22-.908-1.135-1.809,1.414.058,1.756-.566,2.838-.72.331-1.536-3.062-.7-2.268-2.529,1.352-.99,3.63.706,5.1-.362.222-.867-2.58.2-1.7-1.082h3.4c-1.616,2.956,4.037,1.28,3.4,3.611C1523.952,1080.734,1524.629,1081.544,1523.555,1081.813Zm1.7,6.144c-2.16,1.376,1.978-1.263,0,0Zm1.13,1.8c-.217.141,1.708.389,1.7.362C1528.25,1090.7,1525.031,1090.63,1526.39,1089.762Zm-4.532-50.594v-1.8c-1.948.416-3.4-1.358-5.666-1.806.008-1.075-.056-2.2,1.7-2.167-.337-1-2.84-1.7-1.135-2.891,1.307-.113.629,1.044,1.7,1.085-.07-.365.559-2-2.265-1.8.126-1.485,2.763-1.373,5.1-1.448.042.57-.276,1.376.564,1.448-.066.679-1.873.249-1.7,1.078,1.967.673,2.3,2.39,3.967,3.253.912.1.974-.338,1.7-.358-2.09-.089-1.057-.765-3.4-1.809,2.293-1.021,4.7-.55,5.1-2.164,1.638.157,2.585.757,2.831,1.8a4.566,4.566,0,0,1-2.264.359c-.581,1.457.884,1.607,1.7,2.167.974.024-.616-1.857,1.7-1.8-.975,1.788,2.175,3.2,4.536,3.976-1.483.635-1.552,2.382-3.966,1.443-.084,1.137,1.45,1.243,2.832,1.444q.448,2.463-3.4,2.171c.468-1.024-.8-.935-.566-1.8C1527.458,1041.308,1526.085,1038.875,1521.858,1039.168Zm14.17,10.483c-.067.682-1.879.252-1.7,1.085C1532.615,1050.3,1534.412,1049.156,1536.028,1049.651Zm-5.672,21.684c1,.085,1.3.621,1.136,1.443C1529.786,1073.143,1530.488,1071.973,1530.356,1071.335Zm1.706,18.066c-1.191-.775-1.373-.758-1.706-2.529a5.428,5.428,0,0,1,2.838-.362C1532.126,1087.039,1533.124,1088.878,1532.062,1089.4Zm-.57-32.521v-1.086c1.471-.218,2.042.147,1.7,1.086Zm2.266,9.393c-1.959-1.174,2.158-1.925,2.835-.72C1536.85,1066.556,1533.5,1065.269,1533.758,1066.273Zm1.7-4.7c4.033.8,7.291,2.1,7.936,5.058C1539.569,1066.553,1534.173,1064.675,1535.458,1061.576Zm9.068-11.564c-.824,1.2-1.407-1.409,0,0Zm1.135-14.1c-2.363.184-2.719-.912-2.835-2.164C1545.473,1033.39,1546,1034.383,1545.661,1035.916Zm3.4-7.226c1.852,2.177-.005,2.15-2.267,3.253C1544,1030.925,1545.661,1028.608,1549.063,1028.69Zm2.264,59.267c-.112,1.082-2.355-.345,0,0Zm1.7-.362Zm2.264,1.085h-1.135v-.723h1.135Zm0-2.529c-.369-.238.238.151,0,0Zm0-13.011c-.642-.068-.313-.362,0-.362-.511-.874-1.673.819-3.4.362-.784-.464-.561-1.567-.57-2.529-1.734-.263-1.665.624-3.4.362.354-1.1,1.258-1.847,3.4-1.809-.251,2.055,2.12.337,3.4,1.085-.11-.293-.57-.358-.57-.723C1554.793,1069.276,1556.745,1071.529,1555.294,1073.14Zm1.135-5.42h-2.27c-.046-.574.276-1.379-.565-1.447C1554.012,1065.685,1556.812,1066.6,1556.429,1067.72Zm1.135,10.478c.233.154-.375-.235,0,0Zm0,.724c.238.154-.375-.235,0,0Zm1.132-4.335h-1.132v-.723h1.132Zm88.413-23.489c3.82-.318-.318,2.321,0,0Zm.566-21.319c-.953,1.276-1.77-1.181,0,0Zm-4.535,5.416c2.238.738,4.51,1.458,5.1,3.253C1644.345,1039.4,1639.366,1038.94,1643.14,1035.195Zm3.4,10.121v.723h-1.134v-.723Zm-5.095,1.082c-.958,1.276-1.775-1.178,0,0Zm-6.807-5.782c1.609.061,1.108-1.222,3.4-.721-.656,2.113-2.61.888-5.1.721C1633.066,1040.155,1634.629,1040.144,1634.637,1040.616Zm-3.4,13.734c-.139.635-.976.823-2.269.724C1628.4,1053.985,1630.237,1054.432,1631.24,1054.35Zm-13.037-18.793c-.824,1.2-1.41-1.406,0,0Zm-7.368-4.7c.029,1.707-1.828,2.208-1.7,3.98C1605.843,1033.718,1609.135,1031.768,1610.835,1030.857Zm-10.2,14.459c1.012-.045,1.194.443,2.265.358-.07.921-.828,1.4-2.265,1.447Zm-3.4,2.529c.239.153-.374-.236,0,0Zm0,7.229c-.374-.239.239.15,0,0Zm-.565,5.417c.233.153-.374-.236,0,0Zm-20.97-26.016c.235.15-.375-.235,0,0Zm-15.3,27.1c-1.207.167-1.078-.515-1.134-1.085C1559.962,1060.651,1560.425,1060.955,1560.4,1061.576Zm0,11.2c-.952,1.28-1.769-1.177,0,0Zm.57,1.809c-.885,1.707-2.813.478,0,0Zm0,14.452c.244-.44.721-.741,1.7-.72C1562.93,1089.087,1561.851,1089.008,1560.965,1089.039Zm-.57-53.844a1.714,1.714,0,0,1,.57-1.8h2.265C1564.349,1034.68,1562.668,1035.131,1560.4,1035.195Zm3.4,54.206c.236.153-.372-.236,0,0Zm5.666-1.806c-.95,1.28-1.771-1.177,0,0Zm-1.134-45.532v-.724h1.134v.724Zm1.7,47.7c-.112,1.086-2.35-.344,0,0Zm0-3.611c-.369-.238.241.151,0,0Zm.57-25.3c-.117,1.083-2.355-.344,0,0Zm.565-22.042c-3.646-1.318-2,1.243-4.531,1.447.53-1.59,1.18-3.106,3.966-3.253A1.723,1.723,0,0,1,1571.163,1038.81Zm1.7,3.611c.236.154-.372-.235,0,0Zm2.835,39.03c1.137,1.345-.573,2.274.564,3.615C1573.176,1085.025,1571.283,1081.37,1575.7,1081.451Zm0-2.167c-1.295-.5-.434-2.656,1.7-2.167C1577.424,1078.216,1576.2,1078.519,1575.7,1079.284Zm1.7-9.758c-.118,1.082-2.356-.345,0,0Zm2.831.361c-1.26-.522-2.955-.768-2.831-2.167C1579.442,1067.744,1580.418,1068.443,1580.231,1069.887Zm-.565-19.151c.675-2.485,2.9-1.929,2.835-5.062C1585.892,1046.732,1583.66,1051.691,1579.666,1050.736Zm4.532,34.33a2.16,2.16,0,0,1-1.132-3.253c1.833-.447.433,1.171,2.266.72A9.986,9.986,0,0,1,1584.2,1085.066Zm2.27-19.513c.232.15-.375-.236,0,0Zm2.832-1.086c-.135.635-.972.823-2.268.724C1587.172,1064.552,1588.009,1064.365,1589.3,1064.467Zm-1.7,3.973c2.374-.775,5.377,1.144,6.8,2.171C1591.716,1070.154,1588.836,1069.822,1587.6,1068.44Zm7.366-10.478c-.951,1.28-1.767-1.178,0,0Zm3.4,12.287c-.078,2.857-4.484.051,0,0Zm3.969-11.564c-1.17-.461-2.878-.577-2.835-1.805A3.319,3.319,0,0,1,1602.337,1058.685Zm-2.27,0h1.134v.724h-1.134Zm1.134,18.432c-.374-.236.239.15,0,0Zm2.268-12.288c-.747-.369-2.09-.355-2.832-.724-.158-1.5.742-1.406,0-2.529C1602.344,1060.771,1605.487,1063.255,1603.469,1064.829Zm1.7-36.139c1.287.758,2.454,1.809,1.7,2.894H1604.6C1605.476,1031.059,1605.1,1029.734,1605.169,1028.69Zm1.7,9.034c-.827,1.2-1.408-1.409,0,0Zm0,28.91c-1.651.533-1.651-1.614,0-1.081Zm0-3.611Zm.57-27.828h1.132a1.378,1.378,0,0,0-.567,1.086C1606.825,1036.079,1606.8,1035.718,1607.438,1035.195Zm.565,6.144h1.7v.724C1608.568,1042.186,1607.928,1041.991,1608,1041.339Zm1.7,31.077a1.585,1.585,0,0,1-1.13-1.805C1610.848,1070.556,1610.069,1071.539,1609.7,1072.416Zm1.705,13.012c-.118,1.082-2.356-.348,0,0Zm.565-56.738c-.953,1.28-1.77-1.178,0,0Zm4.536,56.376c-2.465,0-2.43-1.587-3.405-2.533,1.17-1.952,3.365-1.4,4.535-1.082C1617.43,1081.472,1620.1,1083.192,1616.506,1085.066Zm2.262-29.633c-.367-.236.241.153,0,0Zm.57-4.335c.744.126.891.635,1.7.723-1.507,1.7-.635,2.137.564,3.612C1616.214,1054.357,1618.618,1052.985,1619.338,1051.1Zm5.666,38.664h-1.135v-.723H1625Zm-1.7-9.393c-.916.1-.977-.344-1.7-.365-.278-1.137,1.02-1.273.57-2.529,1.871-.591,3.341.266,3.4,1.809C1623.754,1078.97,1623.8,1079.84,1623.305,1080.369Zm0-6.505Zm2.264-5.424c.238.154-.369-.235,0,0Zm5.671-7.225c-.117,1.085-2.355-.345,0,0Zm.565.361c-.134-.635-.974-.822-2.269-.724-.394-1.112-.394-.692,0-1.805-2.677.341-3.954,1.573-6.8,1.805.455-3.263-.305-4.935-1.135-7.225,3.137-.072,3.6,1.559,6.8,1.447-.752,1.055.362,1.864,0,3.611,1.183-.208,1.617-.894,3.4-.723-.235,1.6,2.037,1.593,2.267,2.89C1631.045,1060.467,1634.147,1061.75,1631.805,1061.576Zm2.267-15.178c-1.493.109-1.86-.5-1.7-1.444C1633.863,1044.845,1634.233,1045.452,1634.072,1046.4Zm3.4-.359c-1.434-.409-1.643-1.6-1.7-2.891C1637.946,1043.418,1639.313,1045.22,1637.471,1046.039Zm-1.129,10.117c.233.153-.375-.239,0,0Zm1.7-1.447c1.2.116.123,1.713-1.132,1.447C1636.494,1055.17,1638.031,1055.429,1638.039,1054.709Zm1.135,11.925c-.956,1.28-1.772-1.177,0,0Zm-2.267-6.863c1.7-.366,1,.805,1.132,1.444A1.546,1.546,0,0,1,1636.907,1059.771Zm2.267,27.462c-3.319-.481,2.05-1.706,0,0Zm.564-32.883c.2-1.621,1.944-1.457,3.4-.723,1.727-.444-.829-1.379.565-1.806,1.365-.15,1.236.659,2.834.359C1645.613,1054.2,1643.189,1055.808,1639.738,1054.35Zm2.835,24.21h-1.129v-.72h1.129Zm.567-12.649c.656.061,1.009-.079,1.136-.358,1.956-.495,2.668,1.621,3.966.358,2.133,1.788-.907,2.492,1.135,4.338C1645.437,1069.99,1642.672,1068.983,1643.14,1065.911Zm18.134-34.689c-.113,1.083-2.35-.348,0,0Zm-7.366,6.141c1.817,1.01,5.136,1.065,4.534,3.614a12.872,12.872,0,0,1-4.534.724C1652.187,1039.37,1654.612,1039.773,1653.908,1037.363Zm0,37.948c-.915.1-.977-.345-1.7-.365C1651.984,1074.246,1654.791,1074.42,1653.908,1075.311Zm-2.267-4.338c-.369-.239.239.15,0,0Zm3.967,8.673v1.447c-2.233-.044-1.735-1.573-3.967-.724C1651.183,1078.994,1654.32,1079.909,1655.608,1079.646Zm0,6.864Zm1.135-1.806c-1.5-.727-3.681-1.02-3.964-2.522-.153,0-.174-.014,0-.007l0,.007a7.267,7.267,0,0,0,3.4-.731C1657.8,1082.362,1656.994,1083.858,1656.743,1084.7Zm5.1,4.7c-1.33.116-2.13.573-3.969.361,1.038-.9.452-2.843,3.4-2.529C1661.927,1087.66,1661.916,1088.51,1661.844,1089.4Zm6.233-13.37c1.028.942-.246,1.089.566,2.167-2.155.2-3.255,1.3-5.1.724C1662.73,1076.478,1665.581,1076.366,1668.077,1076.031Zm-4.536,6.144c.883,1.283-1.924.218-1.7,1.082C1660.313,1082.936,1662.1,1081.792,1663.541,1082.175Zm-2.832.724c-.112,1.078-2.355-.349,0,0Zm.565,1.081c.078.953,2.259,2.178-1.129,2.53,1.059-1.639-2.252-.492-1.7-1.806.482-.065.533.144.567.362.667-.058.479-.662.566-1.086Zm-2.832-46.256c-.222-.7,2.58-.528,1.7.366C1659.226,1038.189,1659.168,1037.745,1658.442,1037.724Zm1.7,16.261c1.016-.041,1.194.444,2.264.365C1662.647,1056.487,1658.038,1055.586,1660.145,1053.985Zm2.264-13.369Zm1.132-4.335c-.367-.236.241.15,0,0Zm0,16.622c.249-.443.728-.741,1.7-.723C1664.994,1052.627,1664.515,1052.924,1663.541,1052.9Zm1.7-6.14c-1.413,1.406-.83-1.2,0,0Zm.565-1.447v-1.086h1.7C1667.615,1045.019,1667.045,1045.381,1665.811,1045.316Z" fill="#c140f2"/>
    <path id="Path_57424" data-name="Path 57424" d="M293,1090.5h1.46a14.521,14.521,0,0,1-1.46-2.632Z" fill="#c140f2"/>
    <path id="Path_57425" data-name="Path 57425" d="M1255.93,1090.5h4.913c-.209-.505-.056-1.005.88-1.461A7.9,7.9,0,0,0,1255.93,1090.5Z" fill="#c140f2"/>
    <path id="Path_57426" data-name="Path 57426" d="M1648.242,1089.762c-.554-.742-2.968-.255-2.927.738h2.056a.812.812,0,0,1-.262-.738Z" fill="#c140f2"/>
    <path id="Path_57427" data-name="Path 57427" d="M1052.03,1028.331a3.467,3.467,0,0,0,.387-.831h-2.12A4.108,4.108,0,0,0,1052.03,1028.331Z" fill="#c140f2"/>
    <path id="Path_57428" data-name="Path 57428" d="M1167.022,1090.5h.05l.007-.014Z" fill="#c140f2"/>
  </g>
</svg>
